<?xml version="1.0" standalone="no"?>
<!DOCTYPE svg PUBLIC "-//W3C//DTD SVG 20010904//EN"
 "http://www.w3.org/TR/2001/REC-SVG-20010904/DTD/svg10.dtd">
<svg version="1.0" xmlns="http://www.w3.org/2000/svg"
 width="512.000000pt" height="512.000000pt" viewBox="0 0 512.000000 512.000000"
 preserveAspectRatio="xMidYMid meet">

<g transform="translate(0.000000,512.000000) scale(0.100000,-0.100000)"
fill="#000000" stroke="none">
<path d="M3594 5108 c-34 -16 -44 -51 -44 -148 l0 -90 -1360 0 -1360 0 0 -80
0 -80 1418 0 1419 0 23 25 c18 19 25 40 28 85 2 33 7 60 11 59 15 -1 396 -247
395 -255 0 -8 -382 -253 -395 -254 -4 0 -9 27 -11 60 -3 45 -10 66 -28 85
l-23 25 -1339 0 -1338 0 0 -80 0 -80 1280 0 1280 0 0 -91 c0 -90 9 -123 39
-146 20 -16 56 -16 84 -2 58 31 677 422 688 435 20 24 16 82 -6 103 -39 37
-698 441 -719 440 -11 0 -31 -5 -42 -11z"/>
<path d="M330 4460 l0 -80 85 0 85 0 0 80 0 80 -85 0 -85 0 0 -80z"/>
<path d="M660 4460 l0 -80 85 0 85 0 0 80 0 80 -85 0 -85 0 0 -80z"/>
<path d="M145 3941 c-51 -23 -107 -85 -129 -143 -15 -38 -17 -76 -14 -264 3
-202 5 -222 25 -259 11 -22 34 -52 50 -67 35 -33 109 -67 146 -68 l27 0 0 -85
c0 -80 -1 -85 -21 -85 -72 0 -162 -60 -202 -134 -21 -39 -22 -53 -22 -276 0
-223 1 -237 22 -276 40 -74 130 -134 202 -134 20 0 21 -5 21 -85 l0 -85 -27 0
c-37 -1 -111 -35 -146 -68 -16 -15 -39 -45 -50 -67 -20 -37 -22 -57 -25 -262
-3 -209 -2 -224 19 -272 23 -56 82 -115 135 -137 28 -12 193 -14 1001 -14 916
0 970 1 1008 19 46 21 98 69 123 115 14 26 18 66 20 251 4 256 -1 284 -65 355
-43 48 -55 54 -171 86 -9 3 -12 24 -10 81 l3 78 42 7 c23 4 55 14 71 22 42 22
110 102 122 145 13 48 13 436 -1 485 -12 42 -78 120 -122 142 -16 9 -47 18
-70 22 l-42 7 -3 78 c-2 57 1 78 10 81 7 2 36 10 63 17 37 10 63 26 101 63 71
72 76 96 72 361 -2 185 -6 225 -20 251 -25 46 -77 94 -123 115 -38 18 -92 19
-1010 19 -917 0 -972 -1 -1010 -19z m1972 -165 l28 -24 0 -201 c0 -195 -1
-201 -23 -223 l-23 -23 -922 -3 c-507 -1 -932 0 -945 3 -12 3 -31 14 -42 25
-19 19 -20 34 -20 220 0 200 0 201 25 225 l24 25 935 0 935 0 28 -24z m-217
-721 l0 -85 -745 0 -745 0 0 85 0 85 745 0 745 0 0 -85z m222 -273 c22 -22 23
-28 23 -222 0 -194 -1 -200 -23 -222 l-23 -23 -945 0 -946 0 -19 24 c-17 21
-19 41 -19 218 0 203 4 227 43 243 12 5 429 8 954 7 l932 -2 23 -23z m-222
-717 l0 -85 -745 0 -745 0 0 85 0 85 745 0 745 0 0 -85z m222 -273 c22 -22 23
-28 23 -223 l0 -201 -28 -24 -28 -24 -935 0 -935 0 -24 25 c-25 24 -25 25 -25
223 0 206 2 217 45 241 14 7 288 10 952 8 l932 -2 23 -23z"/>
<path d="M2955 3941 c-46 -21 -98 -69 -123 -115 -14 -26 -18 -66 -20 -251 -4
-265 1 -289 72 -361 38 -37 64 -53 101 -63 28 -7 56 -15 63 -17 9 -3 12 -24
10 -81 l-3 -78 -42 -7 c-23 -4 -54 -13 -70 -22 -44 -22 -110 -100 -122 -142
-14 -51 -14 -437 0 -488 12 -42 78 -120 122 -142 16 -9 47 -18 70 -22 l42 -7
3 -78 c2 -57 -1 -78 -10 -81 -7 -2 -35 -10 -63 -17 -37 -10 -63 -26 -101 -63
-71 -72 -76 -96 -72 -361 2 -185 6 -225 20 -251 25 -46 77 -94 123 -115 38
-18 92 -19 1008 -19 799 0 973 2 1001 14 46 19 104 72 129 120 21 39 22 53 22
276 0 222 -1 237 -22 275 -11 22 -34 52 -50 67 -35 33 -109 67 -145 68 l-28 0
0 85 c0 80 1 85 21 85 72 0 162 60 202 134 21 39 22 53 22 276 0 223 -1 237
-22 276 -40 74 -130 134 -202 134 -20 0 -21 5 -21 85 l0 85 28 0 c36 1 110 35
145 68 16 15 39 45 50 67 20 37 22 57 25 262 3 209 2 224 -19 272 -23 56 -82
115 -135 137 -28 12 -193 14 -1001 14 -916 0 -970 -1 -1008 -19z m1970 -166
c25 -24 25 -25 25 -225 0 -186 -1 -201 -20 -220 -11 -11 -30 -22 -42 -25 -13
-3 -438 -4 -945 -3 l-922 3 -23 23 c-22 22 -23 28 -23 223 l0 201 28 24 28 24
935 0 935 0 24 -25z m-215 -720 l0 -85 -745 0 -745 0 0 85 0 85 745 0 745 0 0
-85z m221 -274 c17 -21 19 -41 19 -221 0 -180 -2 -200 -19 -221 l-19 -24 -946
0 -945 0 -23 23 c-22 22 -23 30 -26 210 -3 202 2 226 48 249 20 10 222 12 958
10 l934 -2 19 -24z m-221 -716 l0 -85 -745 0 -745 0 0 85 0 85 745 0 745 0 0
-85z m199 -260 c16 -8 31 -22 35 -30 3 -9 6 -104 6 -211 0 -194 0 -195 -25
-219 l-24 -25 -935 0 -935 0 -28 24 -28 24 -3 189 c-3 203 2 227 48 250 20 10
227 13 943 13 786 0 922 -2 946 -15z"/>
<path d="M1124 779 c-187 -116 -348 -219 -358 -230 -26 -25 -26 -83 0 -108 41
-40 697 -441 721 -441 14 0 37 13 54 29 28 28 29 33 29 125 l0 96 1360 0 1360
0 0 80 0 80 -1417 0 c-1148 -1 -1421 -3 -1435 -14 -24 -18 -38 -59 -38 -112 0
-24 -2 -44 -4 -44 -12 0 -399 247 -400 255 -1 8 379 252 395 254 4 1 9 -26 11
-59 3 -45 10 -66 28 -85 l23 -25 1339 0 1338 0 0 80 0 80 -1280 0 -1280 0 0
91 c0 116 -21 158 -81 159 -17 0 -144 -73 -365 -211z"/>
<path d="M4290 660 l0 -80 85 0 85 0 0 80 0 80 -85 0 -85 0 0 -80z"/>
<path d="M4620 660 l0 -80 85 0 85 0 0 80 0 80 -85 0 -85 0 0 -80z"/>
</g>
</svg>
