<?xml version="1.0" standalone="no"?>
<!DOCTYPE svg PUBLIC "-//W3C//DTD SVG 20010904//EN"
 "http://www.w3.org/TR/2001/REC-SVG-20010904/DTD/svg10.dtd">
<svg version="1.0" xmlns="http://www.w3.org/2000/svg"
 width="512.000000pt" height="512.000000pt" viewBox="0 0 512.000000 512.000000"
 preserveAspectRatio="xMidYMid meet">

<g transform="translate(0.000000,512.000000) scale(0.100000,-0.100000)"
fill="currentColor" stroke="none">
<path d="M1169 5118 c0 -2 -12 -75 -27 -163 l-27 -160 -49 -23 -48 -24 -67 47
c-36 25 -99 69 -139 98 l-73 51 -281 -282 -282 -281 51 -73 c29 -40 73 -103
98 -139 l47 -67 -24 -48 -23 -49 -160 -27 c-88 -15 -161 -27 -162 -27 -2 -1
-3 -181 -3 -400 l0 -399 23 -5 c12 -3 86 -16 164 -28 l142 -23 20 -49 c12 -27
18 -54 14 -61 -4 -6 -47 -67 -96 -135 l-89 -124 284 -284 283 -283 134 96 134
96 41 -16 c22 -9 46 -20 52 -24 6 -4 21 -72 33 -152 12 -80 24 -153 27 -162 5
-17 29 -18 330 -18 l324 0 0 -495 0 -495 -691 0 c-596 0 -699 -2 -752 -16 -86
-22 -147 -55 -214 -118 -210 -195 -216 -503 -13 -706 36 -36 89 -77 120 -92
125 -62 -48 -58 2512 -58 l2338 0 0 2230 0 2230 -1122 0 -1123 0 -241 241
-241 241 -124 -89 c-68 -49 -129 -92 -135 -96 -7 -4 -34 2 -61 14 l-49 20 -23
142 c-12 78 -25 152 -28 165 l-5 22 -399 0 c-219 0 -399 -1 -400 -2z m665
-195 c3 -16 12 -71 21 -123 23 -143 20 -135 67 -149 24 -7 82 -31 130 -53 l87
-41 119 86 120 85 133 -134 134 -134 -342 0 c-317 0 -346 1 -392 20 -28 11
-97 29 -153 41 -128 26 -309 22 -429 -10 -353 -92 -623 -362 -721 -720 -32
-114 -31 -363 0 -479 106 -389 409 -669 798 -737 125 -22 223 -19 377 10 l37
7 0 -221 0 -221 -255 0 -255 0 -5 23 c-2 12 -14 75 -25 141 -10 65 -21 120
-22 121 -2 1 -32 12 -68 25 -36 13 -91 36 -122 52 -32 15 -61 28 -66 28 -5 0
-59 -36 -121 -80 -61 -44 -115 -80 -119 -80 -4 0 -88 82 -188 181 l-182 182
85 119 86 119 -41 87 c-22 48 -46 106 -53 130 -14 47 -6 44 -149 67 -52 9
-107 18 -122 21 l-28 6 0 259 0 259 22 5 c13 2 76 14 142 25 65 10 120 21 121
22 1 2 10 27 20 57 10 30 33 88 52 129 18 40 30 79 26 85 -4 7 -40 58 -80 114
-40 55 -73 105 -73 110 0 11 353 363 364 363 4 0 54 -33 109 -73 56 -40 107
-76 114 -80 6 -4 45 8 85 26 41 19 99 42 129 52 30 10 55 19 57 20 1 1 12 56
22 121 11 66 23 129 25 142 l5 22 259 0 259 0 6 -27z m-86 -569 l72 -15 0 -86
c0 -83 -1 -85 -22 -80 -128 30 -173 37 -233 37 -304 0 -578 -222 -641 -521
-48 -224 34 -478 204 -629 72 -64 214 -136 312 -156 93 -20 219 -14 310 15 36
12 66 21 68 21 1 0 1 -39 0 -87 l-3 -88 -70 -18 c-99 -26 -310 -19 -410 13
-513 164 -742 734 -482 1200 57 102 196 242 300 303 181 105 381 135 595 91z
m3202 -2124 l0 -2060 -632 0 c-536 0 -629 2 -613 14 11 7 124 78 250 156 127
79 234 146 238 150 5 4 -170 118 -388 254 l-395 246 -630 0 -630 0 0 -80 0
-80 575 0 575 0 0 -125 0 -125 -452 -2 -453 -3 0 -80 0 -80 453 -3 452 -2 0
-120 0 -120 -990 0 -990 0 0 120 0 120 455 0 455 0 0 85 0 85 -455 0 -455 0 0
125 0 125 274 0 c267 0 274 1 306 23 18 12 43 35 54 50 l21 28 3 1680 2 1679
1485 0 1485 0 0 -2060z m-3316 1810 c38 -6 96 -22 128 -37 l58 -26 0 -427 0
-428 -47 -20 c-78 -33 -123 -42 -209 -42 -126 0 -238 45 -332 133 -204 193
-209 507 -11 706 79 79 182 129 294 144 17 2 35 5 40 5 6 1 41 -3 79 -8z
m-806 -3542 l2 -328 -199 0 c-242 0 -283 11 -367 94 -186 187 -83 511 177 555
30 5 128 8 219 7 l165 -1 3 -327z m330 0 l2 -328 -85 0 -85 0 0 330 0 331 83
-3 82 -3 3 -327z m2714 -13 c-47 -33 -390 -245 -396 -245 -3 0 -6 117 -6 259
l0 260 210 -131 c181 -114 207 -133 192 -143z"/>
<path d="M1490 4790 l0 -80 80 0 80 0 0 80 0 80 -80 0 -80 0 0 -80z"/>
<path d="M630 4485 l-54 -55 59 -60 59 -60 58 57 58 57 -57 58 c-32 32 -60 58
-63 58 -3 0 -30 -25 -60 -55z"/>
<path d="M250 3550 l0 -80 80 0 80 0 0 80 0 80 -80 0 -80 0 0 -80z"/>
<path d="M637 2732 l-57 -58 58 -57 58 -57 57 58 57 58 -58 57 -58 57 -57 -58z"/>
<path d="M1490 2310 l0 -80 80 0 80 0 0 80 0 80 -80 0 -80 0 0 -80z"/>
<path d="M3632 3553 l3 -578 578 -3 577 -2 0 580 0 580 -580 0 -580 0 2 -577z
m988 -3 l0 -410 -410 0 -410 0 0 410 0 410 410 0 410 0 0 -410z"/>
<path d="M2150 3880 l0 -80 660 0 660 0 0 80 0 80 -660 0 -660 0 0 -80z"/>
<path d="M2150 3550 l0 -80 660 0 660 0 0 80 0 80 -660 0 -660 0 0 -80z"/>
<path d="M2150 3220 l0 -80 660 0 660 0 0 80 0 80 -660 0 -660 0 0 -80z"/>
<path d="M3800 2725 l0 -85 80 0 80 0 0 85 0 85 -80 0 -80 0 0 -85z"/>
<path d="M4130 2725 l0 -85 80 0 80 0 0 85 0 85 -80 0 -80 0 0 -85z"/>
<path d="M4460 2725 l0 -85 80 0 80 0 0 85 0 85 -80 0 -80 0 0 -85z"/>
<path d="M2150 2395 l0 -85 1320 0 1320 0 0 85 0 85 -1320 0 -1320 0 0 -85z"/>
<path d="M2150 2065 l0 -85 1320 0 1320 0 0 85 0 85 -1320 0 -1320 0 0 -85z"/>
<path d="M2150 1735 l0 -85 1320 0 1320 0 0 85 0 85 -1320 0 -1320 0 0 -85z"/>
<path d="M2150 1405 l0 -85 1320 0 1320 0 0 85 0 85 -1320 0 -1320 0 0 -85z"/>
<path d="M3800 1075 l0 -85 495 0 495 0 0 85 0 85 -495 0 -495 0 0 -85z"/>
<path d="M4297 823 c-4 -3 -7 -42 -7 -85 l0 -78 85 0 85 0 0 85 0 85 -78 0
c-43 0 -82 -3 -85 -7z"/>
<path d="M4627 823 c-4 -3 -7 -42 -7 -85 l0 -78 85 0 85 0 0 85 0 85 -78 0
c-43 0 -82 -3 -85 -7z"/>
<path d="M4627 493 c-4 -3 -7 -42 -7 -85 l0 -78 85 0 85 0 0 85 0 85 -78 0
c-43 0 -82 -3 -85 -7z"/>
<path d="M830 1650 l0 -80 80 0 80 0 0 80 0 80 -80 0 -80 0 0 -80z"/>
<path d="M1160 1650 l0 -80 80 0 80 0 0 80 0 80 -80 0 -80 0 0 -80z"/>
<path d="M1490 1650 l0 -80 80 0 80 0 0 80 0 80 -80 0 -80 0 0 -80z"/>
<path d="M1160 1320 l0 -80 80 0 80 0 0 80 0 80 -80 0 -80 0 0 -80z"/>
<path d="M1490 1320 l0 -80 80 0 80 0 0 80 0 80 -80 0 -80 0 0 -80z"/>
</g>
</svg>
