<?xml version="1.0" standalone="no"?>
<!DOCTYPE svg PUBLIC "-//W3C//DTD SVG 20010904//EN"
 "http://www.w3.org/TR/2001/REC-SVG-20010904/DTD/svg10.dtd">
<svg version="1.0" xmlns="http://www.w3.org/2000/svg"
 width="512.000000pt" height="512.000000pt" viewBox="0 0 512.000000 512.000000"
 preserveAspectRatio="xMidYMid meet">

<g transform="translate(0.000000,512.000000) scale(0.100000,-0.100000)"
fill="#000000" stroke="none">
<path d="M1266 5109 c-62 -15 -153 -68 -197 -116 -22 -24 -55 -74 -72 -111
l-32 -67 -3 -327 -3 -328 -335 0 -335 0 -24 -25 -25 -24 0 -751 0 -751 25 -24
24 -25 336 0 335 0 0 -320 0 -320 -455 0 -456 0 -24 -25 -25 -24 0 -511 0
-511 25 -24 24 -25 455 0 454 0 4 -248 3 -248 37 -76 c45 -91 103 -147 196
-191 l67 -32 1295 0 1295 0 67 32 c93 44 151 100 196 191 l37 76 3 224 c3 198
6 224 20 229 314 108 519 326 594 630 17 67 22 117 21 213 0 138 -14 211 -64
340 -83 215 -289 414 -501 482 l-68 22 0 218 0 218 455 0 456 0 24 25 25 24 0
591 0 591 -25 24 -24 25 -455 0 -455 0 -3 328 -3 327 -32 67 c-44 93 -100 151
-191 196 l-76 37 -1275 2 c-749 1 -1292 -3 -1315 -8z m2568 -161 c55 -16 138
-99 154 -154 8 -28 12 -134 12 -338 l0 -296 -80 0 -80 0 0 295 0 296 -25 24
-24 25 -311 0 -311 0 -24 -25 c-16 -15 -25 -36 -25 -55 0 -19 -9 -40 -25 -55
l-24 -25 -511 0 -511 0 -24 25 c-16 15 -25 36 -25 55 0 19 -9 40 -25 55 l-24
25 -311 0 -311 0 -24 -25 -25 -24 0 -296 0 -295 -80 0 -80 0 0 296 c0 204 4
310 12 338 15 51 99 137 148 153 53 17 2498 17 2554 1z m-1974 -324 c0 -27
101 -119 146 -132 59 -17 1049 -17 1108 0 45 13 146 105 146 132 0 14 26 16
210 16 l210 0 0 -240 0 -240 -455 0 -456 0 -24 -25 -25 -24 0 -591 0 -591 25
-24 24 -25 456 0 455 0 0 -218 0 -217 -71 -25 c-204 -69 -390 -240 -484 -444
-107 -230 -107 -522 0 -752 47 -103 109 -187 198 -270 87 -80 157 -125 270
-170 l82 -33 3 -136 3 -135 -1121 0 -1120 0 0 160 0 160 535 0 536 0 24 25 25
24 0 511 0 511 -25 24 -24 25 -536 0 -535 0 0 320 0 320 335 0 336 0 24 25 25
24 0 751 0 751 -25 24 -24 25 -336 0 -335 0 0 240 0 240 210 0 c184 0 210 -2
210 -16z m140 -1264 l0 -640 -800 0 -800 0 0 640 0 640 800 0 800 0 0 -640z
m2960 160 l0 -480 -1040 0 -1040 0 0 480 0 480 1040 0 1040 0 0 -480z m-960
-840 l0 -200 -80 0 -80 0 0 200 0 200 80 0 80 0 0 -200z m-2720 -440 l0 -320
-80 0 -80 0 0 320 0 320 80 0 80 0 0 -320z m2852 47 c121 -39 203 -90 298
-186 128 -129 192 -269 207 -453 11 -147 -32 -313 -118 -444 l-42 -66 -35 71
c-41 85 -127 182 -202 229 -30 19 -57 36 -59 38 -2 2 9 18 24 36 16 18 40 58
54 88 24 51 26 65 26 185 -1 142 -10 176 -73 262 -60 81 -186 143 -292 143
-106 0 -232 -62 -292 -143 -62 -85 -72 -120 -73 -257 0 -142 13 -189 72 -267
19 -25 33 -46 31 -48 -2 -1 -28 -18 -58 -37 -76 -48 -165 -149 -204 -231 l-32
-69 -43 66 c-149 228 -159 513 -26 753 73 130 235 268 375 319 144 51 324 56
462 11z m-149 -268 c52 -14 112 -71 133 -124 12 -34 15 -66 12 -134 -3 -76 -8
-95 -31 -129 -83 -126 -271 -126 -354 0 -23 34 -28 53 -31 129 -5 106 10 158
62 208 56 54 130 72 209 50z m-1583 -659 l0 -400 -1120 0 -1120 0 0 400 0 400
1120 0 1120 0 0 -400z m1692 -27 c111 -52 183 -131 229 -254 16 -42 17 -54 7
-67 -18 -22 -183 -97 -248 -113 -78 -19 -260 -17 -340 4 -66 17 -221 89 -239
111 -13 16 45 149 89 204 44 55 123 109 196 133 92 30 219 23 306 -18z m-2812
-748 c0 -216 0 -216 25 -240 l24 -25 1231 0 1231 0 24 25 c25 24 25 27 25 200
l0 175 80 0 80 0 0 -176 c0 -110 -5 -192 -12 -218 -16 -55 -99 -138 -154 -154
-60 -17 -2488 -17 -2548 0 -55 16 -138 99 -154 154 -8 27 -12 117 -12 258 l0
216 80 0 80 0 0 -215z"/>
<path d="M2185 4855 c-50 -49 -15 -135 55 -135 41 0 80 39 80 80 0 41 -39 80
-80 80 -19 0 -40 -9 -55 -25z"/>
<path d="M2825 4855 c-16 -15 -25 -36 -25 -55 0 -19 9 -40 25 -55 15 -16 36
-25 55 -25 19 0 40 9 55 25 16 15 25 36 25 55 0 19 -9 40 -25 55 -15 16 -36
25 -55 25 -19 0 -40 -9 -55 -25z"/>
<path d="M1625 3815 l-25 -24 0 -431 0 -431 25 -24 c15 -16 36 -25 55 -25 19
0 40 9 55 25 l25 24 0 431 0 431 -25 24 c-15 16 -36 25 -55 25 -19 0 -40 -9
-55 -25z"/>
<path d="M985 3495 l-25 -24 0 -271 0 -271 25 -24 c15 -16 36 -25 55 -25 19 0
40 9 55 25 l25 24 0 271 0 271 -25 24 c-15 16 -36 25 -55 25 -19 0 -40 -9 -55
-25z"/>
<path d="M1305 3415 l-25 -24 0 -231 0 -231 25 -24 c15 -16 36 -25 55 -25 19
0 40 9 55 25 l25 24 0 231 0 231 -25 24 c-15 16 -36 25 -55 25 -19 0 -40 -9
-55 -25z"/>
<path d="M665 3175 c-24 -23 -25 -31 -25 -135 0 -104 1 -112 25 -135 15 -16
36 -25 55 -25 19 0 40 9 55 25 24 23 25 31 25 135 0 104 -1 112 -25 135 -15
16 -36 25 -55 25 -19 0 -40 -9 -55 -25z"/>
<path d="M3263 3697 c-128 -128 -143 -146 -143 -177 0 -31 15 -49 143 -177
125 -125 147 -143 175 -143 44 0 82 38 82 81 0 27 -16 48 -102 135 l-102 104
102 104 c86 87 102 108 102 135 0 43 -38 81 -82 81 -28 0 -50 -18 -175 -143z"/>
<path d="M4345 3815 c-16 -15 -25 -35 -25 -56 0 -27 16 -48 102 -135 l102
-104 -102 -104 c-86 -87 -102 -108 -102 -135 0 -43 38 -81 82 -81 28 0 50 18
175 143 128 128 143 146 143 177 0 31 -15 49 -143 177 -125 125 -147 143 -175
143 -22 0 -41 -9 -57 -25z"/>
<path d="M4028 3818 c-24 -19 -341 -500 -346 -524 -6 -31 25 -83 53 -90 58
-14 67 -4 243 259 93 138 171 260 175 269 9 24 -11 76 -33 88 -26 14 -73 12
-92 -2z"/>
<path d="M425 1575 c-16 -15 -25 -36 -25 -55 0 -19 9 -40 25 -55 l24 -25 831
0 831 0 24 25 c33 32 33 78 0 110 l-24 25 -831 0 -831 0 -24 -25z"/>
<path d="M425 1255 c-16 -15 -25 -36 -25 -55 0 -19 9 -40 25 -55 l24 -25 671
0 671 0 24 25 c33 32 33 78 0 110 l-24 25 -671 0 -671 0 -24 -25z"/>
</g>
</svg>
