<?xml version="1.0" standalone="no"?>
<!DOCTYPE svg PUBLIC "-//W3C//DTD SVG 20010904//EN"
 "http://www.w3.org/TR/2001/REC-SVG-20010904/DTD/svg10.dtd">
<svg version="1.0" xmlns="http://www.w3.org/2000/svg"
 width="512.000000pt" height="512.000000pt" viewBox="0 0 512.000000 512.000000"
 preserveAspectRatio="xMidYMid meet">

<g transform="translate(0.000000,512.000000) scale(0.100000,-0.100000)"
fill="#000000" stroke="none">
<path d="M100 4741 c-19 -10 -48 -35 -65 -55 l-30 -38 0 -2088 0 -2088 30 -38
c17 -20 46 -45 65 -55 34 -18 117 -19 2460 -19 2343 0 2426 1 2460 19 19 10
48 35 65 55 l30 38 3 507 c2 500 2 507 -18 529 -27 29 -83 30 -108 2 -15 -19
-17 -64 -22 -508 l-5 -487 -2405 0 -2405 0 -3 1758 -2 1757 569 0 c560 0 569
0 595 21 33 26 36 79 6 109 -20 20 -33 20 -595 20 l-575 0 2 213 3 212 2405 0
2405 0 3 -212 2 -213 -1690 0 c-1677 0 -1690 0 -1710 -20 -30 -30 -27 -83 6
-109 l27 -21 1683 0 1684 0 0 -1123 c0 -1117 0 -1123 20 -1145 28 -30 82 -30
110 0 20 22 20 23 18 1454 l-3 1432 -30 38 c-17 20 -46 45 -65 55 -34 18 -117
19 -2460 19 -2343 0 -2426 -1 -2460 -19z"/>
<path d="M334 4465 c-48 -20 -60 -75 -24 -113 28 -30 80 -29 108 1 56 59 -9
144 -84 112z"/>
<path d="M594 4465 c-48 -20 -60 -75 -24 -113 28 -30 80 -29 108 1 56 59 -9
144 -84 112z"/>
<path d="M854 4465 c-48 -20 -60 -75 -24 -113 28 -30 80 -29 108 1 56 59 -9
144 -84 112z"/>
<path d="M2331 3835 c-147 -32 -308 -101 -433 -187 -86 -58 -220 -188 -287
-278 -174 -234 -262 -549 -231 -830 48 -432 302 -795 683 -975 105 -50 245
-93 330 -102 51 -5 60 -3 82 17 47 44 23 114 -43 126 -236 40 -439 142 -596
300 -358 357 -413 905 -135 1334 24 36 86 108 138 161 151 150 310 237 520
285 113 25 141 43 141 91 0 33 -42 73 -77 72 -15 0 -57 -7 -92 -14z"/>
<path d="M2686 3827 c-15 -15 -26 -38 -26 -52 0 -30 41 -75 68 -75 45 0 218
-52 296 -89 238 -111 446 -329 535 -561 44 -113 46 -127 23 -134 -45 -15 -47
-27 -52 -295 l-5 -256 -63 -5 c-54 -4 -67 -9 -88 -33 -41 -48 -34 -92 31 -173
30 -38 55 -73 55 -77 0 -19 -69 -107 -136 -173 -160 -158 -335 -246 -597 -299
-63 -13 -85 -70 -45 -120 20 -26 25 -27 82 -22 141 14 352 96 500 196 79 53
204 170 268 250 l35 44 72 -86 c39 -47 81 -93 93 -101 29 -20 77 -20 106 0 13
9 104 115 202 235 165 201 180 223 180 259 0 27 -8 48 -24 67 -21 24 -34 29
-88 33 l-63 5 -5 250 c-5 256 -9 283 -47 301 -10 5 -67 11 -127 14 l-108 5
-29 88 c-125 383 -430 678 -819 790 -47 14 -111 28 -142 32 -52 7 -59 5 -82
-18z m1204 -1289 c0 -223 2 -246 20 -275 13 -22 31 -35 60 -43 27 -7 38 -15
33 -23 -10 -18 -214 -267 -218 -267 -5 0 -225 269 -225 275 0 2 18 9 40 15 29
8 47 21 60 43 18 29 20 52 20 275 l0 242 105 0 105 0 0 -242z"/>
<path d="M4045 3834 c-38 -19 -221 -199 -243 -239 -25 -44 -25 -346 0 -390 23
-42 218 -232 252 -245 36 -13 326 -13 362 0 34 13 229 203 252 245 14 25 17
60 17 195 0 135 -3 170 -17 195 -23 42 -218 232 -252 245 -15 5 -98 10 -184
10 -122 0 -164 -4 -187 -16z m398 -222 l87 -87 0 -125 0 -125 -88 -88 -87 -87
-120 0 -120 0 -87 87 -88 88 0 125 0 125 87 87 88 88 120 0 120 0 88 -88z"/>
<path d="M4166 3595 c-78 -28 -136 -110 -136 -195 0 -137 130 -235 262 -196
157 45 199 244 75 353 -58 51 -128 64 -201 38z m102 -151 c32 -22 27 -73 -9
-93 -24 -13 -29 -13 -53 2 -34 22 -36 69 -4 91 28 20 38 20 66 0z"/>
<path d="M457 3562 c-24 -27 -22 -85 4 -108 20 -18 41 -19 349 -19 308 0 329
1 349 19 27 25 29 86 3 109 -17 15 -56 17 -354 17 -312 0 -336 -1 -351 -18z"/>
<path d="M2412 3484 c-38 -26 -52 -67 -52 -149 0 -73 -1 -76 -27 -86 -24 -9
-31 -5 -84 47 -52 51 -63 57 -108 62 l-51 5 -100 -98 c-143 -141 -150 -175
-53 -277 52 -53 56 -61 47 -86 -9 -26 -12 -27 -100 -32 -140 -8 -154 -28 -154
-217 0 -139 7 -163 53 -197 22 -17 47 -22 113 -25 80 -3 84 -4 90 -28 6 -20
-2 -34 -44 -76 -101 -103 -97 -138 36 -270 137 -136 172 -141 272 -42 54 53
58 55 83 44 26 -12 27 -16 27 -88 0 -88 12 -116 60 -149 33 -22 42 -23 172
-20 l138 3 32 33 c32 31 33 36 36 122 4 86 5 89 30 98 24 9 33 4 82 -44 102
-99 150 -92 282 44 123 127 127 162 31 263 -46 48 -53 61 -47 83 6 25 9 26 75
26 81 0 127 16 158 56 21 27 22 36 19 176 -3 146 -3 148 -31 175 -25 26 -35
28 -119 33 -90 5 -93 6 -102 33 -9 25 -5 32 47 85 65 66 80 109 54 158 -8 16
-58 71 -110 122 -85 82 -98 92 -131 92 -48 0 -70 -12 -132 -72 -48 -46 -52
-48 -77 -37 -26 12 -27 16 -27 86 0 80 -15 121 -52 147 -18 13 -52 16 -168 16
-116 0 -150 -3 -168 -16z m239 -213 c4 -71 7 -83 32 -109 28 -29 145 -82 180
-82 29 0 58 19 112 71 l51 49 49 -50 49 -50 -46 -47 c-53 -55 -68 -81 -68
-117 0 -40 50 -153 81 -182 25 -24 39 -28 109 -32 l80 -5 0 -68 0 -69 -79 0
c-101 0 -125 -18 -165 -120 -38 -97 -33 -127 36 -197 l52 -53 -49 -50 -49 -49
-57 54 c-52 50 -62 55 -102 55 -28 0 -70 -11 -111 -30 -87 -38 -106 -69 -106
-167 l0 -73 -69 0 -69 0 -3 84 c-3 66 -8 89 -24 106 -31 35 -140 80 -192 80
-40 0 -50 -5 -102 -55 l-57 -54 -49 49 -49 49 57 60 c48 50 57 65 57 96 0 49
-45 154 -81 188 -27 25 -36 27 -109 27 l-80 0 0 69 0 68 78 5 c42 2 88 11 101
19 28 17 91 148 91 190 0 41 -14 65 -68 122 l-46 47 49 50 49 49 57 -54 c82
-78 104 -81 225 -24 79 38 94 62 94 159 l0 70 69 0 69 0 3 -79z"/>
<path d="M2443 3041 c-151 -56 -257 -193 -270 -349 -18 -218 126 -403 344
-444 129 -24 269 27 368 133 76 83 99 146 100 275 0 96 -2 103 -38 176 -43 89
-107 152 -195 194 -77 38 -229 45 -309 15z m258 -159 c163 -85 188 -306 48
-425 -43 -37 -118 -67 -169 -67 -47 0 -124 29 -163 60 -111 93 -128 255 -37
370 71 90 214 118 321 62z"/>
<path d="M2505 2826 c-40 -17 -90 -75 -105 -121 -26 -79 16 -177 92 -216 87
-44 187 -19 243 60 26 37 30 52 30 105 0 53 -5 70 -29 104 -49 72 -153 102
-231 68z m105 -151 c19 -23 3 -57 -27 -53 -34 4 -51 31 -34 52 17 20 45 21 61
1z"/>
<path d="M457 3312 c-24 -27 -22 -85 4 -108 20 -18 41 -19 349 -19 308 0 329
1 349 19 27 25 29 86 3 109 -17 15 -56 17 -354 17 -312 0 -336 -1 -351 -18z"/>
<path d="M457 3062 c-24 -27 -22 -85 4 -108 20 -18 41 -19 349 -19 308 0 329
1 349 19 27 25 29 86 3 109 -17 15 -56 17 -354 17 -312 0 -336 -1 -351 -18z"/>
<path d="M457 2562 c-24 -27 -22 -85 4 -108 20 -18 41 -19 349 -19 308 0 329
1 349 19 27 25 29 86 3 109 -17 15 -56 17 -354 17 -312 0 -336 -1 -351 -18z"/>
<path d="M457 2312 c-24 -27 -22 -85 4 -108 20 -18 41 -19 349 -19 308 0 329
1 349 19 27 25 29 86 3 109 -17 15 -56 17 -354 17 -312 0 -336 -1 -351 -18z"/>
<path d="M457 2062 c-24 -27 -22 -85 4 -108 20 -18 41 -19 349 -19 308 0 329
1 349 19 27 25 29 86 3 109 -17 15 -56 17 -354 17 -312 0 -336 -1 -351 -18z"/>
<path d="M457 1812 c-24 -27 -22 -85 4 -108 20 -18 41 -19 349 -19 308 0 329
1 349 19 27 25 29 86 3 109 -17 15 -56 17 -354 17 -312 0 -336 -1 -351 -18z"/>
<path d="M643 1262 c-129 -45 -203 -150 -203 -286 0 -123 60 -220 168 -273
l57 -28 1400 -3 c1401 -2 1401 -2 1423 18 30 28 30 82 0 110 -22 20 -27 20
-1403 20 -1324 0 -1382 1 -1415 19 -108 57 -108 215 0 272 33 18 103 19 1890
19 1787 0 1857 -1 1890 -19 108 -57 108 -215 0 -272 -32 -17 -63 -19 -360 -19
-314 0 -327 -1 -348 -20 -30 -28 -30 -82 0 -110 22 -21 30 -21 368 -18 l345 3
57 28 c108 53 168 150 168 272 0 122 -60 219 -168 272 l-57 28 -1880 2 c-1784
2 -1883 2 -1932 -15z"/>
<path d="M702 1030 c-14 -14 -22 -33 -22 -55 0 -22 8 -41 22 -55 22 -20 27
-20 1393 -20 1366 0 1371 0 1393 20 30 28 30 82 0 110 -22 20 -27 20 -1393 20
-1366 0 -1371 0 -1393 -20z"/>
</g>
</svg>
