<svg width="341" height="208" viewBox="0 0 341 208" fill="none" xmlns="http://www.w3.org/2000/svg">
<mask id="mask0_1_3" style="mask-type:luminance" maskUnits="userSpaceOnUse" x="0" y="0" width="341" height="208">
<path d="M0 -6.19531e-06H340.16V207.88H0V-6.19531e-06Z" fill="white"/>
</mask>
<g mask="url(#mask0_1_3)">
<path d="M258.401 87.1183H269.261V98.9423C270.568 101.501 273.549 101.15 275.748 98.709L288.453 87.1183H301.644L283.172 103.964L302.284 120.8H288.873C284.029 116.358 278.928 112.262 274.089 107.822C271.357 106.288 269.294 107.384 269.39 110.406C269.414 111.108 269.382 111.854 269.382 112.63V120.884L258.401 120.916V87.1183ZM206.422 86.9476H225.232C230.172 94.1023 235.117 101.26 240.062 108.42C241.596 111.225 243.193 111.868 243.734 109.729L243.565 103.785V87.133L254.578 87.153L254.549 120.757L236.106 120.776C230.32 112.932 225.398 105.746 219.612 97.905C218.492 95.969 217.018 97.077 217.016 98.4143C217.013 99.5063 216.994 100.929 217.068 102.394V120.932L206.422 120.757V120.753L205.346 120.757C204.77 120.761 204.245 120.732 203.753 120.674L195.932 120.705C191.193 112.13 186.5 103.556 181.761 94.9796C180.917 94.5103 180.234 94.5903 179.77 95.4796L173.39 106.912L183.584 106.924L187.584 114.324C182.084 114.336 177.034 114.345 171.532 114.356C168.684 114.248 167.526 117.796 165.929 120.753H154.312L172.718 87.1396L189.401 87.1276L203.24 112.72C203.674 113.369 204.325 114.677 204.828 114.9C205.508 115.101 205.982 114.918 206.422 114.468V86.9476ZM121.337 100.338C124.704 100.338 136.686 100.346 140.116 100.342C140.137 100.342 140.16 100.334 140.18 100.334C144.408 100.438 143.677 95.765 141.529 95.3556C141.277 95.3076 141.184 95.245 140.821 95.2436C136.293 95.2143 124.492 95.257 121.341 95.257L121.337 100.338ZM121.337 112.65C124.704 112.65 137.932 112.656 141.358 112.654C141.381 112.654 141.409 112.646 141.428 112.646C145.654 112.748 144.728 107.612 142.582 107.208C142.333 107.161 142.428 107.281 142.065 107.28C137.537 107.256 124.301 107.109 121.15 107.109L121.337 112.65ZM110.357 87.161H138.44C140.924 87.161 148.338 86.6703 152.045 89.6476C153.493 90.813 153.968 92.9156 153.968 95.085C153.968 96.945 153.822 98.8596 153.386 100.152C152.654 102.309 151.268 103.316 149.614 103.688C152.764 104.217 155.788 105.918 155.512 113.186C155.142 122.816 140.728 120.754 136.353 120.676L110.357 120.212V87.161ZM76.5571 100.338C79.9238 100.338 87.8837 100.342 91.3144 100.342C91.3304 100.342 91.3571 100.334 91.3771 100.334C95.6064 100.437 94.8744 95.7623 92.7237 95.3556C92.4731 95.3076 92.3797 95.245 92.0157 95.2436C87.4891 95.217 76.8398 95.257 73.6891 95.257L76.5571 100.338ZM46.8917 94.9796C46.0504 94.5103 45.3651 94.5903 44.9051 95.4796L38.5224 106.912L49.1691 106.924L53.1718 114.324C47.6691 114.336 42.1678 114.345 36.6638 114.356C33.8158 114.248 32.6584 117.796 31.0624 120.753H19.4464L37.8531 87.1396L54.0518 87.2543L68.0384 112.742C75.5984 112.51 89.7278 112.446 93.9304 112.433C96.7224 112.181 96.1157 107.409 93.9237 107.136L70.1891 107.156L59.2091 87.161H89.2024C90.7517 87.161 95.3638 87.073 98.7131 87.201C98.8531 87.205 98.9891 87.2436 99.1211 87.265C100.978 87.5903 101.882 88.1236 103.025 89.3223C104.328 90.6943 104.736 92.9156 104.736 95.085C104.736 96.945 104.589 98.8596 104.15 100.152C103.417 102.309 102.034 103.316 100.38 103.688C102.96 103.924 105.538 104.825 105.946 109.804C106.033 110.894 106.193 112.149 106.133 113.625C106.026 116.232 104.957 118.584 102.896 119.404C98.1638 121.289 90.1864 120.661 87.1184 120.676L70.4784 120.757C69.9051 120.761 69.3771 120.732 68.8864 120.674L61.0651 120.705C56.3238 112.13 51.6331 103.556 46.8917 94.9796Z" fill="#00A9AC"/>
<path d="M309.214 87.1183L320.028 87.1277L301.474 103.966L320.714 120.773L309.854 120.798L290.63 104.058L309.214 87.1183Z" fill="#DF762E"/>
</g>
</svg>
