<?xml version="1.0" standalone="no"?>
<!DOCTYPE svg PUBLIC "-//W3C//DTD SVG 20010904//EN"
 "http://www.w3.org/TR/2001/REC-SVG-20010904/DTD/svg10.dtd">
<svg version="1.0" xmlns="http://www.w3.org/2000/svg"
 width="512.000000pt" height="512.000000pt" viewBox="0 0 512.000000 512.000000"
 preserveAspectRatio="xMidYMid meet">

<g transform="translate(0.000000,512.000000) scale(0.100000,-0.100000)"
fill="#000000" stroke="none">
<path d="M2467 5030 c-100 -25 -212 -113 -256 -199 -12 -22 -27 -65 -35 -93
l-13 -53 -124 -31 c-225 -58 -434 -146 -612 -258 l-88 -55 -45 28 c-132 85
-314 77 -439 -17 -114 -86 -172 -212 -162 -348 5 -73 39 -168 73 -205 13 -14
9 -25 -42 -105 -112 -179 -200 -387 -258 -613 l-31 -124 -53 -13 c-119 -31
-211 -108 -265 -222 -29 -61 -32 -76 -32 -162 0 -86 3 -101 32 -162 54 -114
146 -191 265 -222 l53 -13 31 -124 c58 -226 146 -434 258 -613 51 -80 55 -91
42 -105 -8 -9 -27 -43 -42 -76 -75 -164 -21 -362 131 -477 123 -93 298 -102
429 -23 l56 34 88 -56 c176 -111 386 -199 615 -258 l120 -30 13 -53 c31 -119
108 -211 222 -265 61 -29 76 -32 162 -32 86 0 101 3 162 32 114 54 191 146
222 265 l13 53 124 31 c225 58 434 146 611 257 l88 56 56 -34 c268 -161 612
54 592 370 -5 71 -39 168 -74 206 -13 14 -9 25 42 105 112 179 200 387 258
613 l31 124 53 13 c119 31 211 108 265 222 29 61 32 76 32 162 0 86 -3 101
-32 162 -54 114 -146 191 -265 222 l-53 13 -31 124 c-58 226 -146 434 -258
613 -51 80 -55 91 -42 105 34 37 68 132 73 204 11 151 -65 296 -198 375 -45
27 -140 52 -200 52 -59 0 -165 -32 -212 -64 l-36 -25 -88 55 c-178 113 -379
198 -612 258 l-124 32 -13 52 c-30 118 -108 212 -219 264 -72 33 -187 46 -258
28z m167 -162 c86 -26 166 -136 166 -228 0 -124 -116 -240 -240 -240 -124 0
-240 116 -240 240 0 63 23 114 75 165 70 71 145 90 239 63z m-428 -405 c57
-117 183 -206 311 -219 l61 -7 65 -259 65 -259 -32 -16 c-17 -9 -56 -42 -87
-74 l-55 -58 -526 191 -525 192 4 60 c4 48 0 77 -19 134 l-25 73 84 50 c178
105 341 174 518 220 61 15 115 28 121 29 7 0 24 -26 40 -57z m872 27 c184 -50
336 -114 508 -216 l91 -54 -25 -72 c-24 -72 -26 -140 -6 -229 6 -25 -4 -32
-225 -158 -127 -72 -234 -131 -237 -131 -3 0 -25 16 -48 35 -59 48 -142 84
-213 91 l-61 7 -65 258 -64 257 48 32 c58 37 101 87 136 158 14 28 30 52 37
52 6 0 62 -14 124 -30z m-1914 -232 c59 -18 138 -99 155 -161 43 -154 -69
-301 -229 -301 -78 0 -131 24 -182 84 -156 181 23 446 256 378z m2973 -11 c72
-38 120 -107 130 -187 11 -98 -41 -195 -131 -242 -56 -30 -155 -31 -211 -1
-103 55 -152 162 -125 274 10 42 24 64 64 104 28 28 67 56 86 63 46 15 148 9
187 -11z m-2177 -638 l525 -191 1 -77 0 -76 -241 -113 -241 -113 -48 47 c-27
25 -79 60 -115 78 -60 28 -75 31 -162 31 l-95 0 -122 261 -121 261 37 41 c20
22 41 41 47 41 5 1 246 -85 535 -190z m1927 50 c79 -31 206 -32 281 -2 l52 21
50 -84 c69 -116 103 -185 151 -306 36 -91 99 -303 99 -335 0 -6 -24 -23 -54
-36 -29 -14 -75 -45 -101 -71 -27 -25 -51 -46 -55 -46 -3 0 -237 105 -520 234
l-514 234 -1 84 c0 45 -4 94 -8 108 -8 24 1 30 230 161 l238 136 47 -38 c27
-21 74 -48 105 -60z m-2829 -25 c31 -3 75 -2 98 4 l41 9 122 -261 122 -262
-47 -48 c-55 -58 -100 -149 -110 -222 -3 -30 -7 -54 -8 -54 -1 0 -92 -18 -201
-40 -109 -22 -206 -40 -216 -40 -9 0 -22 14 -30 31 -20 49 -108 132 -171 163
-32 16 -58 33 -58 40 0 6 13 61 29 121 48 181 121 353 222 522 l49 81 51 -19
c28 -11 76 -22 107 -25z m1896 -46 c86 -26 166 -136 166 -228 0 -124 -116
-240 -240 -240 -63 0 -114 23 -165 75 -102 101 -102 229 0 330 70 71 145 90
239 63z m-365 -500 c39 -45 125 -94 191 -111 30 -8 57 -20 61 -28 5 -8 22
-147 39 -309 17 -162 33 -305 35 -317 4 -18 -3 -25 -41 -42 -25 -11 -62 -34
-83 -50 l-37 -30 -351 227 -350 226 15 55 c9 36 12 80 9 121 l-5 65 241 112
c133 62 243 113 245 113 1 0 16 -15 31 -32z m1141 -202 l514 -234 -1 -83 -2
-82 -431 -173 -432 -173 -52 53 c-57 59 -110 90 -188 110 -29 7 -55 19 -59 27
-5 8 -22 147 -39 309 -17 162 -33 305 -35 316 -4 18 5 26 51 49 31 15 74 46
97 70 23 23 47 43 52 43 6 1 242 -103 525 -232z m-1976 142 c55 -16 138 -99
154 -154 28 -94 8 -169 -63 -239 -70 -71 -145 -91 -239 -63 -55 16 -138 99
-154 154 -28 94 -8 169 63 239 70 71 145 90 239 63z m-1200 -240 c55 -16 138
-99 154 -154 28 -94 8 -169 -63 -239 -101 -102 -229 -102 -330 0 -102 101
-102 229 0 330 70 71 145 90 239 63z m4160 0 c86 -26 166 -136 166 -228 0
-124 -116 -240 -240 -240 -124 0 -240 116 -240 240 0 63 23 114 75 165 70 71
145 90 239 63z m-3375 -193 c23 -43 70 -92 119 -125 l22 -15 -161 -485 -162
-485 -76 -1 c-51 -1 -93 -8 -129 -22 l-52 -20 -50 85 c-105 177 -174 338 -221
518 -16 60 -29 115 -29 121 0 7 26 24 57 40 113 55 203 179 219 300 l6 53 52
11 c248 51 335 68 356 69 20 1 30 -8 49 -44z m1012 -324 l315 -204 -14 -51
c-7 -30 -12 -79 -9 -116 l4 -66 -610 -268 c-561 -246 -611 -267 -620 -250 -5
11 -32 40 -59 66 l-50 48 161 483 162 484 75 6 c80 6 171 42 229 90 l30 25 36
-21 c19 -12 177 -114 350 -226z m2003 14 c31 -32 80 -67 111 -81 30 -14 55
-31 55 -38 0 -33 -73 -272 -110 -361 -52 -125 -69 -157 -136 -271 l-55 -92
-52 21 c-38 15 -75 20 -137 20 -92 0 -148 -16 -213 -59 l-38 -25 -192 162
c-106 90 -193 163 -194 163 -1 1 10 33 23 71 17 50 24 89 22 134 l-1 64 429
172 c236 95 430 174 431 174 1 1 27 -24 57 -54z m-1240 -137 c86 -26 166 -136
166 -228 0 -124 -116 -240 -240 -240 -124 0 -240 116 -240 240 0 63 23 114 75
165 70 71 145 90 239 63z m-361 -501 c23 -24 52 -49 65 -57 l22 -15 -115 -346
-116 -346 -75 -6 c-141 -11 -267 -95 -328 -220 -16 -31 -32 -57 -36 -57 -33 0
-261 68 -351 105 -132 54 -168 72 -285 141 l-91 54 25 72 c16 49 23 88 20 124
l-3 52 610 270 c336 148 611 270 613 271 1 1 21 -18 45 -42z m735 -211 l189
-159 -19 -51 c-33 -85 -34 -169 -6 -254 l25 -73 -84 -50 c-176 -104 -314 -163
-502 -215 -69 -19 -130 -34 -137 -34 -6 0 -24 25 -39 56 -27 55 -87 125 -133
154 l-22 15 115 346 116 346 77 6 c61 5 89 13 142 40 36 20 71 34 77 34 7 -1
98 -74 201 -161z m-2292 -134 c102 -53 154 -170 123 -279 -18 -66 -96 -144
-162 -162 -87 -25 -174 -3 -236 60 -66 65 -87 157 -57 247 21 61 95 134 153
151 52 14 133 7 179 -17z m2902 16 c64 -16 143 -94 161 -161 25 -87 3 -174
-60 -236 -62 -63 -149 -85 -236 -60 -66 18 -144 96 -162 162 -36 127 38 258
169 298 37 11 76 10 128 -3z m-1464 -610 c86 -26 166 -136 166 -228 0 -124
-116 -240 -240 -240 -124 0 -240 116 -240 240 0 63 23 114 75 165 70 71 145
90 239 63z"/>
</g>
</svg>
