<?xml version="1.0" standalone="no"?>
<!DOCTYPE svg PUBLIC "-//W3C//DTD SVG 20010904//EN"
 "http://www.w3.org/TR/2001/REC-SVG-20010904/DTD/svg10.dtd">
<svg version="1.0" xmlns="http://www.w3.org/2000/svg"
 width="512.000000pt" height="512.000000pt" viewBox="0 0 512.000000 512.000000"
 preserveAspectRatio="xMidYMid meet">

<g transform="translate(0.000000,512.000000) scale(0.100000,-0.100000)"
fill="#000000" stroke="none">
<path d="M2055 5105 c-443 -82 -737 -520 -646 -960 81 -393 441 -674 836 -651
623 35 978 715 649 1243 -176 282 -511 429 -839 368z m288 -161 c250 -55 451
-258 501 -506 20 -98 20 -169 0 -265 -47 -230 -213 -416 -438 -490 -69 -23
-98 -27 -201 -27 -106 0 -130 3 -200 28 -208 72 -354 219 -421 422 -26 78 -29
103 -28 204 0 96 5 128 27 196 88 268 337 450 620 453 37 1 100 -6 140 -15z"/>
<path d="M2156 4829 c-19 -15 -26 -30 -26 -54 0 -31 -4 -36 -52 -58 -111 -51
-162 -124 -161 -232 1 -134 84 -214 266 -254 107 -24 130 -34 156 -67 56 -71
-6 -136 -130 -136 -84 0 -137 34 -168 111 -25 59 -110 63 -141 6 -39 -74 78
-233 194 -263 27 -7 31 -13 34 -45 4 -41 40 -77 77 -77 35 0 72 35 79 75 4 21
14 38 24 41 177 55 256 196 188 339 -13 28 -36 62 -52 77 -40 37 -125 74 -212
93 -40 8 -86 22 -102 30 -88 46 -68 137 37 164 70 19 150 -13 173 -69 26 -62
92 -79 135 -35 15 14 25 36 25 53 0 62 -97 171 -172 194 -32 9 -38 16 -43 49
-12 70 -77 99 -129 58z"/>
<path d="M423 4460 c-27 -11 -43 -40 -43 -79 0 -26 87 -117 717 -751 395 -397
728 -726 741 -731 18 -7 171 39 715 215 380 124 696 221 702 217 773 -600
1104 -857 1118 -871 17 -15 12 -16 -73 -12 -84 4 -93 3 -116 -18 -32 -31 -32
-79 0 -109 22 -20 45 -25 223 -41 266 -26 284 -26 311 3 12 13 22 35 22 49 0
43 -141 492 -161 513 -24 25 -81 25 -109 0 -28 -25 -26 -71 10 -185 16 -52 28
-95 27 -96 -1 -2 -268 204 -592 457 -325 254 -604 468 -621 476 -31 15 -43 12
-715 -206 -376 -121 -688 -221 -693 -221 -5 0 -323 315 -705 700 -484 487
-702 701 -716 700 -11 -1 -30 -5 -42 -10z"/>
<path d="M25 3535 l-25 -24 0 -1731 0 -1731 25 -24 24 -25 404 0 c394 0 405 1
431 21 l26 20 0 1739 0 1739 -26 20 c-26 20 -37 21 -431 21 l-404 0 -24 -25z
m725 -1755 l0 -1620 -295 0 -295 0 0 1620 0 1620 295 0 295 0 0 -1620z"/>
<path d="M2833 2546 l-28 -24 0 -1237 0 -1237 28 -24 28 -24 402 0 c423 1 421
0 445 47 17 30 17 2441 1 2476 -6 14 -22 30 -36 36 -16 7 -150 11 -418 11
l-394 0 -28 -24z m727 -1261 l0 -1125 -300 0 -300 0 0 1125 0 1125 300 0 300
0 0 -1125z"/>
<path d="M1421 2224 c-21 -27 -21 -29 -21 -1091 0 -790 3 -1070 12 -1086 24
-47 22 -46 445 -47 l402 0 28 24 28 24 0 1082 0 1082 -24 19 c-22 18 -44 19
-436 19 l-414 0 -20 -26z m739 -1099 l0 -965 -300 0 -300 0 0 965 0 965 300 0
300 0 0 -965z"/>
<path d="M4230 1610 c-20 -20 -20 -33 -20 -794 l0 -775 26 -20 c26 -20 37 -21
431 -21 l404 0 24 25 25 24 0 764 c0 758 0 765 -21 791 l-20 26 -415 0 c-401
0 -415 -1 -434 -20z m730 -795 l0 -655 -295 0 -295 0 0 655 0 655 295 0 295 0
0 -655z"/>
</g>
</svg>
