<?xml version="1.0" standalone="no"?>
<!DOCTYPE svg PUBLIC "-//W3C//DTD SVG 20010904//EN"
 "http://www.w3.org/TR/2001/REC-SVG-20010904/DTD/svg10.dtd">
<svg version="1.0" xmlns="http://www.w3.org/2000/svg"
 width="512.000000pt" height="512.000000pt" viewBox="0 0 512.000000 512.000000"
 preserveAspectRatio="xMidYMid meet">

<g transform="translate(0.000000,512.000000) scale(0.100000,-0.100000)"
fill="#000000" stroke="none">
<path d="M3997 5024 c-281 -51 -537 -258 -647 -524 -27 -65 -56 -174 -62 -230
l-3 -25 -482 -3 -483 -2 0 136 c0 78 -5 154 -12 178 -16 55 -99 138 -154 154
-59 17 -1849 17 -1908 0 -55 -16 -138 -99 -154 -154 -17 -58 -17 -730 0 -788
16 -55 99 -138 154 -154 27 -8 117 -12 258 -12 l216 0 0 -405 c0 -223 -2 -405
-4 -405 -3 0 -26 13 -53 30 -56 34 -148 60 -213 60 -87 -1 -173 -63 -200 -146
-21 -62 -6 -121 61 -255 34 -68 68 -146 75 -174 10 -35 14 -120 14 -280 0
-342 15 -390 188 -607 54 -68 101 -128 105 -135 4 -7 -7 -40 -24 -75 -95 -188
-109 -285 -109 -755 l0 -373 721 0 720 0 -3 400 -3 400 645 -2 645 -3 3 -25
c19 -179 118 -380 256 -515 343 -339 896 -337 1237 4 343 343 343 898 -1 1241
-342 343 -892 345 -1236 5 -138 -135 -237 -336 -256 -515 l-3 -25 -664 0 -664
0 -17 50 c-9 28 -31 78 -49 113 -17 35 -28 68 -24 75 4 7 51 67 105 135 54 68
110 146 124 174 57 112 57 115 61 516 l4 372 162 -2 162 -3 3 -25 c19 -179
118 -380 256 -515 343 -339 896 -337 1237 4 343 343 343 898 -1 1241 -342 343
-892 345 -1236 5 -138 -135 -237 -336 -256 -515 l-3 -25 -161 -3 -161 -2 -6
55 c-3 34 -16 74 -32 101 -50 86 -63 91 -515 204 l-410 102 0 249 0 249 456 0
c329 0 468 3 498 12 55 16 138 99 154 154 7 24 12 100 12 178 l0 136 483 -2
482 -3 3 -25 c19 -179 118 -380 256 -515 343 -339 896 -337 1237 4 343 343
343 898 -1 1241 -206 207 -494 296 -783 244z m378 -178 c113 -36 198 -89 290
-181 92 -92 144 -175 182 -290 22 -68 26 -98 27 -205 1 -91 -4 -143 -17 -190
-18 -67 -74 -187 -105 -228 l-18 -23 -48 71 c-56 81 -125 146 -202 190 l-54
32 35 42 c19 23 47 69 62 102 24 51 28 71 28 154 0 86 -3 101 -32 162 -44 93
-100 151 -191 196 -72 35 -81 37 -172 37 -91 0 -100 -2 -172 -37 -91 -45 -147
-103 -191 -196 -29 -61 -32 -76 -32 -162 0 -83 4 -103 28 -154 15 -33 43 -79
62 -102 l35 -42 -54 -32 c-77 -44 -146 -109 -202 -190 l-48 -71 -18 23 c-31
41 -87 161 -105 228 -28 103 -24 292 9 392 40 119 92 204 182 293 114 113 237
179 380 205 89 16 251 5 341 -24z m-2240 -311 l25 -24 0 -351 0 -351 -25 -24
-24 -25 -456 0 -455 0 0 56 c0 81 -18 129 -67 184 -95 106 -236 108 -338 5
-57 -56 -75 -102 -75 -189 l0 -56 -215 0 c-216 0 -216 0 -240 25 l-25 24 0
351 0 351 25 24 24 25 911 0 911 0 24 -25z m2099 13 c86 -26 166 -136 166
-228 0 -124 -116 -240 -240 -240 -63 0 -114 23 -165 75 -102 101 -102 229 0
330 70 71 145 90 239 63z m-3219 -653 l25 -24 0 -896 0 -895 80 0 80 0 0 429
0 429 80 -20 80 -20 0 -409 0 -409 80 0 80 0 0 389 0 389 80 -20 80 -20 0
-369 0 -369 80 0 80 0 0 349 0 349 58 -14 c35 -9 66 -25 80 -40 l22 -25 0
-444 c0 -271 -4 -463 -10 -492 -16 -74 -46 -123 -160 -269 l-105 -133 -445 0
-445 0 -105 133 c-114 146 -144 195 -160 269 -5 26 -10 151 -10 276 0 275 -9
319 -100 501 -66 133 -71 164 -25 176 83 21 205 -50 258 -150 20 -38 22 -56
25 -263 l3 -223 80 0 79 0 0 895 0 896 25 24 c15 16 36 25 55 25 19 0 40 -9
55 -25z m3258 10 c32 -8 81 -27 109 -41 68 -35 167 -135 202 -204 l27 -55 -33
-28 c-44 -38 -158 -92 -238 -114 -88 -24 -272 -24 -360 0 -80 22 -194 76 -238
114 l-33 28 27 53 c97 194 330 301 537 247z m-698 -659 c113 -36 198 -89 290
-181 92 -92 144 -175 182 -290 22 -68 26 -98 27 -205 1 -91 -4 -143 -17 -190
-18 -67 -74 -187 -105 -228 l-18 -23 -48 71 c-56 81 -125 146 -202 190 l-54
32 35 42 c19 23 47 69 62 102 24 51 28 71 28 154 0 86 -3 101 -32 162 -44 93
-100 151 -191 196 -72 35 -81 37 -172 37 -91 0 -100 -2 -172 -37 -91 -45 -147
-103 -191 -196 -29 -61 -32 -76 -32 -162 0 -83 4 -103 28 -154 15 -33 43 -79
62 -102 l35 -42 -54 -32 c-77 -44 -146 -109 -202 -190 l-48 -71 -18 23 c-31
41 -87 161 -105 228 -28 103 -24 292 9 392 40 119 92 204 182 293 114 113 237
179 380 205 89 16 251 5 341 -24z m-141 -298 c55 -16 138 -99 154 -154 28 -94
8 -169 -63 -239 -101 -102 -229 -102 -330 0 -102 101 -102 229 0 330 70 71
145 90 239 63z m39 -643 c32 -8 81 -27 109 -41 68 -35 167 -135 202 -204 l27
-55 -33 -28 c-44 -38 -158 -92 -238 -114 -88 -24 -272 -24 -360 0 -80 22 -194
76 -238 114 l-33 28 27 53 c97 194 330 301 537 247z m902 -659 c113 -36 198
-89 290 -181 92 -92 144 -175 182 -290 22 -68 26 -98 27 -205 1 -91 -4 -143
-17 -190 -18 -67 -74 -187 -105 -228 l-18 -23 -48 71 c-56 81 -125 146 -202
190 l-54 32 35 42 c19 23 47 69 62 102 24 51 28 71 28 154 0 86 -3 101 -32
162 -44 93 -100 151 -191 196 -72 35 -81 37 -172 37 -91 0 -100 -2 -172 -37
-91 -45 -147 -103 -191 -196 -29 -61 -32 -76 -32 -162 0 -83 4 -103 28 -154
15 -33 43 -79 62 -102 l35 -42 -54 -32 c-77 -44 -146 -109 -202 -190 l-48 -71
-18 23 c-31 41 -87 161 -105 228 -28 103 -24 292 9 392 40 119 92 204 182 293
114 113 237 179 380 205 89 16 251 5 341 -24z m-141 -298 c86 -26 166 -136
166 -228 0 -124 -116 -240 -240 -240 -124 0 -240 116 -240 240 0 63 23 114 75
165 70 71 145 90 239 63z m-2479 -224 c72 -152 78 -190 83 -557 l4 -327 -562
0 -562 0 4 327 c5 367 11 410 83 559 l36 74 439 0 439 0 36 -76z m2518 -419
c32 -8 81 -27 109 -41 68 -35 167 -135 202 -204 l27 -55 -33 -28 c-44 -38
-158 -92 -238 -114 -88 -24 -272 -24 -360 0 -80 22 -194 76 -238 114 l-33 28
27 53 c97 194 330 301 537 247z"/>
</g>
</svg>
