<?xml version="1.0" standalone="no"?>
<!DOCTYPE svg PUBLIC "-//W3C//DTD SVG 20010904//EN"
 "http://www.w3.org/TR/2001/REC-SVG-20010904/DTD/svg10.dtd">
<svg version="1.0" xmlns="http://www.w3.org/2000/svg"
 width="512.000000pt" height="512.000000pt" viewBox="0 0 512.000000 512.000000"
 preserveAspectRatio="xMidYMid meet">

<g transform="translate(0.000000,512.000000) scale(0.100000,-0.100000)"
fill="#000000" stroke="none">
<path d="M1115 5104 c-48 -18 -100 -65 -128 -119 -55 -104 -4 -255 106 -312
42 -21 127 -28 172 -13 l37 12 255 -253 c140 -140 261 -268 269 -286 10 -22
14 -73 14 -163 l0 -130 -92 0 c-127 -1 -177 -12 -206 -45 -17 -21 -22 -35 -17
-54 14 -55 -44 -52 1006 -54 l974 -2 40 -21 c51 -28 91 -68 119 -119 l21 -40
2 -974 c2 -1073 -3 -1004 63 -1004 66 0 89 57 90 221 l0 92 329 0 329 0 17
-28 c53 -83 120 -124 204 -125 104 -1 188 58 226 157 42 110 -19 245 -132 293
-42 17 -135 17 -177 -1 -46 -19 -101 -70 -120 -111 l-17 -35 -329 0 -330 0 0
84 0 85 176 3 176 3 25 29 c27 31 25 66 -4 99 -14 15 -37 17 -195 17 l-178 0
0 85 0 85 593 0 c367 0 606 4 628 10 75 21 75 119 0 140 -22 6 -261 10 -628
10 l-593 0 0 85 0 85 178 0 c158 0 181 2 195 18 29 32 31 67 4 98 l-25 29
-176 3 -176 3 0 84 0 83 158 4 c141 3 162 6 202 27 29 14 142 119 311 288
l267 266 32 -12 c116 -40 245 22 295 142 53 128 -41 285 -188 312 -66 13 -134
-12 -193 -69 -70 -68 -92 -152 -63 -236 l12 -32 -254 -255 c-140 -140 -268
-261 -286 -269 -22 -10 -73 -14 -163 -14 l-130 0 0 83 c0 170 -34 268 -121
356 -88 87 -186 121 -356 121 l-83 0 0 329 0 329 28 17 c83 53 124 120 125
204 1 104 -58 188 -157 226 -110 42 -245 -19 -293 -132 -17 -42 -17 -135 1
-177 19 -46 70 -101 111 -120 l35 -17 0 -329 0 -330 -84 0 -85 0 -3 176 -3
176 -29 25 c-31 27 -66 25 -98 -4 -16 -14 -18 -37 -18 -195 l0 -178 -85 0 -85
0 0 593 c0 367 -4 606 -10 628 -13 47 -55 68 -100 49 -21 -9 -33 -23 -40 -49
-6 -22 -10 -261 -10 -628 l0 -593 -85 0 -85 0 0 178 c0 158 -2 181 -17 195
-33 29 -68 31 -99 4 l-29 -25 -3 -176 -3 -176 -84 0 -83 0 -4 158 c-3 141 -6
162 -27 202 -14 29 -119 142 -288 311 l-266 267 12 32 c18 53 13 120 -13 176
-50 108 -178 159 -291 118z m118 -146 c54 -28 63 -89 21 -132 -33 -33 -74 -34
-110 -2 -73 62 5 179 89 134z m2002 -158 c30 -11 54 -60 47 -96 -6 -32 -48
-64 -84 -64 -40 0 -78 40 -78 83 0 36 13 58 45 75 25 14 37 14 70 2z m1713
-826 c70 -79 -47 -182 -122 -108 -30 31 -34 69 -10 102 33 48 92 50 132 6z
m-183 -1980 c25 -10 47 -62 40 -95 -14 -62 -101 -83 -142 -34 -60 69 14 162
102 129z"/>
<path d="M1325 3578 c-33 -29 -44 -79 -45 -205 l0 -93 -329 0 -329 0 -17 28
c-53 83 -120 124 -204 125 -104 1 -188 -58 -226 -157 -42 -110 19 -245 132
-293 42 -17 135 -17 177 1 46 19 101 70 120 111 l17 35 329 0 330 0 0 -84 0
-85 -176 -3 -176 -3 -25 -29 c-27 -31 -25 -66 4 -98 14 -16 37 -18 195 -18
l178 0 0 -85 0 -85 -592 0 c-368 0 -607 -4 -629 -10 -47 -13 -68 -55 -49 -100
9 -21 23 -33 49 -40 22 -6 261 -10 629 -10 l592 0 0 -85 0 -85 -178 0 c-158 0
-181 -2 -195 -17 -29 -33 -31 -68 -4 -99 l25 -29 176 -3 176 -3 0 -84 0 -83
-157 -4 c-142 -3 -163 -6 -203 -27 -29 -14 -142 -119 -311 -288 l-267 -266
-32 12 c-116 40 -245 -22 -295 -142 -59 -143 59 -311 220 -311 90 0 171 49
212 127 21 42 28 127 13 172 l-12 37 253 255 c140 140 268 261 286 269 22 10
73 14 163 14 l130 0 0 -82 c0 -171 34 -269 121 -357 88 -87 186 -121 357 -121
l82 0 0 -329 0 -329 -27 -17 c-84 -53 -125 -120 -126 -204 -1 -104 58 -188
157 -226 110 -42 245 19 293 132 17 42 17 135 -1 177 -19 46 -70 101 -111 120
l-35 17 0 329 0 330 84 0 85 0 3 -176 3 -176 29 -25 c31 -27 66 -25 99 4 15
14 17 37 17 195 l0 178 85 0 85 0 0 -592 c0 -368 4 -607 10 -629 21 -75 119
-75 140 0 6 22 10 261 10 629 l0 592 85 0 85 0 0 -179 0 -180 26 -20 c35 -27
57 -26 91 3 l28 24 3 176 3 176 84 0 83 0 4 -158 c3 -141 6 -162 27 -202 14
-29 119 -142 288 -311 l266 -267 -12 -32 c-50 -145 65 -308 220 -310 144 -1
267 151 230 286 -35 132 -155 205 -285 175 l-50 -12 -254 253 c-140 139 -260
267 -268 285 -10 22 -14 73 -14 163 l0 130 93 0 c126 1 176 12 205 45 17 21
22 35 17 54 -14 55 44 52 -1006 54 l-974 2 -40 21 c-51 28 -91 68 -119 119
l-21 40 -2 974 c-2 1050 1 992 -54 1006 -19 5 -33 0 -54 -17z m-865 -326 c44
-55 7 -132 -65 -132 -87 0 -114 120 -34 154 40 17 75 10 99 -22z m-166 -1998
c33 -33 34 -74 2 -110 -62 -73 -179 5 -134 89 28 54 89 63 132 21z m1681 -799
c41 -40 33 -105 -17 -131 -38 -20 -84 -10 -105 22 -55 85 52 180 122 109z
m2001 -159 c73 -62 -5 -179 -89 -134 -54 28 -63 89 -21 132 33 33 74 34 110 2z"/>
<path d="M2279 3430 c-141 -23 -241 -136 -241 -270 0 -57 -2 -62 -26 -71 -86
-31 -174 -105 -210 -175 -50 -98 -47 -227 8 -317 l29 -47 -28 -58 c-81 -159
-52 -320 79 -446 49 -47 60 -64 60 -90 0 -78 93 -196 186 -238 129 -57 289
-34 390 55 l34 29 34 -29 c101 -89 261 -112 390 -55 90 40 186 160 186 233 0
20 9 33 35 49 101 63 164 206 145 328 -10 58 -44 133 -72 159 -23 21 -23 45 0
66 74 67 97 249 45 352 -41 79 -129 156 -208 182 -29 9 -30 12 -32 73 -7 235
-280 355 -485 213 l-38 -26 -37 26 c-76 52 -157 71 -244 57z m147 -172 c17
-10 36 -31 42 -46 5 -15 16 -45 24 -67 16 -46 51 -65 95 -49 19 6 31 21 41 49
8 22 19 52 24 67 33 89 223 93 265 6 35 -72 24 -97 -48 -115 -72 -18 -103 -42
-107 -83 -3 -23 3 -39 20 -57 24 -26 30 -27 138 -4 140 29 282 -71 282 -198 0
-63 -12 -84 -88 -157 -43 -41 -64 -68 -64 -84 0 -16 21 -43 64 -84 35 -34 70
-72 76 -85 21 -42 15 -116 -14 -166 l-27 -45 -57 58 c-55 56 -132 102 -171
102 -34 0 -71 -38 -71 -75 0 -36 11 -48 78 -85 110 -61 127 -178 36 -257 -84
-74 -232 -59 -298 30 -19 26 -21 45 -26 245 -7 287 -1 372 26 409 29 39 71 61
140 74 32 6 67 18 77 26 22 20 22 80 0 105 -27 30 -131 22 -225 -17 -15 -6
-18 -2 -18 26 0 80 -30 128 -80 128 -35 0 -59 -21 -70 -60 -6 -19 -10 -122
-10 -231 l0 -196 -40 19 c-21 10 -50 19 -63 19 -35 0 -67 -35 -67 -74 0 -36
12 -49 82 -89 76 -44 88 -73 88 -219 0 -113 -2 -128 -23 -158 -65 -98 -220
-114 -306 -32 -66 63 -72 137 -16 212 47 63 21 130 -49 130 -28 0 -41 -7 -65
-37 -26 -32 -32 -35 -46 -23 -32 27 -57 92 -58 149 0 103 67 188 183 230 33
12 64 30 70 41 16 30 12 68 -11 91 -18 18 -29 21 -70 16 -26 -3 -67 -16 -90
-28 -41 -20 -43 -21 -56 -3 -39 54 -35 135 11 204 30 46 107 85 184 95 39 5
57 13 72 32 26 33 25 40 -5 105 -24 52 -25 71 -2 116 12 25 55 53 97 63 35 9
88 -1 126 -23z"/>
</g>
</svg>
