<?xml version="1.0" standalone="no"?>
<!DOCTYPE svg PUBLIC "-//W3C//DTD SVG 20010904//EN"
 "http://www.w3.org/TR/2001/REC-SVG-20010904/DTD/svg10.dtd">
<svg version="1.0" xmlns="http://www.w3.org/2000/svg"
 width="512.000000pt" height="512.000000pt" viewBox="0 0 512.000000 512.000000"
 preserveAspectRatio="xMidYMid meet">

<g transform="translate(0.000000,512.000000) scale(0.100000,-0.100000)"
fill="#000000" stroke="none">
<path d="M2517 4949 c-10 -6 -49 -76 -88 -157 -38 -80 -71 -147 -73 -149 -2
-2 -73 -14 -157 -27 -139 -21 -155 -26 -176 -50 -41 -48 -33 -66 94 -203 l117
-125 -27 -165 c-23 -147 -25 -168 -12 -193 31 -60 66 -54 229 36 l136 76 138
-76 c76 -42 148 -76 160 -76 33 0 75 42 76 76 0 16 -10 95 -24 176 l-24 148
111 112 c113 115 129 141 119 184 -10 39 -43 52 -201 80 -83 14 -151 27 -152
28 -2 1 -34 68 -73 149 -39 82 -78 151 -89 156 -25 14 -61 13 -84 0z m88 -349
c22 -45 47 -88 56 -96 9 -8 59 -22 110 -30 52 -9 96 -17 98 -20 2 -2 -30 -40
-72 -83 -42 -43 -77 -87 -77 -97 0 -20 16 -128 26 -178 l6 -29 -85 47 c-47 25
-95 46 -108 46 -12 0 -60 -20 -105 -46 -52 -28 -84 -40 -84 -32 0 7 7 48 15
91 23 120 24 118 -61 207 -42 44 -74 80 -70 80 23 0 156 23 184 32 28 8 38 22
75 99 23 49 44 89 47 89 3 0 24 -36 45 -80z"/>
<path d="M677 4309 c-10 -6 -49 -76 -88 -157 -38 -80 -71 -147 -73 -149 -2 -2
-73 -14 -157 -27 -139 -21 -155 -26 -176 -50 -41 -48 -33 -66 94 -203 l117
-125 -27 -165 c-23 -147 -25 -168 -12 -193 31 -60 66 -54 229 36 l136 76 138
-76 c76 -42 148 -76 160 -76 33 0 75 42 76 76 0 16 -10 95 -24 176 l-24 148
111 112 c113 115 129 141 119 184 -10 39 -43 52 -201 80 -83 14 -151 27 -152
28 -2 1 -34 68 -73 149 -39 82 -78 151 -89 156 -25 14 -61 13 -84 0z m83 -343
c44 -102 59 -114 166 -132 49 -7 93 -14 97 -14 5 0 -26 -38 -67 -85 -42 -47
-76 -93 -76 -103 0 -18 16 -128 26 -176 l6 -28 -84 46 c-48 26 -98 46 -114 45
-16 0 -63 -20 -104 -43 -41 -24 -76 -43 -78 -41 -2 2 4 41 12 87 9 47 16 94
16 106 0 13 -31 57 -76 107 -41 47 -73 85 -69 85 22 0 156 23 183 32 28 8 38
22 75 99 23 49 44 89 48 89 3 0 21 -33 39 -74z"/>
<path d="M4347 4303 c-8 -10 -45 -81 -82 -158 -36 -76 -67 -141 -69 -143 -2
-1 -73 -13 -157 -26 -139 -21 -155 -26 -176 -50 -41 -48 -33 -66 94 -203 l117
-125 -27 -165 c-23 -147 -25 -168 -12 -193 31 -60 66 -54 229 36 l136 76 138
-76 c76 -42 148 -76 160 -76 33 0 75 42 76 76 0 16 -10 95 -24 176 l-24 148
111 112 c113 115 129 141 119 184 -10 39 -43 52 -201 80 -83 14 -151 27 -152
28 -1 1 -32 65 -68 141 -37 77 -74 148 -82 158 -10 10 -31 17 -53 17 -22 0
-43 -7 -53 -17z m107 -352 c51 -100 54 -103 184 -122 l83 -12 -80 -82 c-45
-45 -81 -91 -81 -101 0 -20 16 -128 26 -178 l6 -29 -85 47 c-47 25 -95 46
-108 46 -12 0 -60 -20 -105 -46 -52 -28 -84 -40 -84 -32 0 7 7 48 15 91 23
120 24 118 -61 207 -42 44 -74 80 -70 80 4 0 40 5 79 11 129 19 130 19 182
120 25 49 48 89 50 89 3 0 25 -40 49 -89z"/>
<path d="M2410 3666 c-383 -82 -650 -405 -650 -787 0 -63 -3 -74 -30 -108 -38
-47 -50 -88 -50 -174 0 -81 18 -129 67 -178 23 -25 43 -61 60 -110 55 -166
175 -323 321 -419 l23 -15 -28 -145 -28 -145 -595 -150 c-402 -101 -607 -157
-632 -173 -20 -13 -46 -38 -57 -56 -35 -56 -322 -758 -328 -801 -3 -22 0 -60
7 -85 16 -58 89 -133 145 -149 57 -16 3793 -16 3850 0 56 16 129 91 145 149 7
25 10 63 7 85 -7 48 -297 753 -331 805 -13 20 -43 46 -67 59 -25 12 -304 88
-629 170 l-585 147 -28 144 -28 145 23 15 c146 96 266 253 321 419 17 49 37
85 60 110 49 50 67 97 67 179 0 81 -12 124 -50 172 -24 31 -27 46 -33 140 -9
160 -47 281 -127 403 -112 173 -271 287 -480 344 -78 21 -260 26 -340 9z m66
-193 c-32 -179 -218 -326 -444 -349 l-64 -7 27 54 c56 109 142 199 258 269 44
26 170 69 206 70 21 0 23 -3 17 -37z m229 -108 c82 -279 -254 -540 -610 -474
-68 12 -165 47 -165 58 0 5 44 11 98 13 287 16 555 224 603 469 l12 60 23 -34
c12 -19 30 -60 39 -92z m220 38 c43 -29 129 -120 162 -171 33 -51 34 -54 16
-67 -38 -29 -114 -48 -171 -42 -30 3 -58 9 -63 14 -4 4 -4 26 1 48 17 70 10
160 -17 250 -6 21 -3 19 72 -32z m269 -429 c3 -26 6 -92 6 -147 l0 -100 41
-37 c39 -37 40 -39 37 -96 -3 -53 -6 -60 -31 -72 -36 -17 -52 -44 -67 -112
-18 -81 -83 -209 -141 -273 -68 -77 -182 -150 -282 -183 -114 -37 -259 -39
-367 -6 -115 36 -187 79 -271 162 -87 86 -144 187 -174 309 -16 65 -21 75 -56
97 -38 24 -39 26 -39 83 0 55 2 60 34 85 19 14 37 38 41 55 l6 29 67 -19 c100
-29 258 -36 362 -15 47 10 108 27 135 39 79 33 184 104 241 164 l53 55 64 -16
c104 -26 212 -16 292 27 17 9 33 16 36 17 4 0 9 -21 13 -46z m-820 -1191 c85
-24 288 -23 375 1 67 18 80 14 81 -26 0 -9 3 -23 6 -32 4 -11 -22 -29 -105
-70 -98 -49 -118 -56 -171 -56 -53 0 -73 7 -170 55 -120 60 -114 52 -93 128 5
21 1 21 77 0z m-61 -269 c29 -15 53 -27 55 -29 1 -1 -9 -26 -23 -56 -14 -30
-25 -61 -25 -69 0 -9 16 -48 35 -89 30 -62 47 -127 30 -109 -9 9 -135 350
-135 365 0 18 3 17 63 -13z m567 19 c0 -3 -17 -51 -37 -107 -38 -101 -38 -101
-44 -61 -3 22 -15 58 -26 80 l-21 40 51 27 c52 27 77 34 77 21z m-270 -133
l20 -40 -20 -40 c-17 -33 -26 -40 -50 -40 -24 0 -33 7 -50 40 l-20 40 20 40
c17 33 26 40 50 40 24 0 33 -7 50 -40z m-475 -37 c4 -10 62 -166 130 -348 68
-181 128 -343 135 -360 10 -28 8 -27 -33 15 -104 106 -477 512 -477 519 0 9
220 191 231 191 4 0 10 -8 14 -17z m983 -74 c61 -50 112 -95 112 -100 0 -7
-369 -410 -477 -519 l-44 -45 27 70 c15 39 48 129 74 200 44 119 159 426 175
468 4 9 10 17 14 17 3 0 57 -41 119 -91z m-1298 57 c0 -2 -29 -27 -64 -54 -70
-56 -85 -86 -61 -130 8 -15 185 -209 393 -432 l379 -405 -890 -3 c-785 -2
-893 0 -914 13 -13 9 -23 24 -23 34 0 34 302 749 319 757 9 4 205 55 436 115
231 59 421 108 423 108 1 1 2 -1 2 -3z m2339 -215 c18 -10 321 -727 321 -760
0 -10 -8 -25 -18 -35 -17 -15 -91 -16 -912 -14 l-894 3 379 408 c209 225 386
420 393 433 21 39 4 72 -64 127 -35 28 -64 51 -64 52 0 5 844 -206 859 -214z
m-1385 111 c-24 -63 -44 -92 -44 -62 0 12 63 140 67 136 2 -1 -9 -35 -23 -74z
m-184 -164 c7 -24 20 -74 31 -112 l19 -70 -37 -98 c-20 -54 -39 -98 -43 -98
-4 0 -23 44 -43 98 l-37 98 19 70 c11 38 24 88 31 112 8 31 16 42 30 42 14 0
22 -11 30 -42z"/>
<path d="M677 2629 c-10 -6 -49 -76 -88 -157 -38 -80 -71 -147 -73 -149 -2 -2
-73 -14 -157 -27 -139 -21 -155 -26 -176 -50 -41 -48 -33 -66 94 -203 l117
-125 -27 -165 c-23 -147 -25 -168 -12 -193 31 -60 66 -54 229 36 l136 76 138
-76 c76 -42 148 -76 160 -76 33 0 75 42 76 76 0 16 -10 95 -24 176 l-24 148
111 112 c113 115 129 141 119 184 -10 39 -43 52 -201 80 -83 14 -151 27 -152
28 -2 1 -34 68 -73 149 -39 82 -78 151 -89 156 -25 14 -61 13 -84 0z m83 -343
c44 -102 59 -114 166 -132 49 -7 93 -14 97 -14 5 0 -26 -38 -67 -85 -42 -47
-76 -93 -76 -103 0 -18 16 -128 26 -176 l6 -28 -84 46 c-48 26 -98 46 -114 45
-16 0 -63 -20 -104 -43 -41 -24 -76 -43 -78 -41 -2 2 4 41 12 87 9 47 16 94
16 106 0 13 -31 57 -76 107 -41 47 -73 85 -69 85 22 0 156 23 183 32 28 8 38
22 75 99 23 49 44 89 48 89 3 0 21 -33 39 -74z"/>
<path d="M4347 2623 c-8 -10 -45 -81 -82 -158 -36 -76 -67 -141 -69 -143 -2
-1 -73 -13 -157 -26 -139 -21 -155 -26 -176 -50 -41 -48 -33 -66 94 -203 l117
-125 -27 -165 c-23 -147 -25 -168 -12 -193 31 -60 66 -54 229 36 l136 76 138
-76 c76 -42 148 -76 160 -76 33 0 75 42 76 76 0 16 -10 95 -24 176 l-24 148
111 112 c113 115 129 141 119 184 -10 39 -43 52 -201 80 -83 14 -151 27 -152
28 -1 1 -32 65 -68 141 -37 77 -74 148 -82 158 -10 10 -31 17 -53 17 -22 0
-43 -7 -53 -17z m107 -352 c51 -100 54 -103 184 -122 l83 -12 -80 -82 c-45
-45 -81 -91 -81 -101 0 -20 16 -128 26 -178 l6 -29 -85 47 c-47 25 -95 46
-108 46 -12 0 -60 -20 -105 -46 -52 -28 -84 -40 -84 -32 0 7 7 48 15 91 23
120 24 118 -61 207 -42 44 -74 80 -70 80 4 0 40 5 79 11 129 19 130 19 182
120 25 49 48 89 50 89 3 0 25 -40 49 -89z"/>
</g>
</svg>
