<?xml version="1.0" standalone="no"?>
<!DOCTYPE svg PUBLIC "-//W3C//DTD SVG 20010904//EN"
 "http://www.w3.org/TR/2001/REC-SVG-20010904/DTD/svg10.dtd">
<svg version="1.0" xmlns="http://www.w3.org/2000/svg"
 width="512.000000pt" height="512.000000pt" viewBox="0 0 512.000000 512.000000"
 preserveAspectRatio="xMidYMid meet">

<g transform="translate(0.000000,512.000000) scale(0.100000,-0.100000)"
fill="#000000" stroke="none">
<path d="M2505 5015 l-25 -24 0 -306 0 -306 25 -24 c15 -16 36 -25 55 -25 19
0 40 9 55 25 l25 24 0 306 0 306 -25 24 c-15 16 -36 25 -55 25 -19 0 -40 -9
-55 -25z"/>
<path d="M305 4815 l-25 -24 0 -381 0 -381 25 -24 c15 -16 36 -25 55 -25 19 0
40 9 55 25 l25 24 0 326 0 325 325 0 326 0 24 25 c33 32 33 78 0 110 l-24 25
-381 0 -381 0 -24 -25z"/>
<path d="M4005 4815 c-16 -15 -25 -36 -25 -55 0 -19 9 -40 25 -55 l24 -25 326
0 325 0 0 -325 0 -326 25 -24 c32 -33 78 -33 110 0 l25 24 0 381 0 381 -25 24
-24 25 -381 0 -381 0 -24 -25z"/>
<path d="M2315 4215 c-707 -112 -1243 -622 -1397 -1328 -19 -89 -22 -132 -22
-327 0 -196 3 -238 22 -327 31 -142 74 -268 136 -399 58 -122 85 -154 128
-154 36 0 78 40 78 75 0 14 -23 71 -51 126 -212 423 -213 932 -3 1350 78 157
157 264 288 394 314 312 683 457 1121 442 252 -9 422 -53 647 -169 143 -74
159 -88 96 -88 -63 0 -98 -28 -98 -80 0 -30 6 -43 27 -60 27 -21 34 -21 188
-15 88 3 172 11 187 17 14 5 32 23 38 39 11 26 7 49 -34 192 -49 173 -63 197
-118 197 -18 0 -39 -10 -55 -26 -22 -22 -25 -31 -19 -70 l6 -45 -43 26 c-145
91 -362 176 -545 216 -129 27 -444 35 -577 14z"/>
<path d="M2490 3505 c-52 -16 -103 -62 -132 -119 -16 -31 -19 -53 -16 -106 4
-80 35 -134 100 -177 36 -24 51 -28 118 -28 67 0 82 4 118 28 65 43 96 97 100
177 3 54 0 75 -18 110 -30 59 -76 98 -134 115 -59 18 -77 18 -136 0z"/>
<path d="M1780 3468 c-165 -47 -187 -274 -33 -349 58 -28 136 -23 188 12 42
29 85 108 85 158 -1 82 -62 157 -145 180 -46 13 -48 13 -95 -1z"/>
<path d="M3240 3468 c-138 -40 -184 -205 -85 -309 107 -115 300 -53 321 103
19 134 -107 244 -236 206z"/>
<path d="M3885 3415 c-14 -13 -25 -36 -25 -50 0 -14 23 -71 51 -126 252 -504
204 -1105 -127 -1567 -83 -115 -250 -277 -372 -360 -118 -81 -289 -162 -420
-201 -296 -87 -645 -80 -929 20 -92 32 -280 125 -323 159 l-25 20 46 0 c64 0
99 28 99 80 0 30 -6 43 -27 60 -27 21 -34 21 -188 15 -88 -3 -172 -11 -187
-17 -14 -5 -32 -23 -38 -39 -11 -26 -7 -48 33 -191 26 -88 54 -169 63 -179 11
-12 31 -19 55 -19 54 0 83 38 75 98 l-6 43 43 -26 c146 -91 370 -178 552 -216
130 -26 388 -36 521 -20 724 89 1291 612 1445 1336 21 96 24 137 24 325 0 237
-15 337 -77 525 -38 115 -128 305 -158 333 -32 29 -75 28 -105 -3z"/>
<path d="M1745 2986 c-112 -28 -207 -104 -252 -202 -29 -64 -25 -100 13 -114
14 -6 123 -10 243 -10 l218 0 26 70 c14 39 40 91 57 116 16 25 30 48 30 51 0
21 -110 77 -178 92 -65 13 -92 13 -157 -3z"/>
<path d="M3205 2986 c-51 -13 -114 -43 -150 -71 -16 -13 -17 -19 -8 -33 32
-45 65 -109 84 -163 l22 -59 218 0 c120 0 229 4 243 10 38 14 42 50 13 114
-70 152 -262 244 -422 202z"/>
<path d="M2470 2960 c-120 -25 -252 -126 -304 -231 -38 -80 -42 -113 -17 -138
21 -21 28 -21 411 -21 377 0 391 1 410 20 25 25 25 37 1 100 -41 109 -143 207
-258 250 -64 24 -179 33 -243 20z"/>
<path d="M105 2615 c-33 -32 -33 -78 0 -110 l24 -25 306 0 306 0 24 25 c33 32
33 78 0 110 l-24 25 -306 0 -306 0 -24 -25z"/>
<path d="M4355 2615 c-16 -15 -25 -36 -25 -55 0 -19 9 -40 25 -55 l24 -25 306
0 306 0 24 25 c16 15 25 36 25 55 0 19 -9 40 -25 55 l-24 25 -306 0 -306 0
-24 -25z"/>
<path d="M1764 2498 c-5 -7 -25 -53 -44 -103 l-36 -90 -44 -7 c-25 -3 -75 -7
-112 -7 -50 -1 -68 -5 -68 -15 0 -7 36 -41 80 -76 47 -37 80 -70 80 -81 0 -10
-11 -60 -25 -111 -14 -51 -25 -94 -25 -95 0 -14 44 6 105 47 42 28 81 53 89
56 8 3 52 -20 98 -50 84 -57 108 -66 108 -43 0 6 -11 52 -25 102 -14 49 -25
93 -25 97 0 4 38 39 85 78 47 39 83 76 80 81 -4 5 -28 9 -54 9 -26 0 -76 3
-109 6 l-62 7 -36 96 c-41 107 -48 119 -60 99z"/>
<path d="M3327 2479 c-7 -19 -26 -66 -41 -105 l-27 -71 -61 -7 c-33 -3 -83 -6
-109 -6 -26 0 -50 -4 -54 -9 -3 -5 33 -42 80 -81 47 -39 85 -74 85 -78 0 -4
-11 -47 -25 -97 -14 -49 -25 -96 -25 -102 0 -23 24 -14 108 43 46 30 90 53 98
50 8 -3 47 -28 89 -56 61 -41 105 -61 105 -47 0 1 -11 43 -25 92 -14 50 -25
99 -25 111 0 14 26 41 80 83 44 35 80 70 80 77 0 10 -17 14 -67 15 -38 0 -88
4 -113 7 l-44 7 -36 92 c-44 116 -54 127 -73 82z"/>
<path d="M2546 2341 c-3 -5 -26 -62 -50 -126 -25 -65 -46 -118 -48 -120 -2 -1
-63 -6 -137 -11 -86 -6 -136 -13 -138 -21 -2 -6 41 -48 96 -92 55 -45 102 -85
105 -89 3 -5 -11 -66 -30 -137 -23 -83 -32 -131 -26 -137 7 -7 51 17 126 66
l116 75 116 -75 c74 -48 120 -72 126 -66 8 8 -16 113 -58 253 -3 12 27 43 101
104 58 48 104 92 102 98 -4 13 -92 24 -204 26 l-71 1 -28 73 c-55 147 -70 181
-81 184 -6 2 -14 0 -17 -6z"/>
<path d="M305 1115 l-25 -24 0 -381 0 -381 25 -24 24 -25 381 0 381 0 24 25
c33 32 33 78 0 110 l-24 25 -326 0 -325 0 0 325 0 326 -25 24 c-15 16 -36 25
-55 25 -19 0 -40 -9 -55 -25z"/>
<path d="M4705 1115 l-25 -24 0 -326 0 -325 -325 0 -326 0 -24 -25 c-16 -15
-25 -36 -25 -55 0 -19 9 -40 25 -55 l24 -25 381 0 381 0 24 25 25 24 0 381 0
381 -25 24 c-15 16 -36 25 -55 25 -19 0 -40 -9 -55 -25z"/>
<path d="M2505 765 l-25 -24 0 -306 0 -306 25 -24 c32 -33 78 -33 110 0 l25
24 0 306 0 306 -25 24 c-15 16 -36 25 -55 25 -19 0 -40 -9 -55 -25z"/>
</g>
</svg>
