<svg width="662" height="662" viewBox="0 0 662 662" fill="none" xmlns="http://www.w3.org/2000/svg">
<path d="M360.467 1.78186C339.533 5.6485 316.067 15.9152 300.2 28.1819C289.533 36.3152 274.733 52.3152 268.333 62.1819C262.6 71.3819 263.8 71.1152 249.133 66.9819C237.667 63.6486 210.6 63.5152 199.133 66.7152C185.133 70.5818 176.2 74.4485 166.067 81.1152C138.067 99.3819 120.467 128.715 117.533 162.049C116.733 171.515 116.733 171.515 112.333 172.315C103.667 174.049 89.8 182.182 82.2 190.182C57.2667 216.315 57.9333 255.649 83.6667 280.182C99.2667 295.115 110.6 298.449 145.4 298.449H170.333L170.733 313.382L171.133 328.315L181.133 330.715C201.8 335.915 200.6 335.249 202.467 340.982C204.2 346.182 204.067 346.449 196.6 359.249L189 372.315L194.733 378.049L200.333 383.782H167.267C130.067 383.782 126.6 384.315 117.933 391.915C110.333 398.715 107.4 404.982 106.6 417.115C105.8 426.582 105.667 427.115 102.467 427.515C78.6 430.049 51.8 443.249 33.8 461.649C-11.2667 507.249 -11.2667 580.315 33.8 625.915C79.2667 672.049 153.133 672.582 199.267 627.115C263.933 563.515 234.067 452.582 146.467 430.449C141 428.982 134.733 427.782 132.467 427.515C128.6 427.115 128.467 426.849 128.067 419.515C127.667 412.715 128.067 411.382 131 408.449L134.333 405.115H178.067H221.8L233.933 417.249L246.067 429.249L259 421.649C271.8 414.182 272.067 414.049 277.267 415.782C283 417.649 282.333 416.449 287.533 437.115L289.933 447.115L304.867 447.515L319.8 447.915V490.449V533.115H298.467H277.133V597.115V661.115H351.8H426.467V618.449V575.782H405.133H383.8V565.115V554.449H362.467H341.133V501.115V447.915L356.067 447.515L371 447.115L373.4 437.115C378.6 416.449 377.933 417.649 383.667 415.782C388.867 414.049 389.133 414.182 401.933 421.649L415 429.249L427.133 417.115L439.133 405.115H498.867H558.6L561.8 408.449C565 411.515 565.133 412.315 565.133 430.449C565.133 445.382 564.733 449.115 563.267 449.115C562.333 449.115 557.267 451.249 552.2 453.782C540.733 459.515 533 467.515 527.4 479.515C523.533 487.649 523.133 489.649 523.133 501.115C523.133 512.182 523.667 514.849 526.867 521.649C528.867 526.049 532.6 532.049 535 535.115L539.533 540.582L529 547.649C512.867 558.315 500.2 574.849 494.2 593.115C491.667 600.582 491.267 605.782 490.733 631.515L490.2 661.115H575.8H661.4L660.867 631.515C660.333 603.382 660.2 601.249 656.867 592.049C649.8 572.449 636.733 555.915 620.2 545.915L611.933 540.849L616.467 535.249C619 532.049 622.733 526.049 624.733 521.649C627.933 514.849 628.467 512.182 628.467 501.115C628.467 489.649 628.067 487.649 624.2 479.515C618.6 467.515 610.867 459.515 599.4 453.782C594.333 451.249 589.267 449.115 588.333 449.115C586.867 449.115 586.467 445.249 586.467 430.315C586.467 407.915 585.267 402.982 577.533 394.449C568.067 383.915 567.133 383.782 509.933 383.782H460.6L466.2 378.049L471.933 372.182L464.467 359.782C460.467 352.849 457.133 346.449 457.133 345.515C457.133 344.182 459.533 337.649 460.6 336.049C460.867 335.782 467.4 333.915 475.4 331.915L489.8 328.315L490.2 313.382L490.6 298.449H505.533C524.733 298.449 536.333 295.915 550.333 288.849C570.2 278.849 586.6 259.382 593.533 237.782C597.667 224.582 597.667 201.649 593.533 188.449C586.6 166.582 569.8 146.715 550.2 137.249C543.933 134.182 535.267 130.982 531 130.182C526.6 129.249 523 128.449 522.733 128.315C522.467 128.182 521.667 123.648 521 118.315C518.2 98.8485 508.467 74.7152 496.467 57.7819C482.733 38.4485 457.4 18.5819 435.4 9.91522C412.333 0.848572 383 -2.3515 360.467 1.78186ZM404.467 23.1152C449 30.9818 485.4 64.5819 497.267 109.115C498.733 114.582 500.333 125.915 500.733 134.049L501.533 149.115H510.333C552.467 149.115 584.2 188.582 573.8 228.182C567.667 251.915 548.067 270.849 524.867 275.649C519.933 276.715 458.2 277.115 317.133 276.849L116.467 276.449L109.667 272.849C99.6667 267.515 95.4 263.515 90.6 254.582C79.4 233.382 86.6 208.849 107.533 197.382C114.867 193.382 117.533 192.715 127.933 192.049L139.8 191.382L139 177.249C137.533 150.715 145.533 128.715 163.133 111.115C179.4 94.8486 197 86.8485 219.133 85.5152C234.333 84.7152 246.6 87.1152 261.533 94.1819L272.733 99.3819L278.733 87.2485C302.333 39.6486 352.6 14.0485 404.467 23.1152ZM236.733 306.715C239.933 325.515 250.6 344.182 265.4 357.782C276.6 368.049 286.2 373.782 300.733 378.849C311.667 382.715 313.667 382.982 330.467 382.982C346.333 382.982 349.8 382.449 359.133 379.382C379.533 372.582 396.867 359.782 409.267 341.915C416.6 331.649 423.133 315.649 424.6 305.382L425.533 298.449H447.267H469.133V304.982V311.515L457 314.449C445.8 317.249 444.6 317.782 443.267 321.515C442.467 323.649 439.667 330.315 437 336.315L432.2 347.115L438.867 358.315L445.4 369.515L428.733 386.049L412.2 402.715L401 396.182L389.8 389.515L379 394.315C373 396.982 366.333 399.782 364.2 400.582C360.467 401.915 359.933 403.115 357.133 414.315L354.2 426.449H330.467H306.733L303.8 414.315C301 403.115 300.467 401.915 296.733 400.582C294.6 399.782 287.933 396.982 281.933 394.315L271.133 389.515L259.933 396.182L248.733 402.715L232.067 386.049L215.4 369.382L222.067 358.315L228.733 347.382L223.533 335.249C220.733 328.582 217.8 321.782 217.133 320.315C216.333 318.049 213.4 316.849 203.933 314.449L191.8 311.515V304.982V298.449H213.533H235.267L236.733 306.715ZM403.8 300.315C403.8 305.115 397.933 320.182 393.133 327.515C371.8 360.582 331.4 371.515 296.067 353.782C280.2 345.782 265.8 328.982 259.933 311.515C255 296.982 246.733 298.449 330.467 298.449C392.333 298.449 403.8 298.715 403.8 300.315ZM145.8 452.315C160.867 457.115 172.2 464.182 184.467 476.449C196.6 488.582 203.667 499.782 208.733 515.115C211.8 524.582 212.2 527.915 212.2 543.782C212.2 559.649 211.8 562.982 208.733 572.449C203.667 587.782 196.6 598.982 184.467 611.115C172.333 623.249 161.133 630.315 145.8 635.382C136.333 638.449 133 638.849 117.133 638.849C101.267 638.849 97.9333 638.449 88.4667 635.382C73.2667 630.315 62.0667 623.382 49.8 611.115C37.6667 598.982 30.6 587.782 25.5333 572.449C22.4667 562.982 22.0667 559.649 22.0667 543.782C22.0667 527.915 22.4667 524.582 25.5333 515.115C30.6 499.782 37.6667 488.582 49.8 476.449C64.7333 461.515 81.1333 452.582 100.333 449.115C112.2 446.982 133.8 448.449 145.8 452.315ZM585.667 470.715C597.133 474.182 607.8 488.849 607.8 501.115C607.8 517.649 592.333 533.115 575.8 533.115C559.267 533.115 543.8 517.649 543.8 501.115C543.8 492.715 546.867 485.915 553.8 479.115C563.133 469.649 573.133 467.115 585.667 470.715ZM319.8 597.115V639.782H309.133H298.467V597.115V554.449H309.133H319.8V597.115ZM591.133 556.449C602.733 559.515 613.4 565.782 621.533 574.315C634.733 588.182 639.8 602.315 639.8 625.382V639.782H575.8H511.8V625.382C511.8 602.315 516.867 588.182 530.067 574.315C545.8 557.782 569.533 550.849 591.133 556.449ZM362.467 607.782V639.782H351.8H341.133V607.782V575.782H351.8H362.467V607.782ZM405.133 618.449V639.782H394.467H383.8V618.449V597.115H394.467H405.133V618.449Z" fill="#FFFFFF"/>
<path d="M383.8 52.7151V63.2484L394.6 64.8484C431.267 70.1817 458.467 102.182 458.467 139.915V147.648L464.2 148.448C467.267 148.848 471.933 149.248 474.467 149.515L479.133 149.782L478.867 135.115C478.6 109.382 470.2 90.1817 451.133 71.1151C434.467 54.4484 415.533 45.2484 393.4 43.1151L383.8 42.0484V52.7151Z" fill="#407BFF"/>
<g filter="url(#filter0_d_590_1468)">
<path d="M234.467 172.182C227.933 174.315 216.733 185.782 214.733 192.582C211 205.115 213.667 215.115 223.133 224.449C229.933 231.382 236.733 234.449 245.133 234.449C253.533 234.449 260.333 231.382 267.133 224.449C280.2 211.515 280.6 194.849 268.2 181.115C259.533 171.515 247.133 168.182 234.467 172.182ZM252.467 195.115C259.133 201.649 254.467 213.115 245.133 213.115C239.667 213.115 234.467 207.915 234.467 202.449C234.467 196.982 239.667 191.782 245.133 191.782C247.667 191.782 250.467 192.982 252.467 195.115Z" fill="#407BFF"/>
</g>
<path d="M319.8 172.182C313.267 174.315 302.067 185.782 300.067 192.582C296.333 205.115 299 215.115 308.467 224.449C315.267 231.382 322.067 234.449 330.467 234.449C338.867 234.449 345.667 231.382 352.467 224.449C365.533 211.515 365.933 194.849 353.533 181.115C344.867 171.515 332.467 168.182 319.8 172.182ZM337.8 195.115C339.933 197.115 341.133 199.915 341.133 202.449C341.133 204.982 339.933 207.782 337.8 209.782C331.267 216.449 319.8 211.782 319.8 202.449C319.8 196.982 325 191.782 330.467 191.782C333 191.782 335.8 192.982 337.8 195.115Z" fill="#407BFF"/>
<path d="M405.133 172.182C398.6 174.315 387.4 185.782 385.4 192.582C381.667 205.115 384.333 215.115 393.8 224.449C400.6 231.382 407.4 234.449 415.8 234.449C424.2 234.449 431 231.382 437.8 224.449C450.867 211.515 451.267 194.849 438.867 181.115C430.2 171.515 417.8 168.182 405.133 172.182ZM423.133 195.115C425.267 197.115 426.467 199.915 426.467 202.449C426.467 204.982 425.267 207.782 423.133 209.782C421.133 211.915 418.333 213.115 415.8 213.115C413.267 213.115 410.467 211.915 408.467 209.782C406.333 207.782 405.133 204.982 405.133 202.449C405.133 199.915 406.333 197.115 408.467 195.115C410.467 192.982 413.267 191.782 415.8 191.782C418.333 191.782 421.133 192.982 423.133 195.115Z" fill="#407BFF"/>
<path d="M106.467 479.782V490.449H90.4667H74.4667V508.582C74.4667 531.249 75.6667 535.782 84.4667 544.449C92.8667 552.982 97.8 554.449 117 554.449C131 554.449 132.067 554.582 135.133 557.782C137.933 560.449 138.467 562.315 138.467 568.449V575.782H120.467C103 575.782 102.2 575.649 99.1333 572.449C97.2667 570.715 95.8 568.315 95.8 567.115C95.8 565.515 93.8 565.115 85.1333 565.115C76.2 565.115 74.4667 565.515 74.4667 567.249C74.4667 580.582 91 597.115 104.333 597.115C106.067 597.115 106.467 598.849 106.467 607.782V618.449H117.133H127.8V607.782V597.115H143.8H159.8V578.982C159.8 556.315 158.6 551.782 149.8 543.115C141.4 534.582 136.467 533.115 117.267 533.115C103.267 533.115 102.2 532.982 99.1333 529.782C96.3333 527.115 95.8 525.249 95.8 519.115V511.782H113.8C131.267 511.782 132.067 511.915 135.133 515.115C137 516.849 138.467 519.249 138.467 520.449C138.467 522.049 140.467 522.449 149.133 522.449C158.067 522.449 159.8 522.049 159.8 520.315C159.8 510.182 149.133 496.049 138.867 492.582C135.4 491.382 131.533 490.449 130.2 490.449C128.067 490.449 127.8 489.249 127.8 479.782V469.115H117.133H106.467V479.782Z" fill="#407BFF"/>
<defs>
<filter id="filter0_d_590_1468" x="209.11" y="170.523" width="72.1148" height="71.9253" filterUnits="userSpaceOnUse" color-interpolation-filters="sRGB">
<feFlood flood-opacity="0" result="BackgroundImageFix"/>
<feColorMatrix in="SourceAlpha" type="matrix" values="0 0 0 0 0 0 0 0 0 0 0 0 0 0 0 0 0 0 127 0" result="hardAlpha"/>
<feOffset dy="4"/>
<feGaussianBlur stdDeviation="2"/>
<feComposite in2="hardAlpha" operator="out"/>
<feColorMatrix type="matrix" values="0 0 0 0 0 0 0 0 0 0 0 0 0 0 0 0 0 0 0.25 0"/>
<feBlend mode="normal" in2="BackgroundImageFix" result="effect1_dropShadow_590_1468"/>
<feBlend mode="normal" in="SourceGraphic" in2="effect1_dropShadow_590_1468" result="shape"/>
</filter>
</defs>
</svg>
