<?xml version="1.0" standalone="no"?>
<!DOCTYPE svg PUBLIC "-//W3C//DTD SVG 20010904//EN"
 "http://www.w3.org/TR/2001/REC-SVG-20010904/DTD/svg10.dtd">
<svg version="1.0" xmlns="http://www.w3.org/2000/svg"
 width="512.000000pt" height="512.000000pt" viewBox="0 0 512.000000 512.000000"
 preserveAspectRatio="xMidYMid meet">

<g transform="translate(0.000000,512.000000) scale(0.100000,-0.100000)"
fill="#000000" stroke="none">
<path d="M466 4949 c-62 -15 -153 -68 -197 -116 -22 -24 -55 -74 -72 -111
l-32 -67 0 -895 0 -895 32 -67 c44 -93 100 -151 191 -196 l76 -37 1528 -3
1528 -2 0 80 0 80 -1496 0 c-1146 0 -1506 3 -1538 12 -55 16 -138 99 -154 154
-17 59 -17 1689 0 1748 16 55 99 138 154 154 60 18 4088 18 4148 0 55 -16 138
-99 154 -154 17 -58 17 -1689 0 -1746 -15 -50 -76 -120 -125 -143 -21 -10 -39
-18 -40 -19 -3 -3 35 -147 40 -152 2 -2 36 12 74 31 86 43 143 103 186 193
l32 67 0 895 0 895 -32 67 c-44 93 -100 151 -191 196 l-76 37 -2075 2 c-1231
0 -2092 -3 -2115 -8z"/>
<path d="M505 4375 l-25 -24 0 -591 0 -591 25 -24 24 -25 591 0 591 0 24 25
25 24 0 591 0 591 -25 24 -24 25 -591 0 -591 0 -24 -25z m1095 -615 l0 -480
-480 0 -480 0 0 480 0 480 480 0 480 0 0 -480z"/>
<path d="M1239 3844 l-131 -197 -82 82 c-45 44 -86 81 -92 81 -13 0 -104 -93
-104 -106 0 -5 58 -67 128 -137 130 -128 148 -139 197 -121 15 6 328 463 341
499 3 8 -18 29 -55 54 -33 23 -62 41 -65 41 -3 0 -65 -88 -137 -196z"/>
<path d="M1945 4375 l-25 -24 0 -591 0 -591 25 -24 24 -25 591 0 591 0 24 25
25 24 0 591 0 591 -25 24 -24 25 -591 0 -591 0 -24 -25z m1095 -615 l0 -480
-480 0 -480 0 0 480 0 480 480 0 480 0 0 -480z"/>
<path d="M2679 3844 l-131 -197 -82 82 c-45 44 -86 81 -92 81 -13 0 -104 -93
-104 -106 0 -5 58 -67 128 -137 130 -128 148 -139 197 -121 15 6 328 463 341
499 3 8 -18 29 -55 54 -33 23 -62 41 -65 41 -3 0 -65 -88 -137 -196z"/>
<path d="M3385 4375 l-25 -24 0 -591 0 -591 25 -24 24 -25 591 0 591 0 24 25
25 24 0 591 0 591 -25 24 -24 25 -591 0 -591 0 -24 -25z m1095 -615 l0 -480
-480 0 -480 0 0 480 0 480 480 0 480 0 0 -480z"/>
<path d="M4119 3844 l-131 -197 -82 82 c-45 44 -86 81 -92 81 -13 0 -104 -93
-104 -106 0 -5 58 -67 128 -137 130 -128 148 -139 197 -121 15 6 328 463 341
499 3 8 -18 29 -55 54 -33 23 -62 41 -65 41 -3 0 -65 -88 -137 -196z"/>
<path d="M4033 2905 c-13 -9 -29 -43 -43 -87 -49 -160 -88 -199 -248 -248 -77
-23 -102 -46 -102 -90 0 -44 25 -67 102 -90 160 -49 199 -88 248 -248 23 -77
46 -102 90 -102 44 0 67 25 90 102 49 160 89 200 247 247 77 23 103 46 103 91
0 45 -26 68 -103 91 -158 47 -198 87 -247 247 -23 77 -46 102 -90 102 -14 0
-35 -7 -47 -15z m75 -330 c12 -20 40 -48 62 -63 22 -15 39 -29 39 -32 0 -3
-17 -17 -39 -32 -22 -15 -50 -43 -62 -63 -13 -19 -25 -35 -28 -35 -3 0 -15 16
-28 35 -12 20 -40 48 -62 63 -22 15 -39 29 -39 32 0 3 17 17 39 32 22 15 50
43 62 63 13 19 25 35 28 35 3 0 15 -16 28 -35z"/>
<path d="M954 2226 c-138 -92 -154 -107 -154 -147 0 -11 126 -254 280 -540
l280 -519 0 -430 0 -430 80 0 80 0 0 450 0 451 -259 482 c-143 265 -263 489
-266 498 -4 12 8 25 45 49 29 19 55 29 59 24 5 -5 82 -135 172 -289 99 -170
174 -311 191 -359 34 -98 76 -163 142 -222 50 -46 155 -104 187 -104 9 0 18
-2 21 -5 3 -3 -26 -112 -63 -243 -38 -130 -69 -246 -69 -257 0 -11 43 -84 95
-162 138 -208 152 -208 290 0 52 78 95 151 95 162 0 11 -31 127 -69 257 -37
131 -66 240 -63 243 3 3 13 5 22 5 40 0 158 71 212 128 61 64 92 117 119 204
14 46 329 608 360 642 4 5 30 -5 59 -24 37 -24 49 -37 45 -49 -3 -9 -123 -233
-266 -498 l-259 -482 0 -451 0 -450 80 0 80 0 0 430 0 430 280 519 c154 286
280 529 280 541 0 39 -18 56 -157 148 -144 96 -174 106 -211 75 -11 -10 -84
-128 -162 -263 -78 -135 -143 -246 -145 -248 -1 -2 -16 21 -33 50 -78 139
-250 238 -412 238 -162 0 -334 -99 -412 -238 -17 -29 -32 -52 -33 -50 -2 2
-67 113 -145 248 -78 135 -151 253 -162 263 -37 32 -67 21 -214 -77z m1098
-338 c48 -22 135 -94 126 -104 -2 -1 -35 9 -73 23 -61 23 -85 27 -185 26 -113
0 -133 -4 -244 -49 -18 -7 -18 -6 -2 18 23 35 86 78 149 100 69 25 156 19 229
-14z m32 -246 c64 -30 146 -95 146 -116 0 -26 -51 -116 -84 -150 -20 -20 -60
-48 -89 -63 -45 -24 -64 -28 -137 -28 -73 0 -92 4 -137 27 -28 15 -68 45 -89
65 -34 35 -84 123 -84 149 0 7 18 28 40 47 118 108 293 135 434 69z m-124
-870 l32 -119 -33 -51 c-19 -28 -36 -52 -39 -52 -3 0 -20 24 -39 52 l-33 51
32 119 c18 65 36 118 40 118 4 0 22 -53 40 -118z"/>
<path d="M3335 1748 c-36 -19 -45 -40 -45 -108 0 -62 -2 -68 -26 -79 -24 -11
-30 -8 -75 34 -39 36 -55 45 -85 45 -33 0 -46 -10 -155 -122 -104 -108 -118
-127 -119 -158 0 -28 9 -43 46 -81 37 -38 44 -50 39 -71 -5 -21 -14 -27 -52
-32 -25 -3 -58 -6 -74 -6 -18 0 -35 -9 -48 -26 -19 -24 -21 -40 -21 -186 0
-216 6 -228 124 -228 58 0 64 -2 75 -26 11 -24 8 -30 -34 -75 -37 -39 -45 -55
-45 -85 0 -34 9 -46 123 -155 107 -104 126 -118 157 -119 28 0 43 9 81 46 38
37 50 44 71 39 21 -5 27 -14 32 -52 3 -25 6 -58 6 -74 0 -18 9 -35 26 -48 24
-19 40 -21 186 -21 216 0 228 6 228 124 0 58 2 64 26 75 24 11 30 8 75 -34 39
-36 55 -45 85 -45 33 0 46 10 155 123 104 107 118 126 119 157 0 28 -9 43 -46
81 -37 38 -44 50 -39 72 6 24 12 26 81 32 111 11 114 16 114 217 0 216 -6 228
-124 228 -58 0 -64 2 -75 26 -11 24 -8 30 34 75 36 39 45 55 45 85 0 33 -10
46 -122 155 -108 104 -127 118 -158 119 -28 0 -43 -9 -81 -46 -38 -37 -50 -44
-71 -39 -21 5 -27 14 -32 52 -3 25 -6 58 -6 74 0 18 -9 35 -26 48 -25 19 -40
21 -188 21 -97 0 -169 -5 -181 -12z m243 -208 c4 -63 26 -95 76 -106 17 -3 52
-17 78 -30 69 -35 95 -31 145 18 l43 42 45 -44 44 -43 -34 -38 c-51 -57 -53
-81 -16 -156 17 -35 31 -70 31 -79 0 -9 13 -29 29 -45 26 -25 37 -29 86 -29
l56 0 -3 -62 -3 -63 -55 -3 c-63 -4 -95 -26 -106 -76 -3 -17 -17 -52 -30 -78
-35 -69 -31 -95 18 -145 l42 -43 -43 -44 -44 -45 -41 35 c-59 51 -76 52 -165
10 -42 -20 -82 -36 -88 -36 -27 0 -53 -52 -53 -106 l0 -54 -65 0 -65 0 0 57
c0 44 -5 62 -22 80 -12 13 -28 23 -36 23 -7 0 -44 13 -82 30 -38 17 -79 30
-91 30 -14 0 -41 -17 -66 -42 l-43 -42 -45 44 -44 43 34 38 c52 58 53 78 11
168 -20 42 -36 82 -36 88 0 27 -52 53 -107 53 l-54 0 3 63 3 62 55 3 c58 3
100 29 100 61 0 9 14 45 30 79 41 86 39 107 -12 159 l-42 43 44 45 43 44 38
-34 c58 -52 78 -53 168 -11 42 20 82 36 88 36 27 0 53 52 53 107 l0 54 63 -3
62 -3 3 -55z"/>
<path d="M3403 1264 c-58 -21 -138 -96 -171 -158 -23 -44 -27 -63 -27 -141 0
-106 20 -158 88 -226 155 -156 416 -110 514 89 23 48 28 70 28 137 0 67 -5 89
-28 137 -31 62 -84 116 -149 149 -56 29 -192 36 -255 13z m197 -166 c76 -52
98 -125 61 -202 -53 -109 -201 -122 -274 -24 -28 38 -34 116 -12 162 39 82
152 113 225 64z"/>
</g>
</svg>
