<?xml version="1.0" standalone="no"?>
<!DOCTYPE svg PUBLIC "-//W3C//DTD SVG 20010904//EN"
 "http://www.w3.org/TR/2001/REC-SVG-20010904/DTD/svg10.dtd">
<svg version="1.0" xmlns="http://www.w3.org/2000/svg"
 width="512.000000pt" height="512.000000pt" viewBox="0 0 512.000000 512.000000"
 preserveAspectRatio="xMidYMid meet">

<g transform="translate(0.000000,512.000000) scale(0.100000,-0.100000)"
fill="#000000" stroke="none">
<path d="M642 4764 c-29 -14 -65 -42 -82 -62 -64 -78 -60 75 -60 -2142 0
-2217 -4 -2064 60 -2142 17 -20 53 -48 82 -62 l52 -26 1320 0 c1258 0 1323 1
1361 19 52 23 102 75 129 131 20 43 21 62 24 408 l3 362 47 0 c64 1 124 16
138 35 7 9 17 53 24 99 l11 82 88 37 c48 20 91 37 95 37 5 0 39 -22 77 -50 38
-27 80 -50 93 -50 45 0 196 135 282 253 24 33 44 65 44 72 0 7 -25 47 -56 89
l-56 77 36 78 c20 42 36 82 36 87 0 6 44 18 97 27 64 11 102 22 110 33 30 41
30 401 0 448 -14 21 -29 26 -108 37 -67 9 -92 16 -96 28 -3 9 -20 51 -38 93
l-32 77 53 73 c30 40 54 82 54 92 0 22 -28 62 -109 155 -59 68 -193 181 -215
181 -8 0 -48 -25 -90 -56 l-76 -56 -93 40 -92 39 -12 76 c-6 42 -14 85 -18 96
-7 23 -45 35 -137 46 l-58 6 -1 527 c0 377 -4 536 -12 559 -23 62 -73 119
-128 146 l-53 27 -1321 0 -1321 0 -52 -26z m2715 -90 c15 -11 38 -36 51 -54
21 -32 22 -42 22 -236 l0 -204 -1420 0 -1420 0 0 193 c0 184 1 196 23 238 15
27 38 52 63 66 l39 23 1307 -3 1307 -2 28 -21z m73 -868 l0 -273 -62 -7 c-83
-9 -126 -23 -132 -44 -3 -9 -10 -54 -17 -99 -6 -46 -16 -83 -21 -83 -6 0 -46
-16 -91 -35 l-80 -35 -76 55 c-42 30 -82 55 -90 55 -52 0 -331 -278 -331 -330
0 -9 24 -50 54 -91 l55 -75 -36 -90 c-20 -49 -37 -91 -39 -93 -2 -2 -45 -11
-96 -20 -85 -15 -94 -18 -106 -44 -17 -36 -27 -235 -18 -340 10 -104 20 -114
130 -132 48 -7 89 -15 91 -17 1 -2 18 -43 38 -92 l35 -89 -54 -73 c-30 -40
-54 -79 -54 -87 0 -57 273 -327 330 -327 12 0 53 23 91 50 38 28 72 50 75 50
4 0 47 -17 95 -37 l87 -37 12 -80 c16 -113 24 -123 107 -131 110 -11 103 -2
103 -116 l0 -99 -1420 0 -1420 0 0 1520 0 1520 1420 0 1420 0 0 -274z m205
-387 c3 -4 13 -46 20 -95 8 -48 18 -91 22 -95 5 -3 33 -14 63 -24 30 -10 85
-33 122 -51 37 -19 73 -34 79 -34 7 0 45 25 85 56 l73 56 38 -30 c36 -29 128
-122 168 -170 18 -22 18 -23 -33 -96 -29 -41 -52 -83 -52 -94 0 -11 11 -42 25
-69 14 -27 38 -82 53 -123 l28 -75 94 -15 95 -15 7 -45 c3 -25 7 -76 7 -115 0
-38 -4 -90 -7 -115 -8 -49 1 -45 -132 -64 -25 -4 -51 -10 -58 -15 -7 -4 -25
-43 -41 -87 -15 -43 -38 -95 -49 -114 -32 -51 -27 -75 28 -150 28 -37 50 -72
50 -78 0 -13 -131 -153 -179 -192 l-38 -29 -73 54 c-41 30 -80 55 -87 55 -7 0
-39 -13 -71 -29 -31 -15 -87 -38 -124 -50 -37 -13 -70 -27 -74 -32 -3 -5 -12
-48 -20 -96 -7 -47 -16 -88 -19 -91 -9 -10 -181 -15 -248 -8 l-65 7 -6 62
c-14 126 -18 133 -93 157 -36 12 -92 34 -124 51 -32 16 -65 29 -74 29 -8 0
-45 -22 -83 -50 -38 -27 -74 -50 -81 -50 -16 0 -183 162 -200 194 -13 23 -10
30 38 95 28 39 51 79 51 89 0 10 -15 47 -34 82 -19 36 -42 91 -51 122 -18 64
-30 71 -136 83 -87 11 -84 5 -84 169 0 79 3 148 7 151 4 4 44 14 89 21 93 15
110 27 128 94 7 25 28 77 47 117 19 40 34 75 34 79 0 3 -22 36 -48 73 -27 36
-51 71 -55 77 -9 16 70 111 149 178 l65 55 74 -54 c41 -30 81 -55 89 -55 8 0
46 15 83 34 37 18 91 41 120 50 28 10 56 22 61 29 5 7 15 51 22 99 12 82 15
87 39 91 39 7 278 3 286 -4z m-197 -2681 c-3 -191 -4 -205 -26 -240 -13 -21
-40 -45 -66 -57 -42 -21 -48 -21 -1337 -21 l-1294 0 -39 23 c-25 14 -48 39
-63 66 -22 42 -23 54 -23 238 l0 193 1426 0 1425 0 -3 -202z"/>
<path d="M1761 4468 c-6 -15 -5 -30 4 -43 12 -19 25 -20 245 -23 245 -3 260 0
260 42 0 44 -11 46 -262 46 -238 0 -239 0 -247 -22z"/>
<path d="M846 3794 c-14 -14 -16 -78 -16 -560 0 -531 0 -544 20 -564 20 -20
33 -20 563 -20 514 0 545 1 560 18 15 17 17 71 17 568 0 415 -3 553 -12 562
-9 9 -148 12 -564 12 -489 0 -554 -2 -568 -16z m522 -296 l2 -218 -220 0 -220
0 0 220 0 220 218 -2 217 -3 3 -217z m532 2 l0 -220 -220 0 -220 0 0 220 0
220 220 0 220 0 0 -220z m-532 -532 l2 -218 -220 0 -220 0 0 220 0 220 218 -2
217 -3 3 -217z m530 0 l2 -218 -220 0 -220 0 0 220 0 220 218 -2 217 -3 3
-217z"/>
<path d="M846 2454 c-14 -14 -16 -78 -16 -560 0 -357 4 -552 10 -565 10 -18
27 -19 568 -19 421 0 561 3 570 12 17 17 17 1119 0 1136 -9 9 -148 12 -564 12
-489 0 -554 -2 -568 -16z m771 -291 l-207 -208 -207 208 -208 207 415 0 415 0
-208 -207z m-480 -480 l-207 -208 0 415 0 415 207 -208 208 -207 -208 -207z
m763 200 l0 -418 -212 212 -213 213 205 205 c113 113 208 205 212 205 5 0 8
-188 8 -417z m-275 -273 l210 -210 -418 0 c-229 0 -417 3 -417 7 0 9 402 413
410 413 3 0 100 -94 215 -210z"/>
<path d="M3398 2920 c-219 -39 -393 -202 -443 -412 -43 -185 10 -365 149 -504
111 -111 224 -157 386 -156 201 1 378 112 470 294 49 98 64 170 57 278 -14
228 -164 418 -384 483 -68 20 -175 28 -235 17z m266 -128 c288 -135 354 -509
127 -726 -85 -81 -168 -117 -280 -124 -143 -8 -259 36 -352 135 -94 100 -142
249 -121 373 25 138 115 267 231 329 80 42 121 51 232 47 83 -2 105 -7 163
-34z"/>
<path d="M1822 823 c-49 -24 -75 -68 -80 -132 -3 -46 0 -62 20 -90 50 -73 60
-76 253 -76 160 0 176 2 201 21 46 34 67 70 72 123 4 41 0 58 -21 94 -41 69
-67 77 -254 77 -125 0 -165 -4 -191 -17z m350 -90 c22 -20 23 -70 1 -95 -14
-16 -33 -18 -164 -18 -141 0 -149 1 -163 22 -22 31 -20 58 6 85 20 22 28 23
161 23 117 0 144 -3 159 -17z"/>
</g>
</svg>
