<svg width="330" height="137" viewBox="0 0 330 137" fill="none" xmlns="http://www.w3.org/2000/svg">
<path d="M290.31 41.1275C287.1 41.0395 283.887 41.1933 280.7 41.5875V58.3475L281.43 58.4175C281.43 58.4175 285.43 58.7575 290.02 58.7575C297.44 58.7575 301.75 58.1975 304.36 55.8975C305.642 54.7406 306.503 53.1894 306.805 51.4889C307.108 49.7884 306.835 48.0357 306.03 46.5075C303.46 41.3575 295.43 41.1275 290.3 41.1275M280.71 94.2075C285.01 94.4775 289.65 94.6676 294.31 94.4976C297.93 94.3676 302.72 94.0876 306.13 90.6076C307.612 89.0961 308.547 87.1328 308.786 85.0295C309.025 82.9261 308.555 80.8032 307.45 78.9976C305.34 75.4276 301.14 73.6876 290.95 73.8076C287.513 73.825 284.078 74.0152 280.66 74.3776L280.71 94.2075ZM289.26 111.838C278.52 111.838 268.47 111.588 260.63 111.168V25.6875C263.36 25.4475 271.81 25.2675 283.77 24.9675C290.543 24.7166 297.325 25.0512 304.04 25.9675C316.74 27.9675 321.36 34.0475 323.36 37.3775C325.517 40.7859 326.529 44.7938 326.25 48.8175C325.89 54.2675 324.12 58.7376 318.56 63.1376L317.56 63.9175L318.68 64.4775C322.104 66.2889 324.894 69.1004 326.68 72.5375C328.743 76.3341 329.797 80.5969 329.74 84.9175C329.74 94.1375 326.43 101.108 319.74 105.778C313.74 109.918 305.47 111.848 289.29 111.848" fill="#141FD1"/>
<path d="M241.11 25.6375H221.26C219.48 29.2975 207.12 54.8375 201.45 69.4075L201.06 70.4075H200.39L200 69.4075C194.33 54.8375 182 29.2975 180.19 25.6375H160.35C156.06 56.5175 153.94 104.278 153.64 111.108H173.4C173.59 105.388 174.77 69.3575 175.59 61.2575L175.8 59.2575H176.28L177.07 61.0575C183.66 76.0575 192.15 96.7675 193.55 100.178H207.88C209.28 96.7575 217.77 76.0975 224.36 61.0575L225.15 59.2575H225.63L225.84 61.2575C226.66 69.3575 227.84 105.388 228.03 111.108H247.79C247.5 104.268 245.38 56.5175 241.08 25.6375" fill="#141FD1"/>
<path d="M28.94 41.5575L53.49 52.2275C54.9658 52.9014 56.605 53.1341 58.21 52.8975C60.0737 52.6123 61.7793 51.6851 63.032 50.2761C64.2848 48.8671 65.0061 47.0648 65.0713 45.1805C65.1365 43.2962 64.5416 41.4484 63.3892 39.9561C62.2369 38.4638 60.5996 37.4209 58.7601 37.0075L32.5 31.1775C31.6157 30.9501 30.6888 30.9465 29.8027 31.1669C28.9166 31.3873 28.0994 31.8248 27.4246 32.44C26.7499 33.0551 26.239 33.8286 25.9379 34.6906C25.6368 35.5526 25.5551 36.476 25.7001 37.3775C25.8514 38.2882 26.2268 39.1469 26.7923 39.8766C27.3579 40.6062 28.0959 41.1838 28.94 41.5575Z" fill="#EB2E4A"/>
<path d="M58.9501 24.0775C58.4641 24.8458 58.1507 25.7104 58.0316 26.6117C57.9124 27.513 57.9904 28.4293 58.2601 29.2975C58.5898 30.3213 59.184 31.2399 59.9825 31.9605C60.7811 32.681 61.7557 33.1781 62.8078 33.4013C63.86 33.6245 64.9525 33.566 65.9748 33.2317C66.9971 32.8974 67.913 32.2992 68.6301 31.4975L83.9801 13.6775C84.9592 12.6047 85.6426 11.2959 85.9634 9.87946C86.2842 8.46297 86.2314 6.98742 85.8101 5.59751C85.4813 4.58552 84.9564 3.64821 84.2654 2.83914C83.5743 2.03008 82.7305 1.3651 81.7824 0.882203C80.8342 0.399306 79.8002 0.10795 78.7395 0.0247816C77.6787 -0.0583865 76.6119 0.0682617 75.6001 0.397493C73.7653 0.979776 72.205 2.20959 71.2101 3.85751L58.9401 24.0775" fill="#EB2E4A"/>
<path d="M103.03 53.4775C102.147 53.2593 101.228 53.2357 100.335 53.4084C99.4423 53.5811 98.5978 53.9459 97.8601 54.4775C96.9895 55.1089 96.301 55.959 95.8641 56.9419C95.4273 57.9247 95.2576 59.0054 95.3723 60.0748C95.4869 61.1441 95.8818 62.1643 96.5171 63.0322C97.1523 63.9001 98.0054 64.5849 98.99 65.0175L120.69 74.0774C122.014 74.6761 123.471 74.92 124.917 74.785C126.364 74.65 127.75 74.1408 128.94 73.3075C130.673 72.0415 131.833 70.1393 132.165 68.0187C132.497 65.8981 131.974 63.7324 130.71 61.9975C129.587 60.4348 127.935 59.3331 126.06 58.8974L103.06 53.5175" fill="#EB2E4A"/>
<path d="M88.74 104.408C88.6825 103.5 88.4282 102.616 87.9947 101.816C87.5613 101.017 86.9592 100.321 86.2301 99.7775C85.3612 99.1437 84.3405 98.7503 83.2709 98.6373C82.2014 98.5243 81.121 98.6957 80.1389 99.134C79.1568 99.5723 78.3077 100.262 77.6776 101.134C77.0474 102.005 76.6585 103.028 76.5501 104.098C76.5501 104.158 74.6101 127.478 74.6101 127.538C74.4481 128.981 74.6644 130.441 75.2378 131.775C75.8111 133.11 76.7217 134.272 77.8801 135.148C79.618 136.405 81.7838 136.922 83.9023 136.584C86.0207 136.247 87.9188 135.083 89.1801 133.348C90.3247 131.799 90.8652 129.886 90.7001 127.968C90.7001 127.458 88.7001 104.448 88.7001 104.398" fill="#EB2E4A"/>
<path d="M35.8001 106.647C36.6461 106.312 37.409 105.797 38.0359 105.137C38.6627 104.478 39.1384 103.689 39.43 102.827C39.7624 101.806 39.82 100.715 39.597 99.664C39.374 98.6131 38.8784 97.6394 38.1598 96.8408C37.4413 96.0422 36.5252 95.4468 35.5036 95.1145C34.482 94.7821 33.3909 94.7245 32.34 94.9475L9.44005 100.347C8.01493 100.636 6.68977 101.292 5.59545 102.249C4.50113 103.207 3.6755 104.433 3.20006 105.808C2.53471 107.85 2.70769 110.072 3.68096 111.987C4.65423 113.902 6.3481 115.352 8.39007 116.017C10.2172 116.628 12.2039 116.553 13.9801 115.808L35.8001 106.678" fill="#EB2E4A"/>
<path d="M17.3901 56.9375C17.9713 57.6352 18.697 58.1986 19.517 58.5888C20.3371 58.979 21.232 59.1866 22.1401 59.1975C23.2162 59.1998 24.2738 58.9179 25.2059 58.3802C26.1381 57.8426 26.9117 57.0683 27.4485 56.1357C27.9854 55.2031 28.2664 54.1452 28.2631 53.0691C28.2599 51.993 27.9725 50.9369 27.43 50.0075C27.43 49.9575 15.26 29.9575 15.22 29.9075C14.5021 28.6454 13.4682 27.5918 12.2199 26.8502C10.9716 26.1086 9.5518 25.7044 8.10005 25.6775C5.9518 25.6775 3.89153 26.5309 2.37248 28.0499C0.853438 29.569 4.65056e-05 31.6292 4.65056e-05 33.7775C-0.00651925 35.704 0.682339 37.5682 1.94005 39.0275L17.3901 56.9375Z" fill="#EB2E4A"/>
<path d="M77.1601 30.3475C77.1601 30.4075 74.6001 56.9375 74.6001 56.9975C74.4128 58.6105 74.6977 60.2432 75.4201 61.6975C76.2758 63.368 77.6851 64.6895 79.4071 65.4361C81.1291 66.1828 83.057 66.3082 84.8612 65.791C86.6655 65.2738 88.2341 64.1461 89.2991 62.6006C90.3641 61.0551 90.8593 59.1877 90.7001 57.3175C90.7001 57.2575 88.1501 30.5975 88.1401 30.5475C88.0937 29.7979 87.8928 29.0658 87.5501 28.3975C86.887 27.0953 85.7338 26.1099 84.3442 25.6579C82.9546 25.206 81.4423 25.3245 80.1401 25.9875C79.3164 26.4094 78.6107 27.0298 78.0869 27.7928C77.5631 28.5557 77.2377 29.4372 77.1401 30.3575" fill="#EB2E4A"/>
<path d="M102.74 72.6775L76.6101 78.4975C75.0207 78.8184 73.5584 79.593 72.4001 80.7275C71.064 82.055 70.233 83.807 70.0502 85.6815C69.8675 87.5561 70.3446 89.4356 71.3991 90.9961C72.4537 92.5566 74.0196 93.7003 75.8271 94.2299C77.6345 94.7596 79.5701 94.642 81.3001 93.8975L105.97 83.1675C106.667 82.8933 107.301 82.4779 107.83 81.9475C108.863 80.9142 109.443 79.5133 109.443 78.0525C109.443 76.5917 108.863 75.1907 107.83 74.1575C107.172 73.509 106.364 73.0341 105.477 72.7758C104.59 72.5174 103.653 72.4837 102.75 72.6775" fill="#EB2E4A"/>
<path d="M70.3601 110.118L56.7701 87.0576C55.9741 85.6442 54.7864 84.4912 53.3501 83.7375C51.6751 82.8849 49.7558 82.6413 47.9209 83.0484C46.0861 83.4555 44.4499 84.488 43.2928 85.9691C42.1356 87.4501 41.5295 89.2874 41.5783 91.1663C41.627 93.0451 42.3276 94.8485 43.5601 96.2675L61.3701 116.428C61.9517 117.131 62.6988 117.678 63.5444 118.021C64.3899 118.365 65.3074 118.492 66.2146 118.393C67.1217 118.294 67.9899 117.971 68.7414 117.453C69.4929 116.936 70.1041 116.24 70.5201 115.428C70.9334 114.601 71.1351 113.686 71.1071 112.762C71.0792 111.839 70.8225 110.937 70.3601 110.138" fill="#EB2E4A"/>
<path d="M24.7501 90.8875L42.4901 70.8875C43.5906 69.6949 44.3203 68.2078 44.5901 66.6076C44.8768 64.755 44.512 62.8603 43.558 61.2466C42.604 59.6329 41.1197 58.4 39.3584 57.7583C37.597 57.1165 35.6676 57.1055 33.8991 57.7272C32.1305 58.3489 30.6324 59.5648 29.6601 61.1676L15.9801 84.2875C15.4917 85.0587 15.2024 85.9391 15.1385 86.8496C15.0745 87.7602 15.2377 88.6723 15.6135 89.5042C15.9893 90.336 16.5658 91.0615 17.2913 91.6154C18.0168 92.1693 18.8686 92.5343 19.7701 92.6776C20.6858 92.8203 21.6226 92.7322 22.4957 92.4213C23.3688 92.1105 24.1505 91.5868 24.7701 90.8975" fill="#EB2E4A"/>
</svg>
