<svg width="971" height="484" viewBox="0 0 971 484" fill="none" xmlns="http://www.w3.org/2000/svg">
<path d="M719.065 388.715C719.148 393.227 719.016 396.126 718.692 396.511C718.416 396.847 718.217 397.75 718.257 398.511C718.559 404.429 714.393 411.619 708.736 414.93C701.021 419.454 682.316 419.982 673.187 415.939C659.72 409.971 661.041 388.682 675.203 383.53C680.177 381.723 684.436 381.403 702.988 381.474L718.933 381.529L719.065 388.715ZM425.681 390.466C424.979 412.446 418.571 418.582 396.347 418.55C377.509 418.522 368.972 411.393 371.212 397.541C373.429 383.773 378.887 381.486 409.832 381.359L425.977 381.289L425.681 390.466ZM258.939 366.351C261.016 366.637 262.936 367.045 263.201 367.254C263.468 367.458 264.772 368.003 266.104 368.455C279.48 373.045 280.971 390.242 268.625 397.585C262.031 401.503 255.62 402.39 238.195 401.811L228.164 401.475V384.141V366.813L229.253 366.561C232.613 365.805 253.912 365.651 258.939 366.351ZM501.799 334.835C502.411 335.073 503.997 335.513 505.325 335.827C508.891 336.665 513.54 339.077 515.089 340.89C515.827 341.766 517.127 343.298 517.971 344.299C521.617 348.653 524.301 360.83 524.759 375.129C524.924 380.311 524.835 382.257 524.427 382.257C524.125 382.257 523.987 382.434 524.119 382.654C525.049 384.153 522.032 399.101 519.855 403.75C510.873 422.974 479.633 420.209 473.625 399.657C473.277 398.457 472.835 397.365 472.641 397.233C469.884 395.277 469.903 355.722 472.664 353.743C472.848 353.606 473.501 352.086 474.109 350.355C476.985 342.229 482.452 337.354 490.535 335.699C492.129 335.374 493.588 334.957 493.777 334.763C494.272 334.267 500.46 334.322 501.799 334.835ZM606.204 334.962C610.512 336.433 615.321 338.929 616.985 340.543C623.625 347.011 626.188 352.989 627.141 364.257L627.477 368.241H598.843H570.213L570.549 364.494C571.381 355.381 573.613 348.345 576.764 344.901C580.996 340.285 582.043 339.243 582.468 339.243C582.709 339.243 583.724 338.719 584.709 338.079C585.707 337.435 587.712 336.515 589.173 336.019C590.639 335.534 591.939 334.994 592.071 334.823C593.019 333.594 602.496 333.689 606.204 334.962ZM780.357 319.49C775.612 319.947 770.333 321.121 768.467 322.139C767.805 322.503 765.617 323.529 763.612 324.426C759.436 326.289 753.745 330.901 752.289 333.606C751.765 334.581 751.171 335.374 750.973 335.374C749.701 335.374 746.963 343.826 746.504 349.149C745.237 363.887 752.141 375.343 764.604 379.178C766.064 379.63 767.508 380.186 767.805 380.411C768.924 381.266 775.821 382.213 788.043 383.217C806.787 384.743 812.76 386.935 814.644 392.979C814.836 393.59 815.239 394.251 815.532 394.439C818.076 396.071 815.371 407.426 811.443 411.625C803.031 420.611 770.609 420.819 760.444 411.95C759.408 411.046 758.377 410.301 758.148 410.297C757.921 410.291 756.693 409.414 755.425 408.351C752.389 405.811 752.835 405.646 746.643 411.73C740.817 417.454 740.46 418.411 743.54 420.055C744.064 420.341 745.705 421.521 747.183 422.678C748.659 423.841 750.136 424.782 750.467 424.782C750.803 424.782 751.072 424.969 751.072 425.189C751.072 425.922 755.723 428.147 760.335 429.631C762.813 430.429 765.221 431.294 765.684 431.553C770.671 434.385 806.649 434.391 806.649 431.559C806.649 431.345 807.409 431.03 808.341 430.854C810.269 430.495 816.197 428.049 818.148 426.809C820.44 425.359 826.947 419.525 826.947 418.925C826.947 418.693 827.685 417.537 828.589 416.357C834.545 408.555 834.315 387.618 828.204 381.474C827.648 380.909 826.517 379.601 825.692 378.571C824.871 377.541 823.564 376.373 822.793 375.981C822.016 375.585 820.341 374.631 819.063 373.865C814.171 370.934 807.761 369.662 791.668 368.427C785.684 367.97 780.681 367.447 780.549 367.271C780.417 367.089 779.288 366.802 778.037 366.637C770.653 365.651 764.12 360.853 764.12 356.41C764.12 356.009 763.899 355.678 763.635 355.678C763.359 355.678 763.149 354.169 763.149 352.125C763.149 344.206 768.609 337.463 776.549 335.562C777.288 335.391 778.197 335.001 778.572 334.707C779.52 333.959 797.371 333.965 797.844 334.714C798.037 335.011 799.155 335.418 800.335 335.617C804.259 336.273 810.709 338.818 814.005 341.006L817.26 343.171L822.589 337.782C828.683 331.618 828.605 331.815 825.796 329.463C817.008 322.118 797.525 317.843 780.357 319.49ZM590.137 319.655C583.559 320.746 574.875 324.559 571.657 327.765C570.66 328.763 569.707 329.578 569.537 329.578C569.029 329.578 564.528 334.603 564.528 335.171C564.528 335.458 563.96 336.218 563.271 336.867C561.932 338.113 559.816 341.981 558.213 346.13C557.673 347.523 556.891 349.413 556.468 350.322C553.503 356.737 552.009 375.734 553.436 388.918C553.999 394.153 556.187 404.005 556.776 404.005C556.991 404.005 557.409 404.93 557.712 406.059C560.317 415.801 571.596 427.338 581.437 430.33C582.104 430.534 583.559 431.107 584.672 431.602C591.349 434.601 618.011 434.567 620.104 431.565C620.237 431.371 620.997 431.063 621.791 430.875C623.759 430.418 632.183 426.246 632.183 425.73C632.183 425.503 633.328 424.55 634.723 423.614C637.053 422.049 643.956 415.271 648.195 410.395L649.945 408.379L650.536 411.387C652.375 420.77 661.053 431.069 667.12 431.069C667.533 431.069 667.94 431.267 668.029 431.515C669.081 434.451 705.159 434.458 705.159 431.515C705.159 431.267 705.507 431.069 705.931 431.069C707.435 431.069 714.455 426.965 716.427 424.925C719.137 422.131 719.176 422.17 719.176 427.631C719.176 433.433 718.437 432.997 728.4 432.997H736.085V393.238C736.085 347.094 735.617 341.11 731.6 336.603C731.017 335.947 729.991 334.51 729.325 333.418C726.879 329.391 719.595 324.366 712.889 322.085C712.761 322.041 712.321 321.863 711.925 321.694C704.184 318.366 672.476 318.565 670.311 321.947C670.149 322.206 669.88 322.41 669.72 322.41C665.903 322.35 652.591 332.134 651.708 335.65C651.412 336.83 652.712 338.774 653.792 338.758C654.001 338.751 655.372 340.009 656.832 341.539C659.285 344.119 662.189 346.494 662.883 346.494C663.041 346.494 664.777 344.885 666.74 342.917C670.375 339.265 673.996 337.11 678.592 335.859C679.781 335.534 681.275 335.022 681.915 334.719C683.473 333.981 699.433 333.965 700.376 334.702C700.745 335.001 702.112 335.497 703.407 335.815C705.593 336.345 708.173 337.545 711.66 339.645C716.04 342.285 718.509 349.975 719.005 362.517L719.231 368.151L698.057 368.373C673.815 368.621 666.883 369.563 662.619 373.215C662.111 373.651 660.871 374.427 659.869 374.946C656.293 376.786 645.328 387.474 642.452 391.921C642.023 392.587 641.316 393.459 640.893 393.854C639.565 395.09 636.536 399.067 636.536 399.57C636.536 399.834 635.94 400.567 635.203 401.189C634.475 401.817 632.705 403.695 631.273 405.359C629.841 407.034 628.099 408.71 627.405 409.083C626.711 409.465 625.284 410.561 624.232 411.525C615.791 419.243 597.381 420.671 585.789 414.506C576.512 409.575 570.341 397.326 570.329 383.827V381.289H607.537H644.751L644.745 373.437C644.728 361.601 643.235 352.801 640.111 346.107C636.54 338.455 636.028 337.507 634.491 335.617C623.829 322.565 607.675 316.746 590.137 319.655ZM487.697 319.463C476.416 320.862 465.696 327.379 461.399 335.458C457.823 342.179 457.164 343.761 456.081 348.229C452.216 364.19 452.1 386.262 455.804 402.059C459.217 416.617 468.019 426.738 480.195 430.098C482.319 430.683 484.584 431.415 485.22 431.718C486.791 432.467 502.741 432.478 503.684 431.735C504.052 431.437 505.177 431.046 506.18 430.865C511.507 429.906 517.055 426.759 521.844 421.977L524.896 418.93V428.865C524.896 434.33 524.731 438.799 524.516 438.799C524.313 438.799 524.096 439.399 524.032 440.127C522.597 457.786 511.429 468.347 494.277 468.265C488.228 468.233 479.76 466.187 477.432 464.193C476.903 463.742 475.352 462.623 473.983 461.709C472.617 460.794 470.68 459.421 469.685 458.655L467.875 457.267L465.159 459.758C458.12 466.193 456.635 467.746 456.887 468.409C457.249 469.361 464.115 474.822 466.18 475.802C467.109 476.243 467.871 476.761 467.871 476.954C467.871 477.455 472.401 479.603 476.005 480.815C486.16 484.238 504.4 483.957 514.537 480.221C517.672 479.07 520.928 477.511 521.111 477.079C521.2 476.859 522.363 475.957 523.689 475.075C531.375 469.973 537.927 459.846 540.433 449.189L541.569 444.358L541.705 382.378L541.844 320.399H533.371H524.896V326.239C524.896 332.647 524.841 332.719 522.235 329.583C515.765 321.803 501.788 317.71 487.697 319.463ZM389.212 319.451C378.325 320.345 370.033 323.766 363.407 330.107C357.812 335.458 357.561 336.107 360.189 338.406C361.336 339.413 363.579 341.507 365.173 343.067C369.248 347.039 369.86 347.137 372.452 344.245C373.608 342.957 374.565 341.761 374.576 341.595C374.884 337.226 402.361 331.413 406.661 334.807C406.971 335.055 408.089 335.409 409.149 335.601C413.448 336.377 420.072 339.981 421.289 342.201C424.976 348.934 425.317 350.355 425.693 360.631L425.971 368.241H407.397C379.424 368.241 373.904 369.282 364.735 376.306C350.991 386.83 350.148 412.021 363.123 424.418C366.437 427.586 367.683 428.341 375.321 431.79C381.315 434.501 406.427 434.49 411.811 431.785C412.475 431.449 414.759 430.353 416.883 429.343C419.177 428.253 421.781 426.539 423.288 425.113L425.828 422.71V427.855V432.997H434.547H443.272L443.095 391.078C442.9 343.645 443.081 346.003 439.004 337.875C436.729 333.347 434.679 330.841 430.505 327.479C428.739 326.063 426.955 325.159 419.723 322.029C414.265 319.666 400.643 318.515 389.212 319.451ZM257.887 308.305C259.215 308.575 260.739 308.994 261.269 309.242C261.801 309.495 263.597 310.289 265.264 311.005C275.945 315.633 276.664 327.011 266.756 334.675C263.199 337.43 239.063 339.358 229.98 337.617L228.164 337.27V322.801V308.333L229.253 308.085C232.704 307.302 253.664 307.467 257.887 308.305ZM11.6493 279.434C11.6387 279.77 11.4293 281.478 11.1733 283.23C10.528 287.709 7.95338 313.335 7.24805 322.327C6.92538 326.449 6.51731 329.926 6.34131 330.058C5.77331 330.493 3.10405 370.677 1.53605 402.313C1.01072 412.941 0.448005 424.197 0.288005 427.321L0 432.997H18.1507H36.3053L36.3147 429.498C36.32 427.57 36.6307 417.078 37.016 406.175C37.3987 395.277 37.8454 382.23 38.0094 377.183C38.1734 372.131 38.4853 367.563 38.7027 367.034C38.9267 366.499 39.3587 360.665 39.6667 354.07C40.3333 339.749 40.372 339.595 42.1787 344.163C42.9453 346.107 44.3227 349.227 45.2373 351.083C46.152 352.945 47.9067 357.077 49.144 360.267C50.38 363.458 51.536 366.175 51.7133 366.306C51.8933 366.438 53.3253 369.81 54.904 373.799C56.48 377.783 57.9067 381.155 58.0693 381.289C58.2347 381.419 59.5053 384.466 60.8853 388.054C62.2707 391.639 63.816 395.393 64.328 396.39C65.1573 398.026 66.4933 401.303 69.8733 410.042L70.9987 412.941L84.4667 413.074L97.936 413.199L99.332 409.449C101.621 403.321 102.98 399.999 103.936 398.202C104.431 397.271 105.841 393.817 107.071 390.522C108.299 387.233 109.624 383.965 110.016 383.277C110.949 381.613 114.112 374.081 114.112 373.514C114.112 373.271 115.063 371.057 116.231 368.603C117.393 366.141 119.287 361.739 120.435 358.818C121.581 355.893 122.672 353.391 122.856 353.259C123.04 353.127 124.357 350.079 125.779 346.499L128.365 339.975L128.905 346.499C129.204 350.079 129.367 353.161 129.267 353.342C129.168 353.513 129.272 353.734 129.504 353.821C129.936 353.993 131.145 381.723 132.019 411.493C132.297 421.063 132.636 429.817 132.771 430.953L133.021 433.009L150.995 432.887L168.961 432.759L168.819 423.818C168.741 418.898 168.491 414.446 168.261 413.91C168.033 413.377 167.596 407.289 167.288 400.379C166.163 375.013 162.617 323.319 161.973 322.811C161.801 322.681 161.287 318.223 160.827 312.906C159.92 302.415 157.728 281.677 157.344 279.923L157.105 278.834H138.816H120.523L119.008 282.222C118.176 284.083 117.492 285.809 117.492 286.051C117.492 286.299 117.22 286.79 116.881 287.137C116.197 287.854 111.696 297.319 111.696 298.046C111.696 298.299 111.192 299.251 110.58 300.157C109.965 301.059 108.636 303.754 107.616 306.145C106.599 308.537 104.627 312.883 103.225 315.803C101.825 318.73 99.9547 322.855 99.0627 324.983C98.176 327.115 97.2987 328.962 97.1254 329.099C96.944 329.231 95.4334 332.707 93.7614 336.83C92.0947 340.945 90.596 344.427 90.4334 344.559C90.1534 344.797 86.8307 353.094 85.5467 356.769C84.6893 359.238 84.2027 358.885 82.6453 354.681C79.7667 346.89 78.3707 343.419 78.004 343.149C77.7974 342.995 76.668 340.477 75.5 337.551C74.332 334.631 72.4587 330.389 71.3374 328.13C70.216 325.87 69.136 323.473 68.9373 322.811C68.7387 322.145 67.4254 319.209 66.0147 316.29C62.4174 308.817 59.0173 301.191 59.0173 300.597C59.0173 300.322 58.8267 300.101 58.5947 300.101C58.364 300.101 57.044 297.434 55.668 294.178C54.288 290.922 52.7133 287.637 52.172 286.878C51.628 286.123 50.5933 284.057 49.8693 282.289L48.552 279.077L30.104 278.949C15.512 278.85 11.652 278.949 11.6493 279.434ZM211.009 278.375C204.629 278.553 197.505 278.734 195.183 278.767L190.955 278.834V355.865V432.893L201.464 433.305C231.311 434.473 270.111 433.553 273.997 431.581C274.441 431.361 277.595 430.501 281.009 429.674C286.328 428.397 292.595 426.17 293.405 425.283C293.924 424.715 297.759 422.367 298.165 422.367C300.42 422.367 310.056 409.994 312.417 404.071C316.4 394.077 315.563 369.227 311.089 364.725C310.767 364.401 309.753 362.719 308.841 360.99C306.616 356.786 300.849 351.013 297.097 349.243C293.919 347.739 293.976 347.231 297.607 344.983C301.313 342.697 306.828 333.981 308.133 328.355C310.351 318.79 308.4 304.194 304.337 299.958C304.028 299.638 302.748 297.919 301.488 296.145C300.232 294.365 298.496 292.414 297.635 291.814C296.772 291.202 295.519 290.145 294.857 289.457C293.069 287.594 282.628 282.509 278.181 281.335C265.799 278.067 248.652 277.313 211.009 278.375ZM810.623 169.539C808.424 170.431 803.3 175.457 798.589 181.331C797.149 183.129 795.761 184.594 795.503 184.594C795.249 184.594 794.66 185.211 794.197 185.969C793.735 186.723 791.696 189.17 789.663 191.405C787.624 193.641 782.989 198.839 779.355 202.961C775.717 207.077 771.188 212.157 769.281 214.245C767.371 216.33 765.728 218.286 765.629 218.593C765.525 218.898 764.439 220.141 763.209 221.35C761.983 222.562 759.244 225.583 757.111 228.071C754.983 230.559 752.377 233.486 751.315 234.571C750.247 235.659 749.039 237.037 748.62 237.631C748.207 238.223 746.432 240.295 744.681 242.221C739.964 247.411 733.104 255.17 731.6 257.003C728.669 260.595 731.7 269.219 737.612 274.089C738.768 275.037 740.339 276.403 741.105 277.121C745.2 280.943 756.417 283.429 760.984 281.522C763.524 280.459 764.185 279.561 767.227 273.037C768.78 269.715 770.203 266.882 770.384 266.75C770.565 266.618 771.971 263.902 773.503 260.711C775.035 257.522 776.549 254.585 776.873 254.189C777.2 253.786 778.737 250.745 780.279 247.419C781.833 244.097 783.244 241.273 783.415 241.138C783.591 241.006 785.007 238.287 786.555 235.097C788.115 231.907 789.635 228.97 789.949 228.574C790.259 228.174 791.679 225.347 793.107 222.293C794.528 219.237 795.856 216.622 796.048 216.487C796.247 216.358 797.856 213.311 799.619 209.727C801.381 206.137 803.205 202.549 803.673 201.751C804.132 200.953 805.453 198.234 806.611 195.71C807.767 193.187 808.88 191.014 809.085 190.875C809.465 190.63 813.889 181.718 815.52 177.914C818.463 171.059 816.236 167.261 810.623 169.539ZM945.104 113.571C941.92 114.595 938.967 115.637 938.553 115.89C938.14 116.141 933.959 117.559 929.269 119.042C924.581 120.523 920.349 121.954 919.875 122.215C919.401 122.486 915.097 123.929 910.311 125.435C905.528 126.938 901.34 128.386 901.009 128.65C900.679 128.921 900.409 128.973 900.409 128.774C900.409 128.578 900.133 128.639 899.797 128.913C899.467 129.183 895.175 130.654 890.255 132.182C885.34 133.709 881.241 135.143 881.152 135.37C881.064 135.599 880.745 135.783 880.441 135.783C879.588 135.783 862.981 141.225 862.705 141.593C862.573 141.775 858.336 143.183 853.284 144.719C848.237 146.259 843.967 147.722 843.808 147.975C843.643 148.227 843.316 148.441 843.08 148.453C842.591 148.475 842.927 148.367 837.576 150.21C831.344 152.362 831.057 152.502 828.931 154.461C825.509 157.605 826.248 161.217 830.739 163.251C832.739 164.161 862.756 164.194 928.833 163.357L962.327 162.935L964.108 161.69C973.099 155.403 973.264 130.37 964.393 118.717C958.527 111.014 955.556 110.223 945.104 113.571Z" fill="#141CD4"/>
<path d="M824.683 169.133C821.372 170.467 821.851 176.807 825.977 186.167C827.112 188.757 828.209 190.875 828.408 190.875C828.605 190.875 829.267 192.129 829.877 193.657C831.68 198.132 834.705 204.608 835.129 204.884C835.344 205.023 836.667 207.815 838.072 211.091C839.471 214.369 840.865 217.305 841.173 217.617C841.477 217.928 842.987 221.055 844.535 224.561C846.077 228.069 847.499 231.005 847.692 231.088C847.884 231.165 848.865 233.189 849.875 235.579C850.887 237.973 852.751 241.995 854.023 244.524C857.432 251.291 862.855 262.541 864.959 267.235C865.973 269.495 867.031 271.583 867.307 271.875C867.588 272.165 868.22 273.368 868.716 274.536C871.212 280.397 873.577 285.417 874.077 285.919C874.385 286.227 874.921 287.215 875.263 288.096C876.596 291.545 879.829 298.437 880.365 298.972C880.667 299.28 881.197 300.256 881.533 301.148C882.937 304.856 886.612 312.663 886.955 312.663C887.153 312.663 887.577 313.528 887.891 314.581C889.025 318.367 891.583 319.92 897.264 320.277C903.395 320.659 914.019 317.969 916.613 315.369C917.06 314.928 918.305 314.112 919.384 313.561C929.401 308.453 936.427 292.884 931.248 287.28C930.267 286.221 928.773 284.392 927.92 283.219C927.071 282.04 925.737 280.548 924.967 279.896C924.195 279.247 923.269 278.139 922.9 277.423C922.531 276.712 921.285 275.163 920.14 273.98C918.988 272.795 917.319 270.849 916.427 269.655C915.535 268.452 914.177 266.823 913.419 266.029C912.657 265.229 909.407 261.423 906.189 257.571C902.977 253.719 899.329 249.405 898.084 247.991C896.833 246.571 895.616 245.055 895.368 244.62C895.12 244.183 893.759 242.639 892.348 241.188C890.933 239.736 889.775 238.307 889.775 238.007C889.775 237.708 888.767 236.507 887.544 235.339C886.316 234.171 884.817 232.444 884.211 231.499C883.604 230.553 882.271 228.912 881.247 227.849C880.227 226.785 879.047 225.431 878.629 224.835C878.211 224.24 876.872 222.609 875.648 221.207C874.425 219.811 872.513 217.579 871.4 216.248C870.281 214.923 868.255 212.543 866.887 210.967C865.521 209.388 863.655 207.107 862.739 205.892C861.824 204.68 860.811 203.523 860.491 203.325C860.165 203.127 858.771 201.44 857.395 199.577C856.017 197.717 854.705 196.192 854.489 196.192C854.269 196.192 853.092 194.791 851.868 193.075C850.645 191.355 849.223 189.661 848.716 189.305C848.211 188.949 846.837 187.365 845.657 185.781C844.489 184.197 842.992 182.36 842.341 181.693C841.692 181.029 839.823 178.853 838.193 176.864C833.003 170.52 828.143 167.737 824.683 169.133ZM775.96 0.69464C769.381 1.90931 763.971 4.1653 760.263 7.24263C759.061 8.23463 757.601 9.29597 757.012 9.59597C754.857 10.7026 751.144 17.4106 751.095 20.2986C751.061 22.284 756.136 34.8986 757.309 35.744C757.491 35.8773 758.097 37.0733 758.659 38.404C760.583 42.984 763.38 49.0346 763.689 49.2773C764.099 49.6026 767.343 56.6333 768.544 59.7866C769.073 61.184 769.763 62.6 770.076 62.928C770.627 63.5173 773.276 69.0733 775.056 73.3906C775.536 74.5613 776.153 75.7533 776.429 76.0493C776.704 76.344 777.552 77.9946 778.307 79.724C779.068 81.4506 780.952 85.476 782.5 88.6653C787.404 98.796 791.488 107.372 793.652 112.103C794.804 114.625 795.873 116.801 796.021 116.935C796.175 117.069 796.919 118.589 797.679 120.32C798.433 122.048 800.743 126.94 802.797 131.193C804.853 135.444 807.045 140.12 807.663 141.581C808.285 143.045 808.975 144.459 809.207 144.725C809.432 144.991 810.457 146.555 811.488 148.203C817.587 157.96 825.057 153.511 823.592 140.997C822.804 134.255 822.463 132.169 822.115 131.915C821.929 131.785 821.184 127.868 820.463 123.217C816.871 100.16 816.231 96.3226 815.833 95.4293C815.597 94.8973 814.969 91.636 814.429 88.1813C810.88 65.3186 809.443 56.6466 809.057 55.8026C808.821 55.2693 807.404 47.0066 805.923 37.436C804.44 27.8666 803.031 19.604 802.781 19.0733C802.54 18.54 801.9 15.392 801.365 12.0693C800.231 5.09065 799.701 4.13464 795.993 2.31197C791.299 -0.00269681 783.249 -0.652027 775.96 0.69464Z" fill="#D81B4D"/>
<path d="M793.602 168.189C791.607 168.949 787.364 170.497 784.175 171.63C780.984 172.762 778.268 173.842 778.13 174.031C777.994 174.222 775.92 175.03 773.535 175.826C767.92 177.705 762.56 179.741 761.948 180.227C761.679 180.439 759.827 181.17 757.839 181.85C751.039 184.167 744.978 186.402 744.036 186.937C743.518 187.229 742.279 187.793 741.282 188.185C739 189.079 738.339 190.663 738.647 194.501C739.055 199.63 740.94 202.782 745.799 206.462C747.254 207.562 749.672 207.539 751.127 206.415C751.76 205.922 754.13 204.262 756.388 202.717C758.647 201.173 760.604 199.757 760.74 199.573C760.868 199.387 762.879 197.991 765.204 196.462C767.535 194.937 769.436 193.526 769.436 193.325C769.436 193.126 769.976 192.718 770.636 192.418C771.298 192.115 774.191 190.154 777.062 188.054C779.938 185.955 782.935 183.903 783.718 183.498C784.5 183.09 786.152 181.867 787.392 180.775C788.627 179.687 789.79 178.795 789.976 178.795C791.784 178.795 800.848 170.969 800.848 169.41C800.848 166.569 798.775 166.217 793.602 168.189ZM895.572 46.1475C894.906 46.5355 893.758 47.6675 893.019 48.6688C889.958 52.8062 885.659 58.9555 883.135 62.8088C881.659 65.0648 880.271 66.9848 880.056 67.0715C879.835 67.1568 879.175 68.0262 878.579 69.0048C877.99 69.9835 876.618 71.9608 875.543 73.4048C873.4 76.2675 868.766 82.8488 864.116 89.6315C862.474 92.0222 860.986 94.0902 860.815 94.2235C860.16 94.7182 854.975 102.43 854.975 102.903C854.975 103.179 854.778 103.402 854.535 103.402C854.292 103.402 852.743 105.415 851.091 107.877C849.443 110.334 847.786 112.67 847.41 113.069C846.644 113.887 841.13 121.719 837.714 126.843C836.474 128.701 835.195 130.443 834.876 130.709C831.174 133.75 828.336 142.491 830.386 144.541C832.032 146.186 840.479 143.715 840.479 141.59C840.479 141.373 841.119 140.791 841.902 140.295C842.678 139.799 844.583 138.279 846.127 136.921C847.675 135.557 851.438 132.337 854.49 129.763C857.548 127.19 861.346 123.962 862.931 122.582C864.514 121.205 866.578 119.505 867.52 118.805C868.463 118.105 870.018 116.797 870.97 115.905C871.928 115.011 873.83 113.411 875.196 112.355C876.568 111.295 877.691 110.27 877.691 110.075C877.691 109.882 878.463 109.198 879.4 108.559C880.343 107.917 882.876 105.898 885.026 104.071C887.18 102.243 891.466 98.6235 894.552 96.0275C897.636 93.4301 900.707 90.7968 901.372 90.1675C902.04 89.5395 903.886 87.9915 905.478 86.7181C907.071 85.4541 908.922 83.8755 909.588 83.2168C910.255 82.5555 911.555 81.4541 912.486 80.7715C913.418 80.0821 915.423 78.4261 916.944 77.0848C918.464 75.7461 920.53 73.9582 921.534 73.1155L923.363 71.5808L923.347 67.7982C923.296 55.1702 904.834 40.7808 895.572 46.1475Z" fill="#EC84AC"/>
<path d="M844.225 171.34C842.82 172.762 845.365 178.795 847.365 178.795C847.643 178.795 848.573 179.518 849.427 180.398C850.287 181.28 852.155 182.779 853.587 183.731C855.013 184.679 856.739 185.972 857.417 186.596C858.099 187.226 860.271 188.975 862.248 190.49C864.232 192.004 867.919 194.896 870.441 196.911C872.965 198.928 876.424 201.603 878.128 202.856C879.829 204.107 882 205.868 882.96 206.766C883.919 207.663 885.499 208.911 886.48 209.532C887.461 210.154 889.34 211.595 890.668 212.732C891.989 213.87 894.117 215.559 895.395 216.494C896.673 217.422 898.056 218.507 898.471 218.906C904.381 224.56 909.224 225.179 914.112 220.903C915.081 220.063 918.288 215.264 918.288 214.662C918.288 214.466 918.745 213.443 919.308 212.394C920.559 210.058 920.801 204.003 919.693 202.667C919.021 201.848 907.639 196.192 906.668 196.192C906.393 196.192 903.891 195.112 901.108 193.79C898.327 192.468 893.715 190.462 890.861 189.33C888.001 188.2 885.555 187.14 885.421 186.975C885.087 186.544 882.607 185.446 876.723 183.107C873.933 181.996 870.783 180.611 869.72 180.024C868.651 179.434 866.017 178.274 863.857 177.443C861.692 176.611 857.78 174.896 855.157 173.642C850.491 171.407 845.245 170.302 844.225 171.34ZM689.924 119.29C685.913 121.111 681.053 128.566 680.155 134.279C680.001 135.24 679.677 136.158 679.428 136.326C678.756 136.763 678.745 147.07 679.407 148.428C679.709 149.048 680.315 150.687 680.752 152.07C682.976 159.142 681.428 158.767 712.405 159.764C726.895 160.227 738.857 160.746 738.989 160.914C739.573 161.643 806.869 163.459 809.729 162.819C816.011 161.412 815.283 155.442 808.507 152.811C805.756 151.744 797.332 149.318 796.357 149.312C796.037 149.31 795.2 149.008 794.5 148.646C793.801 148.279 790.753 147.279 787.735 146.423C784.715 145.566 781.265 144.588 780.064 144.25C778.873 143.91 776.483 143.24 774.753 142.764C773.024 142.287 771.387 141.728 771.111 141.524C770.829 141.32 768.113 140.47 765.067 139.631C762.02 138.794 758.439 137.806 757.111 137.431C755.783 137.056 753.661 136.496 752.4 136.186C751.139 135.871 750.103 135.46 750.103 135.271C750.103 135.08 749.507 134.783 748.775 134.612C744.488 133.61 732.256 130.116 725.215 127.884C722.289 126.956 716.961 125.395 713.373 124.411C709.788 123.424 706.631 122.452 706.371 122.246C705.799 121.794 693.528 118.38 692.547 118.396C692.172 118.402 690.993 118.804 689.924 119.29Z" fill="#4AC9F4"/>
</svg>
