<svg width="461" height="146" viewBox="0 0 461 146" fill="none" xmlns="http://www.w3.org/2000/svg">
<path fill-rule="evenodd" clip-rule="evenodd" d="M46.5865 145.733C47.4822 145.389 52.0415 145.003 53.881 144.524C59.5491 143.048 66.3319 139.055 69.6911 134.994C75.7954 127.614 78.2042 121.809 78.2042 109.319C75.4843 109.319 63.7157 109.721 62.2145 109.15L62.2289 55.9187L77.6369 54.0611L78.4603 53.5648C78.4603 46.0519 79.0701 35.3553 78.0998 28.2431C77.2589 22.0764 74.0629 15.1028 70.0906 10.9124C62.1287 2.51281 54.4601 0.23601 42.5495 0.238277L30.1414 0.395483C27.3646 0.0916165 20.9277 2.12508 18.8595 3.25508C9.89261 8.15682 2.84874 15.0121 0.607809 26.4675C-0.233924 30.7704 0.0439427 35.4653 0.0439427 39.9936V109.386C0.0439427 114.684 0.019276 117.145 1.26394 122C3.67674 131.409 11.5483 139.941 21.1442 143.592C29.0151 146.587 37.6585 145.592 46.5865 145.733Z" fill="#141ED2"/>
<path fill-rule="evenodd" clip-rule="evenodd" d="M345.856 67.3521C354.191 66.03 361.192 72.7001 361.998 80.0374C364.188 99.957 336.008 103.134 333.258 83.9847C332.587 79.3151 334.221 75.5593 336.349 72.6151C338.162 70.1067 341.317 68.0721 345.856 67.3521ZM318.268 90.1801C319.256 92.4467 319.663 94.2721 320.927 96.538C324.154 102.326 328.331 106.364 335.281 109.081C342.237 111.801 350.707 111.075 357.022 106.859C359.906 104.934 360.49 103.416 361.843 102.611L361.983 109.259H376.835C377.153 106.349 376.899 101.957 376.899 98.8873C376.899 91.5139 376.564 28.5828 377.058 26.3688L360.447 28.344V59.8392C359.116 59.2379 359.873 59.6071 358.744 58.4661C349.723 49.3464 326.626 51.7604 319.232 71.1219C316.549 78.1484 317.033 82.8255 318.268 90.1801Z" fill="#0A73F0"/>
<path fill-rule="evenodd" clip-rule="evenodd" d="M267.598 80.2441C267.205 72.6249 275.956 62.5173 287.413 66.2939C289.995 67.1451 293.065 69.6576 293.656 71.7451L267.598 80.2441ZM276.588 54.0407C272.184 55.4399 268.222 56.0925 264.09 59.5028C262.678 60.6676 260.66 62.2743 259.456 63.8319C258.189 65.4711 257.028 67.161 255.944 69.2872C251.248 78.5104 252.326 90.0549 257.533 97.9681C262.037 104.813 269.337 109.873 280.674 110.96C287.739 111.637 296.637 109.077 302.53 105.621C304.194 104.645 306.559 103.042 307.719 101.906C307.28 99.1704 303.598 92.3027 303.563 90.2387C302.295 90.2632 303.353 90.0021 302.404 90.6491L299.853 92.7067C293.412 97.3155 284.296 100.514 276.593 97.6027C273.88 96.5769 270.793 94.1135 269.933 92.1821L309.487 79.4821C308.458 66.8884 300.904 57.4199 289.894 54.5917C284.628 53.2389 281.959 53.7115 276.588 54.0407Z" fill="#0A73F0"/>
<path fill-rule="evenodd" clip-rule="evenodd" d="M62.2144 109.15C63.7156 109.721 75.4843 109.319 78.2042 109.319C78.2042 121.809 75.7954 127.614 69.6911 134.994C66.3319 139.055 59.5491 143.048 53.881 144.524C52.0415 145.003 47.4822 145.389 46.5864 145.733L80.6298 145.707C84.1618 144.547 85.7828 145.948 94.0211 142.164C97.3539 140.633 101.973 136.869 103.605 134.851C109.737 127.265 112.004 121.965 112.004 109.291L95.554 109.191C95.3 100.86 95.5322 92.1527 95.5322 83.7799C95.5322 80.0427 96.1576 75.2336 94.8382 72.2077C93.6756 69.5408 91.1022 67.3072 87.1843 67.5079C77.2282 68.0181 78.2238 78.0501 78.2238 83.7799C78.2238 92.2361 78.2238 100.693 78.2238 109.15H62.2144Z" fill="#0A73F0"/>
<path fill-rule="evenodd" clip-rule="evenodd" d="M95.554 109.191L112.004 109.291C112.004 121.965 109.737 127.265 103.605 134.851C101.973 136.869 97.3539 140.633 94.0211 142.164C85.7828 145.948 84.1618 144.547 80.6298 145.707C88.7622 145.662 96.8954 145.682 105.028 145.682C113.368 145.682 118.927 146 126.15 142.803C132.304 140.08 136.352 136.227 139.509 131.83C143.348 126.483 144.796 121.702 145.504 113.993L145.421 109.259H129.352C129.352 100.851 129.352 92.4436 129.352 84.0357C129.352 80.5075 129.732 75.4668 128.459 72.3872C125.718 65.7599 116.242 65.9231 113.057 72.6109C111.61 75.6481 112.007 80.4697 112.007 84.0357C112.007 92.4209 112.007 100.806 112.006 109.191H95.554Z" fill="#00B4FA"/>
<path fill-rule="evenodd" clip-rule="evenodd" d="M112.017 57.7445C117.992 53.5969 126.269 52.0896 134.161 55.1571C140.314 57.5484 143.587 62.7876 144.825 68.8091L145.23 70.9635C145.47 71.5935 145.136 71.0451 145.549 71.4877C145.549 62.4411 145.549 53.394 145.549 44.3469C145.549 35.6392 146.249 27.24 142.76 19.7565C140.705 14.0657 135.675 8.98412 131.572 6.02586C122.743 -0.340011 113.651 0.177854 102.979 0.177854C96.4408 0.177854 89.8497 0.0958561 83.3179 0.183856C83.9676 0.708389 84.4173 0.56907 85.6237 0.791604C92.5596 2.07067 99.9551 6.34719 104.227 11.6075C110.386 19.1915 112.006 26.0249 112.005 36.1529C112.003 43.3249 111.895 50.5835 112.017 57.7445Z" fill="#00B4FA"/>
<path fill-rule="evenodd" clip-rule="evenodd" d="M77.6368 54.0611C78.1908 54.1899 77.9203 54.03 78.2238 54.3332V59.7103C79.1222 59.5625 79.2303 59.1827 79.8179 58.5723C83.0316 55.2353 89.2294 53.3671 94.0271 53.6385C98.8694 53.9129 102.594 55.3736 105.677 58.5527L108.101 61.4077C108.983 61.0894 109.297 60.1676 109.974 59.5409C110.77 58.8055 111.509 58.6464 112.017 57.7445C111.895 50.5834 112.003 43.3249 112.004 36.1529C112.005 26.0249 110.386 19.1915 104.227 11.6075C99.955 6.34718 92.5595 2.07066 85.6236 0.791594C84.4172 0.56906 83.9675 0.70838 83.3178 0.183846C77.752 0.206513 31.2964 -0.362678 30.1414 0.395455L42.5495 0.238249C54.46 0.235982 62.1287 2.51278 70.0906 10.9124C74.0628 15.1028 77.2588 22.0764 78.0998 28.2431C79.07 35.3553 78.4603 46.0519 78.4603 53.5648L77.6368 54.0611Z" fill="#0A73F0"/>
<path fill-rule="evenodd" clip-rule="evenodd" d="M460.279 95.0716C458.2 94.9725 447.125 99.6965 446.324 89.6797L446.35 68.4104C448.796 68.2872 458.59 68.8593 459.893 68.1477C460.473 67.17 460.268 57.3133 460.07 55.4508C457.302 54.7879 447.026 55.9081 446.182 54.9821C445.546 54.2844 445.931 43.7936 445.932 41.2741C445.932 40.4884 445.944 39.7363 445.965 38.9535C446.033 36.4193 445.933 36.9873 445.075 37.0985C444.078 38.1144 431.363 43.8299 429.803 45.1784C429.795 57.7253 431.31 55.2353 423.261 55.3208C422.884 57.1285 421.038 67.1363 421.521 68.1685C423.268 69.0332 427.38 68.0577 429.643 68.4984C430.26 70.9929 429.804 83.5871 429.804 87.1084C429.804 93.1463 429.854 98.1863 432.826 102.685C435.116 106.152 438.721 108.943 444.197 110.012C448.447 110.841 457.002 110.299 460.118 108.359C460.178 105.277 459.737 97.4949 460.279 95.0716Z" fill="#0A73F0"/>
<path fill-rule="evenodd" clip-rule="evenodd" d="M175.887 108.973C178.072 108.998 179.447 111.025 189.793 110.613C192.019 110.524 194.386 110.083 196.501 109.442C198.656 108.789 200.272 107.934 202.06 107.344C201.901 104.508 199.99 95.3697 200.337 93.6471C199.179 93.6705 197.688 94.6959 196.361 95.2179C174.273 103.904 165.421 76.1687 181.783 68.6032C184.819 67.1991 187.774 67.0475 191.264 67.4576C194.657 67.8563 196.81 69.3008 199.553 70.2416L201.722 56.4685C199.291 54.8676 193.236 53.5024 189.793 53.3233C185.129 53.0803 180.589 53.6797 176.577 55.2055C159.887 61.552 153.605 79.3245 160.337 94.2809C162.579 99.2631 166.751 103.814 171.013 106.393C171.888 106.923 175.483 108.587 175.887 108.973Z" fill="#0A73F0"/>
<path fill-rule="evenodd" clip-rule="evenodd" d="M214.924 109.223L230.922 109.272C231.431 107.186 231.066 97.6428 231.066 94.7904C231.066 84.0251 229.101 72.5557 241.169 69.0983C242.883 68.6073 247.215 68.3635 247.414 68.1337C248.222 65.9181 246.892 57.0056 247.733 54.0977C244.576 53.3256 239.13 54.9319 236.738 56.2157C232.011 58.7515 231.893 61.0728 230.287 62.4429L230.219 53.8831L215.256 55.9141L214.885 57.3844C214.873 57.9513 214.908 58.6147 214.909 59.1977C214.952 75.4623 214.58 93.4683 214.924 109.223Z" fill="#0A73F0"/>
<path fill-rule="evenodd" clip-rule="evenodd" d="M393.591 56.1863C394.127 57.0865 393.802 81.6063 393.802 82.4997C393.802 91.3529 393.802 100.206 393.802 109.059H409.959V54.0485L408.838 54.1903C406.954 54.0005 403.012 54.7149 400.957 54.9673C399.624 55.1311 398.369 55.2819 397.027 55.4424C395.724 55.5985 394.28 55.5592 393.591 56.1863Z" fill="#0A73F0"/>
<path fill-rule="evenodd" clip-rule="evenodd" d="M403.591 26.3832L400.009 26.4271C396.942 27.5107 396.047 27.8742 394.269 29.9064C392.759 31.6315 391.721 33.903 392.018 36.9296C392.486 41.6854 396.837 45.7011 402.057 45.6164C407.169 45.5336 411.467 41.5568 411.829 36.6767C412.252 31.0034 408.614 27.7623 403.591 26.3832Z" fill="#0A73F0"/>
<path fill-rule="evenodd" clip-rule="evenodd" d="M393.591 56.1863L393.638 109.351H410.232L410.309 53.7622C409.484 53.8695 409.351 53.7546 408.838 54.1903L409.959 54.0486V109.059H393.802C393.802 100.206 393.802 91.353 393.802 82.4998C393.802 81.6063 394.127 57.0866 393.591 56.1863Z" fill="#5AA1F5"/>
</svg>
