<svg width="341" height="208" viewBox="0 0 341 208" fill="none" xmlns="http://www.w3.org/2000/svg">
<path d="M53.3533 86.7374C53.3533 90.1707 54.6027 93.2921 56.6307 95.7881L85.4987 130.275C87.996 133.395 91.8973 135.267 96.2653 135.267C104.068 135.111 110.309 128.868 110.309 121.065C110.309 117.633 109.061 114.513 107.033 112.017L78.1653 77.6867C75.668 74.5667 71.7667 72.6947 67.3987 72.6947C59.752 72.6947 53.3533 78.9361 53.3533 86.7374Z" fill="url(#paint0_radial_1_106)"/>
<path d="M95.4853 75.5027C92.832 77.5307 90.96 80.496 90.336 83.616L82.8466 117.009L82.6893 117.945C81.7533 121.847 82.5333 126.217 85.1853 129.649C89.868 135.736 98.7613 136.983 104.848 132.147C107.501 130.119 109.375 127.152 109.997 124.032L117.644 89.8587C118.579 85.9573 117.8 81.588 115.147 78.1547C112.408 74.5027 108.277 72.6133 104.072 72.6133C101.092 72.6133 98.0746 73.5613 95.4853 75.5027Z" fill="url(#paint1_radial_1_106)"/>
<path d="M89.868 86.7374C89.868 90.1707 91.116 93.2921 93.144 95.7881L122.013 130.275C124.509 133.395 128.409 135.267 132.78 135.267C140.739 135.111 146.981 128.868 146.981 121.065C146.981 117.633 145.732 114.513 143.704 112.017L114.677 77.6867C112.183 74.5667 108.281 72.6947 103.913 72.6947C96.2653 72.6947 89.868 78.9361 89.868 86.7374Z" fill="url(#paint2_radial_1_106)"/>
<path d="M39.7773 121.065C39.7773 128.824 46.0653 135.111 53.8213 135.111C61.5787 135.111 67.8667 128.824 67.8667 121.065C67.8667 113.311 61.5787 107.024 53.8213 107.024C46.0653 107.024 39.7773 113.311 39.7773 121.065Z" fill="url(#paint3_radial_1_106)"/>
<mask id="mask0_1_106" style="mask-type:luminance" maskUnits="userSpaceOnUse" x="0" y="0" width="341" height="208">
<path d="M0 -6.19531e-06H340.16V207.88H0V-6.19531e-06Z" fill="white"/>
</mask>
<g mask="url(#mask0_1_106)">
<path d="M284.298 118.882H270.254V107.646H284.142C286.326 107.646 289.761 109.206 289.761 113.42C289.761 115.761 287.887 118.882 284.298 118.882ZM270.254 88.9225H284.142C286.795 88.9225 288.511 91.2638 288.511 93.2918C288.511 95.9438 286.17 97.6598 284.142 97.6598H270.254V88.9225ZM296.158 102.81L295.846 102.498L296.158 102.186C298.342 99.5331 299.435 96.2571 299.279 92.8238C298.967 85.0211 291.943 79.0918 283.363 79.0918H264.949C261.829 79.0918 259.489 81.5878 259.489 84.5531V123.564C259.489 126.685 261.985 129.024 264.949 129.024H283.207C287.731 129.024 291.943 127.465 295.222 124.5C298.498 121.534 300.371 117.633 300.371 113.42C300.527 109.362 298.967 105.618 296.158 102.81Z" fill="white"/>
<path d="M237.329 98.9092C233.116 97.8172 228.124 96.4132 227.811 92.9799C227.655 90.6385 229.527 88.6105 232.648 88.1425C238.889 87.3625 244.352 90.9505 247.316 91.7319C250.281 92.5119 252.621 90.0145 252.933 87.5185C253.403 83.7732 249.657 81.7439 248.252 80.8079C245.912 79.4039 241.699 77.6865 235.457 77.6865C224.377 77.6865 216.732 84.0852 216.732 93.1359C216.732 98.1292 218.604 101.717 222.193 104.372C229.215 109.676 242.947 109.052 242.947 114.513C242.947 119.351 233.897 122.471 223.911 115.917C222.972 115.293 222.037 114.825 220.789 114.825C218.136 114.825 215.796 117.009 215.796 119.819C215.796 120.755 215.952 121.535 216.42 122.316C216.42 122.471 216.576 122.471 216.576 122.628C217.512 124.032 218.76 125.28 220.476 126.217C222.972 127.933 227.655 129.963 234.677 129.963C240.451 129.963 245.288 128.557 248.72 125.748C252.153 122.939 254.025 118.883 254.025 114.045C254.339 104.683 246.069 101.249 237.329 98.9092Z" fill="white"/>
<path d="M205.184 78.9359H201.752C199.878 78.9359 198.006 80.0279 197.226 81.7439L185.678 105.775L174.132 81.7439C173.196 80.0279 171.48 78.9359 169.45 78.9359H166.017C163.053 78.9359 160.556 81.4332 160.556 84.3972V124.032C160.556 127.933 164.769 130.897 168.826 128.557C170.386 127.777 171.322 126.061 171.322 124.345V100.781L180.997 119.351C181.934 121.223 183.806 122.16 185.678 122.16C187.55 122.16 189.424 121.223 190.361 119.351L200.036 100.781V124.345C200.036 126.061 200.972 127.777 202.533 128.557C206.59 130.741 210.802 127.777 210.802 124.032V84.3972C210.802 81.4332 208.306 78.9359 205.184 78.9359Z" fill="white"/>
</g>
<defs>
<radialGradient id="paint0_radial_1_106" cx="0" cy="0" r="1" gradientUnits="userSpaceOnUse" gradientTransform="translate(88.3622 91.0046) scale(29.8546 29.8546)">
<stop stop-color="#6F0000"/>
<stop offset="0.0184049" stop-color="#6F0000"/>
<stop offset="0.3252" stop-color="#910D11"/>
<stop offset="0.4457" stop-color="#A61519"/>
<stop offset="0.5938" stop-color="#BC1B20"/>
<stop offset="0.7384" stop-color="#CB1E24"/>
<stop offset="0.8762" stop-color="#D52027"/>
<stop offset="1" stop-color="#DA2128"/>
</radialGradient>
<radialGradient id="paint1_radial_1_106" cx="0" cy="0" r="1" gradientUnits="userSpaceOnUse" gradientTransform="translate(111.05 108.989) scale(26.6165 26.6165)">
<stop stop-color="#6F0000"/>
<stop offset="0.0368098" stop-color="#6F0000"/>
<stop offset="0.3006" stop-color="#910D11"/>
<stop offset="0.4172" stop-color="#A01317"/>
<stop offset="0.6776" stop-color="#BE1B21"/>
<stop offset="0.8806" stop-color="#D11F26"/>
<stop offset="1" stop-color="#DA2128"/>
</radialGradient>
<radialGradient id="paint2_radial_1_106" cx="0" cy="0" r="1" gradientUnits="userSpaceOnUse" gradientTransform="translate(97.7539 78.6826) scale(53.7348)">
<stop stop-color="#DA2128"/>
<stop offset="0.3558" stop-color="#DA2128"/>
<stop offset="1" stop-color="#F37021"/>
</radialGradient>
<radialGradient id="paint3_radial_1_106" cx="0" cy="0" r="1" gradientUnits="userSpaceOnUse" gradientTransform="translate(46.7245 126.473) scale(27.8807 27.8807)">
<stop stop-color="#DA2128"/>
<stop offset="0.3129" stop-color="#DA2128"/>
<stop offset="0.7914" stop-color="#910D11"/>
<stop offset="1" stop-color="#6F0000"/>
</radialGradient>
</defs>
</svg>
