<?xml version="1.0" standalone="no"?>
<!DOCTYPE svg PUBLIC "-//W3C//DTD SVG 20010904//EN"
 "http://www.w3.org/TR/2001/REC-SVG-20010904/DTD/svg10.dtd">
<svg version="1.0" xmlns="http://www.w3.org/2000/svg"
 width="512.000000pt" height="512.000000pt" viewBox="0 0 512.000000 512.000000"
 preserveAspectRatio="xMidYMid meet">

<g transform="translate(0.000000,512.000000) scale(0.100000,-0.100000)"
fill="#000000" stroke="none">
<path d="M1675 5106 c-16 -8 -166 -151 -332 -317 -251 -254 -303 -311 -312
-344 -7 -27 -11 -357 -11 -1052 l0 -1012 -138 -120 c-162 -139 -187 -167 -196
-215 -11 -60 10 -110 82 -195 317 -376 333 -391 410 -391 36 0 45 -5 77 -44
l36 -45 -15 -52 c-20 -66 -20 -92 -1 -158 21 -69 82 -133 152 -157 48 -17 51
-21 57 -58 15 -94 92 -183 177 -206 35 -10 38 -14 48 -61 6 -27 17 -62 25 -78
20 -38 84 -94 126 -110 59 -22 65 -27 70 -67 19 -134 166 -237 296 -207 l45
10 75 -88 c94 -110 138 -134 239 -134 78 1 118 17 173 69 38 35 72 95 72 126
0 14 7 20 23 20 40 0 111 29 150 61 36 29 87 113 87 142 0 8 22 17 55 24 96
21 179 97 200 186 4 15 13 27 19 27 39 0 122 36 157 67 61 55 83 105 84 188 0
57 -5 80 -26 121 l-26 50 134 115 c131 111 136 114 177 111 24 -2 59 3 79 12
47 19 442 357 468 400 29 47 34 91 15 139 -10 25 -77 113 -171 222 l-154 180
-3 1365 c-3 1527 3 1397 -75 1457 l-36 28 -1141 2 c-945 2 -1146 0 -1171 -11z
m2253 -1394 c1 -702 -2 -1232 -7 -1230 -4 1 -95 104 -200 228 -106 124 -206
235 -223 247 -16 11 -45 24 -64 27 -70 14 -101 -5 -328 -199 -118 -101 -223
-196 -232 -210 -21 -32 -29 -105 -16 -143 l10 -29 -51 -7 c-29 -3 -75 -6 -103
-6 -74 0 -143 -24 -198 -70 -29 -24 -55 -39 -64 -35 -9 3 -53 15 -99 27 -78
19 -84 23 -78 42 18 53 17 113 -4 152 -30 57 -360 435 -400 458 -42 24 -114
26 -156 3 -16 -9 -138 -108 -269 -221 -132 -113 -243 -206 -248 -206 -4 0 -8
407 -8 905 l0 905 223 0 c122 0 238 4 256 10 39 11 86 51 107 92 11 21 14 79
14 263 l0 235 1068 -2 1067 -3 3 -1233z m-2308 958 l0 -150 -152 0 -153 0 150
150 c82 83 151 150 152 150 2 0 3 -67 3 -150z m339 -2051 c90 -104 162 -191
160 -193 -2 -2 -213 -182 -468 -400 l-464 -397 -23 23 c-42 43 -304 353 -304
359 0 8 922 799 930 799 4 0 79 -86 169 -191z m1871 -299 c231 -269 423 -496
426 -503 2 -8 -46 -56 -118 -117 -67 -58 -153 -131 -190 -163 l-67 -58 -431
502 c-276 322 -427 506 -421 512 29 29 367 316 373 316 3 1 196 -219 428 -489z
m-480 -483 c188 -219 340 -402 338 -406 -4 -12 -238 -211 -247 -211 -5 0 -142
156 -305 347 -243 283 -296 350 -291 367 19 60 18 75 -13 106 -31 31 -60 37
-92 20 -10 -5 -139 -113 -286 -240 -234 -200 -273 -230 -302 -230 -46 0 -68
14 -81 51 -8 22 -7 38 2 59 10 23 521 472 576 505 14 9 297 34 343 31 9 0 170
-180 358 -399z m-1126 333 c83 -22 87 -25 69 -39 -10 -9 -92 -78 -181 -154
-187 -161 -212 -197 -212 -303 0 -184 191 -308 355 -230 28 13 139 100 248
194 l199 170 32 -36 c18 -21 184 -214 369 -429 361 -421 361 -420 317 -476
-23 -29 -59 -41 -92 -28 -14 5 -67 59 -118 120 -116 136 -148 151 -207 98 -40
-36 -31 -82 29 -152 164 -191 170 -204 127 -259 -16 -20 -29 -26 -61 -26 -38
0 -46 5 -92 57 -99 112 -112 123 -144 123 -46 0 -86 -39 -86 -83 0 -28 10 -47
50 -93 27 -32 59 -71 72 -88 41 -55 22 -128 -37 -141 -39 -8 -67 7 -119 66
-38 42 -49 49 -82 49 -54 0 -85 -28 -85 -77 0 -32 9 -49 45 -92 55 -65 60
-110 16 -147 -52 -45 -86 -31 -175 72 l-61 72 15 42 c8 23 15 66 15 95 0 101
-83 209 -180 235 -32 9 -40 15 -40 34 0 36 -26 102 -55 140 -23 30 -98 76
-146 90 -10 3 -19 20 -23 46 -14 92 -89 180 -169 202 -43 11 -44 12 -56 69
-16 77 -60 136 -131 172 -50 26 -63 28 -133 24 l-78 -4 -28 36 -29 36 377 323
c207 177 381 320 386 318 6 -1 50 -14 99 -26z m-649 -875 c52 -51 15 -135 -60
-135 -53 0 -89 39 -81 88 11 71 92 97 141 47z m223 -261 c30 -33 29 -78 -3
-109 -58 -59 -158 -5 -140 75 15 69 94 87 143 34z m195 -236 c53 -28 64 -92
22 -133 -31 -32 -75 -32 -111 -1 -73 62 5 179 89 134z m242 -273 c59 -58 5
-158 -75 -140 -66 15 -88 97 -36 141 36 31 80 31 111 -1z"/>
<path d="M1847 4263 c-10 -2 -66 -69 -125 -147 l-107 -143 -30 19 c-42 25 -72
22 -106 -11 -46 -46 -39 -72 37 -151 68 -71 95 -84 138 -66 15 7 82 86 166
199 113 152 140 194 140 221 0 52 -59 94 -113 79z"/>
<path d="M2274 4260 c-55 -22 -70 -95 -29 -135 21 -22 33 -25 103 -25 69 0 81
3 100 23 23 25 29 75 12 107 -18 35 -130 53 -186 30z"/>
<path d="M2694 4256 c-51 -22 -62 -95 -21 -134 23 -22 25 -22 484 -22 515 0
498 -2 509 71 5 29 1 41 -19 65 l-25 29 -449 2 c-361 2 -454 0 -479 -11z"/>
<path d="M2283 3923 c-30 -6 -63 -49 -63 -84 0 -15 11 -41 24 -56 l24 -28 306
-3 c349 -4 378 0 403 53 16 32 16 38 0 69 -12 26 -26 37 -54 45 -36 10 -591
14 -640 4z"/>
<path d="M1828 3568 c-8 -7 -57 -69 -108 -138 -51 -69 -97 -129 -101 -134 -5
-6 -17 -2 -29 9 -45 41 -122 15 -135 -45 -8 -37 12 -74 67 -126 106 -102 115
-98 294 140 158 211 167 233 119 281 -27 28 -80 34 -107 13z"/>
<path d="M2245 3555 c-54 -53 -16 -133 67 -142 103 -12 158 18 158 85 0 63
-29 82 -124 82 -68 0 -80 -3 -101 -25z"/>
<path d="M2672 3557 c-28 -30 -30 -89 -3 -116 11 -11 35 -23 53 -26 18 -3 228
-5 466 -3 l434 3 25 29 c20 24 24 36 19 65 -11 73 7 71 -510 71 l-463 0 -21
-23z"/>
<path d="M2245 3215 c-35 -34 -33 -78 4 -116 l29 -29 316 0 c176 0 326 4 340
10 31 12 59 63 50 93 -3 12 -16 32 -27 45 -20 22 -21 22 -354 22 l-334 0 -24
-25z"/>
</g>
</svg>
