<svg width="145" height="37" viewBox="0 0 145 37" fill="none" xmlns="http://www.w3.org/2000/svg">
<path fill-rule="evenodd" clip-rule="evenodd" d="M26.51 0.0299988H39.62V35.87H22.72C32.72 27.96 34.5 23.35 24.86 16.63C15.78 10.2 18.62 6.02 26.51 0M23.51 0H24C19.21 3.68 13 8.56999 21.74 14.87C32.1 22.53 32.37 26.68 19.74 35.87H17.67C28.51 28.02 29.76 23.71 20.74 16.42C12.06 10.23 15.06 6.02 23.54 0.0299988L23.51 0ZM0 0H17.41C12.41 3.68 6.12 8.23998 14.41 15.14C23.56 22.76 23.14 26.89 10.09 35.87H0.0899963L0 0ZM20.3 0H20.79C16.24 3.74 8.34999 8.49999 18.43 15.52C27.43 22.15 27.49 26.85 14.83 35.86H12.76C24.5 28.05 25.43 23.15 16.76 16.32C8.76001 10.2 11.82 6.05 20.33 0.0299988L20.3 0Z" fill="#E87817"/>
<path fill-rule="evenodd" clip-rule="evenodd" d="M70.56 0.0900046V11.4H69.56L67.96 7.69999C67.2769 6.15603 66.2509 4.78806 64.96 3.69999C63.48 2.43621 61.5856 1.76321 59.64 1.81001C58.7969 1.75622 57.9539 1.91693 57.1897 2.27717C56.4255 2.6374 55.765 3.1854 55.27 3.87C54.6297 4.74007 54.2798 5.78976 54.27 6.87C54.2416 8.13227 54.6436 9.36662 55.41 10.37C56.867 11.9672 58.7351 13.133 60.81 13.74C64.0144 14.7421 66.9301 16.5018 69.31 18.87C71.0371 20.7069 71.9898 23.1388 71.97 25.66C71.97 29.6133 70.4667 32.5567 67.46 34.49C64.9879 35.9251 62.1555 36.6193 59.3 36.49C58.1639 36.448 57.038 36.2598 55.95 35.93C54.2416 35.3882 52.4927 34.9836 50.72 34.72C50.5 34.72 50.3 34.87 50.11 35.17L49.96 35.62L49.77 36.48H48.56V24.04H49.72L50.78 27.66C51.1812 28.8371 51.7984 29.9292 52.6 30.88C53.3548 31.8681 54.2433 32.7465 55.24 33.49C56.4403 34.4059 57.9005 34.9172 59.41 34.95C64.03 34.95 66.34 33.0633 66.34 29.29C66.34 27.43 65.0833 25.6667 62.57 24C61.7967 23.52 59.7433 22.4767 56.41 20.87C54.0143 19.8092 51.981 18.0713 50.56 15.87C49.2749 13.8096 48.7384 11.3696 49.0407 8.96024C49.3431 6.55085 50.4657 4.319 52.22 2.63999C53.9498 0.958524 56.2676 0.018513 58.68 0.0199973C60.2304 0.00568971 61.7753 0.20764 63.27 0.620003L67.86 1.93C68.17 1.93 68.5 1.66001 68.86 1.10001L69.41 0.0199973L70.56 0.0900046ZM100.06 18.87H87.95V30.21C87.95 33.13 89.33 34.59 92.09 34.59V35.67H75.77V34.59C78.53 34.59 79.91 33.13 79.91 30.21V6.06001C79.91 3.14001 78.53 1.68 75.77 1.68V0.600014H92.09V1.68C89.33 1.68 87.95 3.14001 87.95 6.06001V16.37H100.06V6.06001C100.06 3.14001 98.68 1.68 95.92 1.68V0.600014H112.24V1.68C109.48 1.68 108.1 3.14001 108.1 6.06001V30.22C108.1 33.14 109.48 34.6 112.24 34.6V35.68H95.92V34.6C98.68 34.6 100.06 33.14 100.06 30.22V18.87ZM132.73 35.67H114.95V34.59C117.71 34.59 119.09 33.13 119.09 30.21V6.06001C119.09 3.14001 117.71 1.68 114.95 1.68V0.600014H127.13C129.285 0.556808 131.442 0.626896 133.59 0.810006H134.36H134.85L135.2 0.910012L136.07 1.06001C136.453 1.13197 136.825 1.24948 137.18 1.41001C138.781 1.8693 140.214 2.78696 141.3 4.05C142.417 5.31187 143.023 6.94497 143 8.63001C143.022 10.0524 142.633 11.4508 141.881 12.6584C141.129 13.866 140.046 14.8316 138.76 15.44C137.742 15.93 136.676 16.3153 135.58 16.59V16.69C137.626 17.2631 139.572 18.1467 141.35 19.31C142.403 20.0121 143.247 20.9867 143.79 22.13C144.302 23.2138 144.555 24.4017 144.53 25.6C144.53 28.5667 143.6 30.7733 141.74 32.22C140.303 33.3656 138.706 34.2954 137 34.98C135.632 35.473 134.184 35.7103 132.73 35.68V35.67ZM127.13 4.62V16.47H129.3C132.927 16.47 134.743 14.6333 134.75 10.96V6.87C134.75 5.05667 134.323 3.79667 133.47 3.09C132.33 2.33004 130.966 1.97766 129.6 2.09C128.913 2.01592 128.224 2.21327 127.68 2.63999C127.252 3.20643 127.056 3.91415 127.13 4.62ZM127.13 18.28V29.87C127.105 30.7346 127.138 31.6 127.23 32.46C127.44 33.58 128.23 34.14 129.55 34.14C131.81 34.14 133.47 33.66 134.55 32.71C135.63 31.76 136.2 30.02 136.2 27.71C136.314 25.5362 136.012 23.3605 135.31 21.3C134.914 20.322 134.214 19.497 133.314 18.9461C132.414 18.3953 131.361 18.1478 130.31 18.24L127.13 18.28Z" fill="#291770"/>
</svg>
