<svg width="580" height="263" viewBox="0 0 580 263" fill="none" xmlns="http://www.w3.org/2000/svg">
<path fill-rule="evenodd" clip-rule="evenodd" d="M407.281 78.474L329.073 0L289.828 39.2396L329.073 78.474L289.828 117.703L329.073 156.688L407.281 78.474ZM289.828 39.2396L250.854 78.474L289.828 117.703L250.854 156.688L172.385 78.474L250.854 0L289.828 39.2396Z" fill="#EC2027"/>
<mask id="mask0_1_139" style="mask-type:luminance" maskUnits="userSpaceOnUse" x="0" y="206" width="360" height="57">
<path d="M0 206.672H360V262.5H0V206.672Z" fill="white"/>
</mask>
<g mask="url(#mask0_1_139)">
<path fill-rule="evenodd" clip-rule="evenodd" d="M261.995 262.5V250.599C266.042 250.599 269.073 249.078 271.865 246.297C274.391 243.255 275.656 239.714 275.656 235.161C275.656 230.859 274.391 227.318 271.865 224.276C269.073 221.245 265.786 219.969 261.995 219.969V207.823C265.786 207.823 269.328 208.583 272.625 209.844C276.161 211.365 279.198 213.396 281.734 215.917C284.516 218.458 286.286 221.245 287.807 224.786C289.078 228.073 289.828 231.365 289.828 235.161C289.828 238.958 289.078 242.495 287.807 245.792C286.542 249.078 284.516 252.125 281.734 254.646C279.198 257.182 276.161 259.214 272.625 260.469C269.328 261.995 265.786 262.5 261.995 262.5ZM358.682 261.229H345.516L342.229 238.703C342.229 237.182 341.974 235.161 341.724 233.391C341.469 231.365 341.469 229.339 341.214 227.057C340.964 229.083 340.208 231.865 339.198 235.161C339.198 235.922 338.943 236.427 338.943 236.682L331.854 261.229H322.24L315.146 236.682C315.146 236.427 314.896 235.922 314.641 235.161C313.625 231.865 313.12 229.083 312.87 227.057C312.62 229.083 312.354 230.859 312.354 232.88C312.104 234.906 311.859 236.682 311.604 238.703L308.563 261.229H295.396L303.245 209.094H317.427L325.266 235.922C325.266 236.177 325.521 236.427 325.521 236.927C326.286 239.208 326.792 241.24 327.047 243.016C327.047 242 327.297 240.984 327.552 239.969C327.792 238.703 328.063 237.443 328.568 235.922L336.661 209.094H350.578L358.682 261.229ZM11.6458 261.229V221.245H0V209.094H37.4583V221.245H25.8177V261.229H11.6458ZM261.995 207.823V219.969C257.948 219.969 254.901 221.245 252.115 224.276C249.589 227.057 248.318 230.859 248.318 235.161C248.318 239.714 249.589 243.255 252.115 246.297C254.651 249.078 257.948 250.599 261.995 250.599V262.5C258.188 262.5 254.651 261.995 251.354 260.469C247.813 259.214 244.776 257.182 242.245 254.646C239.464 252.125 237.438 249.078 236.167 245.792C234.656 242.495 234.146 238.958 234.146 235.161C234.146 231.365 234.656 228.073 236.167 224.786C237.438 221.49 239.464 218.458 242.245 215.917C244.776 213.396 247.813 211.365 251.354 209.844C254.651 208.583 258.188 207.823 261.995 207.823ZM44.5521 261.229V209.094H76.4531V220.474H58.4792V229.594H75.4323V240.734H58.4792V249.589H76.4531V261.229H44.5521ZM123.786 211.12V226.552C121.755 224.531 119.979 222.755 117.964 221.75C115.922 220.74 113.906 220.229 111.63 220.229C107.583 220.229 104.286 221.75 101.75 224.531C99.224 227.318 97.9583 230.859 97.9583 235.417C97.9583 239.714 99.224 243.016 101.75 245.792C104.542 248.583 107.828 250.094 111.63 250.094C113.906 250.094 115.922 249.589 117.964 248.583C119.979 247.557 121.755 245.792 123.786 243.766V259.214C121.505 260.469 119.219 261.229 116.948 261.74C114.677 262.245 112.646 262.5 110.365 262.5C107.323 262.5 104.797 262.245 102.26 261.484C99.9844 260.979 97.7031 259.719 95.6771 258.453C91.8906 255.917 88.849 252.63 86.8229 248.583C84.8021 244.526 83.7865 240.224 83.7865 235.161C83.7865 231.104 84.2969 227.568 85.5625 224.276C86.8229 220.979 88.849 217.948 91.6302 215.411C93.9115 212.885 96.6927 210.859 99.9844 209.599C103.021 208.333 106.307 207.823 110.365 207.823C112.646 207.823 114.677 208.078 116.948 208.583C119.219 209.094 121.505 209.844 123.786 211.12ZM131.88 261.229V209.094H146.063V229.339H165.042V209.094H179.208V261.229H165.042V239.969H146.063V261.229H131.88ZM228.323 211.12V226.552C226.297 224.531 224.271 222.755 222.505 221.75C220.474 220.74 218.448 220.229 216.161 220.229C212.125 220.229 208.828 221.75 206.302 224.531C203.766 227.318 202.5 230.859 202.5 235.417C202.5 239.714 203.766 243.016 206.302 245.792C208.828 248.583 212.125 250.094 216.161 250.094C218.448 250.094 220.474 249.589 222.505 248.583C224.271 247.557 226.297 245.792 228.323 243.766V259.214C226.042 260.469 223.76 261.229 221.49 261.74C219.208 262.245 216.932 262.5 214.651 262.5C211.87 262.5 209.339 262.245 206.813 261.484C204.526 260.979 202.245 259.719 200.229 258.453C196.172 255.917 193.391 252.63 191.109 248.583C189.089 244.526 188.078 240.224 188.078 235.161C188.078 231.104 188.839 227.568 190.094 224.276C191.359 220.979 193.391 217.948 195.917 215.411C198.453 212.885 201.229 210.859 204.276 209.599C207.573 208.333 210.859 207.823 214.651 207.823C216.932 207.823 219.208 208.078 221.49 208.583C223.76 209.094 226.042 209.844 228.323 211.12Z" fill="#EC2027"/>
</g>
<mask id="mask1_1_139" style="mask-type:luminance" maskUnits="userSpaceOnUse" x="365" y="208" width="215" height="54">
<path d="M365.333 208.005H579.667V261.339H365.333V208.005Z" fill="white"/>
</mask>
<g mask="url(#mask1_1_139)">
<path fill-rule="evenodd" clip-rule="evenodd" d="M436.646 251.87V241.745H443.74L438.422 224.531C438.172 224.026 437.917 223.266 437.651 221.995C437.406 220.979 436.901 219.469 436.646 217.693V209.094H445.51L463.49 261.229H449.307L446.531 251.87H436.646ZM468.542 261.229V209.094H482.214L501.953 235.922C502.208 236.427 502.969 237.688 503.729 239.208C504.74 240.984 505.745 242.75 506.76 245.031C506.516 243.016 506.266 240.984 506.01 239.464C506.01 237.688 505.745 236.177 505.745 234.906V209.094H519.422V261.229H505.745L486.01 234.401C485.755 233.896 485 232.625 484.234 231.104C483.214 229.339 482.464 227.318 481.453 225.292C481.708 227.318 481.958 229.339 481.958 231.104C482.214 232.625 482.214 234.146 482.214 235.417V261.229H468.542ZM530.813 261.229V209.094H544.74V232.88L561.438 209.094H577.885L558.656 234.656L579.661 261.229H561.953L544.74 237.953V261.229H530.813ZM385.266 229.844C387.031 229.594 388.557 229.339 389.318 228.833C390.573 228.073 391.339 226.552 391.339 224.786C391.339 222.755 390.828 221.49 389.563 220.474C388.557 219.969 387.292 219.724 385.266 219.469V209.094C388.557 209.094 391.083 209.333 392.854 209.599C395.141 210.099 397.156 210.604 398.932 211.62C400.698 212.635 402.219 214.151 403.234 215.917C404.25 217.693 404.755 219.724 404.755 221.995C404.755 225.036 403.995 227.568 402.474 229.083C400.964 230.859 398.427 232.38 395.141 233.13C398.932 233.391 401.974 234.656 403.995 237.182C406.026 239.464 407.026 242.495 407.026 246.297C407.026 249.078 406.531 251.615 405.255 253.646C404.25 255.917 402.474 257.438 400.198 258.703C398.427 259.719 396.406 260.219 393.62 260.734C391.854 260.979 389.063 261.229 385.266 261.229V250.599C388.047 250.599 390.078 250.094 391.339 249.333C392.854 248.583 393.62 247.063 393.62 245.031C393.62 243.016 392.854 241.49 391.589 240.479C390.323 239.714 388.302 239.208 385.266 239.208V229.844ZM436.646 209.094V217.693C436.646 217.443 436.646 217.443 436.646 217.443C436.141 218.708 435.885 219.969 435.635 221.245C435.391 222.25 435.125 223.516 434.63 224.531L429.557 241.745H436.646V251.87H426.526L423.734 261.229H409.563L427.531 209.094H436.646ZM379.438 229.844H382.479C383.495 229.844 384.255 229.844 385.266 229.844V239.208C385.005 239.208 384.75 239.208 384.51 239.208H379.438V250.599H384.255C384.51 250.599 385.005 250.599 385.266 250.599V261.229C383.99 261.229 382.724 261.229 380.958 261.229H366.281V209.094H380.703C382.479 209.094 383.74 209.094 385.266 209.094V219.469C384.51 219.469 383.495 219.469 382.479 219.469H379.438V229.844Z" fill="white"/>
</g>
<path fill-rule="evenodd" clip-rule="evenodd" d="M400.698 149.854C401.203 149.854 401.458 149.599 401.714 149.599C401.974 149.349 402.219 148.849 402.219 148.339C402.219 147.833 401.974 147.328 401.714 147.073C401.458 147.073 401.203 146.818 400.698 146.818V146.063C401.458 146.063 401.974 146.313 402.219 146.568C402.729 147.073 402.979 147.578 402.979 148.339C402.979 149.094 402.729 149.599 402.219 149.854C401.974 150.359 401.458 150.615 400.698 150.615V149.854ZM400.698 156.688C404.25 156.688 407.281 153.901 407.281 150.104C407.281 146.568 404.25 143.781 400.698 143.781V144.286C403.995 144.286 406.771 146.818 406.771 150.104C406.771 153.656 403.995 156.182 400.698 156.182V156.688ZM400.698 151.63V150.615L403.74 154.661H402.729L400.698 151.63ZM399.438 146.818V149.854H400.198C400.448 149.854 400.448 149.854 400.698 149.854V151.63L399.948 150.615H399.438V154.661H398.682V146.063H400.198C400.448 146.063 400.448 146.063 400.698 146.063V146.818C400.448 146.818 400.448 146.818 400.198 146.818H399.438ZM400.698 143.781C397.156 143.781 394.125 146.568 394.125 150.104C394.125 153.901 397.156 156.688 400.698 156.688V156.182C397.411 156.182 394.62 153.656 394.62 150.104C394.62 146.818 397.411 144.286 400.698 144.286V143.781Z" fill="#EC2027"/>
</svg>
