<svg width="428" height="96" viewBox="0 0 428 96" fill="none" xmlns="http://www.w3.org/2000/svg">
<path d="M200.177 12.1213C192.932 12.3923 185.772 13.7751 178.947 16.2213V83.0413H192.307V56.9114C195.657 58.0214 200.947 58.5014 209.177 56.5914C227.587 52.3314 226.427 34.8914 226.427 34.8914C226.427 34.8914 227.687 22.2013 214.317 15.0313C210.137 12.7913 205.117 12.0313 200.187 12.1313L200.177 12.1213ZM258.417 12.3413C251.928 12.4607 245.494 13.5494 239.327 15.5714V79.4213C239.327 79.4213 257.547 87.3013 273.127 80.7313C288.707 74.1613 284.017 58.7313 284.017 58.7313C282.987 55.7326 281.244 53.0291 278.938 50.8534C276.631 48.6777 273.831 47.095 270.777 46.2414C270.777 46.2414 285.707 41.5514 281.297 24.9214C278.377 15.1914 268.547 12.2414 258.407 12.3214L258.417 12.3413ZM385.347 12.3413V82.9614H393.137V56.3713L417.367 82.9813H427.137L402.067 56.2214L427.237 30.0214H417.467L393.147 55.1713V12.3713L385.347 12.3413ZM120.117 12.3413V24.1913H136.397V82.9813H149.767V24.2513H165.947V12.4013L120.117 12.3413ZM259.987 18.7513C262.146 18.745 264.285 19.17 266.277 20.0013C273.697 23.3813 273.697 28.6414 273.697 28.6414C273.697 28.6414 276.417 42.1614 261.777 43.2014C256.97 43.6554 252.134 43.719 247.317 43.3914V20.8014C251.421 19.5072 255.695 18.8331 259.997 18.8014L259.987 18.7513ZM200.537 22.8113C214.777 23.0013 212.537 37.1513 212.537 37.1513C212.537 37.1513 211.667 45.9714 200.617 46.6414C197.832 46.8893 195.025 46.7514 192.277 46.2314V23.9614C194.949 23.1627 197.73 22.7948 200.517 22.8713L200.537 22.8113ZM357.077 29.5814C350.543 29.53 344.085 30.977 338.197 33.8113V82.9213H346.277V39.1213C346.277 39.1213 354.827 34.4313 362.527 37.3413C364.704 38.1103 366.58 39.554 367.88 41.4622C369.18 43.3704 369.838 45.6436 369.757 47.9514V82.9514H377.757V45.7914C377.757 45.7914 378.867 29.8314 357.077 29.6414V29.5814ZM312.477 29.6714C312.477 29.6714 300.927 29.3913 295.107 33.6213L297.357 39.1613C297.357 39.1613 308.357 33.5313 317.637 37.0013C317.637 37.0013 323.837 38.8814 323.557 46.8614V49.7714C323.557 49.7714 297.657 48.5514 293.127 61.4114C288.427 74.7414 300.267 80.8514 300.267 80.8514C300.267 80.8514 303.267 82.9914 313.887 83.0214C319.776 83.082 325.608 81.8603 330.977 79.4413V47.0114C330.977 47.0114 332.007 29.7414 312.477 29.7414V29.6714ZM254.947 49.6713C262.017 49.6713 270.737 50.6713 273.687 55.5513C278.397 63.3713 275.007 68.9813 275.007 68.9813C275.007 68.9813 270.877 77.5313 257.727 76.4913C254.228 76.2617 250.748 75.8074 247.307 75.1313V50.1313C249.845 49.8572 252.395 49.7104 254.947 49.6913V49.6713ZM323.607 55.4614V74.9913C323.607 74.9913 308.677 80.1614 302.197 73.3914C295.717 66.6214 303.047 59.8713 303.047 59.8713C303.047 59.8713 307.127 55.3714 323.607 55.4614Z" fill="#5E2E86"/>
<path d="M99.6071 0.00127851H8.19714L92.1971 36.1013L105.937 12.2913C107.417 9.18129 107.457 6.17128 106.607 4.53128C104.277 0.141277 100.517 -0.0187215 99.6071 0.00127851Z" fill="url(#paint0_linear_1_171)"/>
<path d="M99.6072 0.0012207H100.157C99.9272 0.0012207 99.7372 0.0012207 99.6072 0.0012207ZM106.127 11.7412L33.1272 67.0712L47.4972 91.8212C48.1406 92.8828 49.0596 93.7502 50.1566 94.3313C51.2536 94.9124 52.4875 95.1853 53.7272 95.1212C55.0636 95.1083 56.3741 94.7508 57.532 94.0834C58.69 93.416 59.6561 92.4611 60.3372 91.3112L105.947 12.3112C105.977 12.1212 106.047 11.9412 106.127 11.7512V11.7412Z" fill="url(#paint1_linear_1_171)"/>
<path d="M37.1772 12.4712L8.17719 0.0112305C8.17719 0.0112305 2.17719 0.0112281 0.427194 5.07123C-0.00105411 6.41118 -0.109248 7.83284 0.111307 9.22217C0.331862 10.6115 0.875013 11.9298 1.69718 13.0712L47.4072 91.8012L37.1772 12.4712Z" fill="url(#paint2_linear_1_171)"/>
<defs>
<linearGradient id="paint0_linear_1_171" x1="7.82034" y1="-0.320721" x2="92.0811" y2="16.5585" gradientUnits="userSpaceOnUse">
<stop stop-color="#FBB413"/>
<stop offset="1" stop-color="#DE5D27"/>
</linearGradient>
<linearGradient id="paint1_linear_1_171" x1="101.878" y1="35.4864" x2="41.2252" y2="63.7432" gradientUnits="userSpaceOnUse">
<stop stop-color="#FBB413"/>
<stop offset="1" stop-color="#DE5D27"/>
</linearGradient>
<linearGradient id="paint2_linear_1_171" x1="16.13" y1="80.4664" x2="32.5828" y2="9.04963" gradientUnits="userSpaceOnUse">
<stop stop-color="#FBB413"/>
<stop offset="1" stop-color="#DE5D27"/>
</linearGradient>
</defs>
</svg>
