<svg width="1010" height="195" viewBox="0 0 1010 195" fill="none" xmlns="http://www.w3.org/2000/svg">
<path d="M214.543 0C214.543 0 204.58 0.708771 204.568 9.86069L204.529 40.5616C204.529 40.5616 212.324 30.1341 223.292 30.1341H236.35C236.35 30.1341 247.029 29.4975 247.029 20.6184V9.65039C247.029 9.65039 247.028 -3.35999e-05 236.117 0H214.543ZM494.438 7.06777C482.572 7.06777 482.573 17.7663 482.573 17.7663V42.0846H456.31V58.4249C456.31 58.4249 456.309 68.9296 468.175 68.9296H482.573V150.441C483.351 177.16 511.556 192.663 535.678 192.663H567.777C576.531 192.663 577.894 180.591 577.894 180.591V165.03C561.943 168.142 548.907 164.836 548.907 164.836C524.201 157.638 524.98 138.963 524.98 138.963V68.9296H608.63V150.441C609.408 177.16 637.616 192.663 661.738 192.663H693.834C702.588 192.663 703.951 180.591 703.951 180.591V165.03C687.999 168.142 674.967 164.836 674.967 164.836C650.261 157.638 651.04 138.963 651.04 138.963V68.9296H691.715C703.597 68.9296 703.366 59.2956 703.366 59.2956V42.0846H651.04V18.9361C651.04 7.73593 640.923 7.06777 640.923 7.06777H620.495C608.628 7.06777 608.63 17.7663 608.63 17.7663V42.0846H524.98V18.9361C524.98 7.73593 514.866 7.06777 514.866 7.06777H494.438ZM925.641 7.06777C913.775 7.06777 913.776 17.7663 913.776 17.7663V150.441C914.554 177.16 942.759 192.663 966.881 192.663H998.98C1007.73 192.663 1009.1 180.591 1009.1 180.591V165.03C993.146 168.142 980.11 164.836 980.11 164.836C955.404 157.638 956.183 138.963 956.183 138.963V18.9361C956.183 7.73593 946.069 7.06777 946.069 7.06777H925.641ZM351.673 41.02C344.68 41.0368 315.298 41.9114 292.765 54.8598C277.971 63.3612 268.521 77.5787 268.102 107.324C268.102 107.324 268.194 151.413 274.421 161.918C274.421 161.918 281.724 176.907 298.052 185.954C305.109 189.863 319.296 192.663 329.862 192.663H433.549C433.549 192.663 443.666 191.681 443.666 179.231V165.614H340.561C340.561 165.614 312.939 164.835 312.355 133.515C312.327 131.874 312.322 130.555 312.3 129.04H429.074C429.074 129.04 449.502 127.485 449.502 101.029C449.502 101.029 452.808 73.7919 431.604 56.8674C410.4 39.943 376.371 41.5394 353.215 41.0331C353.215 41.0331 352.672 41.0183 351.673 41.02ZM794.827 41.02C787.834 41.0351 758.452 41.9114 735.919 54.8598C721.124 63.3612 711.674 77.5787 711.255 107.324C711.255 107.324 711.349 151.413 717.574 161.918C717.574 161.918 724.878 176.907 741.206 185.954C748.262 189.863 762.449 192.663 773.015 192.663H876.702C876.702 192.663 886.819 191.681 886.819 179.231V165.614H783.714C783.714 165.614 756.092 164.835 755.509 133.515C755.48 131.874 755.47 130.555 755.45 129.04H872.227C872.227 129.04 892.655 127.485 892.655 101.029C892.655 101.029 895.962 73.7919 874.757 56.8674C853.553 39.943 819.524 41.5394 796.368 41.0331C796.368 41.0331 795.826 41.0183 794.827 41.02ZM0 42.6136L72.3698 182.29C72.3698 182.29 76.2301 194.112 97.7001 194.112H105.418C105.418 194.112 121.34 194.834 129.06 181.084C136.779 167.334 201.433 42.6136 201.433 42.6136H168.381C168.381 42.6136 155.838 44.5443 147.878 60.9484C139.917 77.3525 103.25 155.271 103.25 155.271C103.25 155.271 100.354 159.613 98.1831 155.271C96.012 150.928 50.4173 55.8817 50.4173 55.8817C50.4173 55.8817 42.2155 42.6136 33.0487 42.6136H0ZM214.941 42.6136C214.941 42.6136 204.568 42.6152 204.568 54.4359V182.533C204.568 182.533 205.291 192.663 215.664 192.663H238.822C238.822 192.663 247.027 192.183 247.027 179.638V52.9869C247.027 52.9869 245.335 42.6136 237.133 42.6136H214.941ZM358.646 67.7204C370.768 67.7254 388.733 69.4908 398.338 78.8528C398.338 78.8528 405.537 84.6871 405.537 93.6356C405.537 102.779 399.701 102.78 397.951 102.78H332.78C332.78 102.78 322.196 101.864 312.28 111.293C312.483 98.4057 313.134 94.4143 313.134 94.4143C313.134 94.4143 312.937 71.8464 346.202 68.3448C346.202 68.3448 351.372 67.717 358.646 67.7204ZM801.799 67.7204C813.921 67.7254 831.887 69.4908 841.492 78.8528C841.492 78.8528 848.691 84.6871 848.691 93.6356C848.691 102.779 842.855 102.78 841.104 102.78H775.933C775.933 102.78 765.349 101.864 755.433 111.293C755.636 98.4057 756.287 94.4143 756.287 94.4143C756.287 94.4143 756.09 71.8464 789.356 68.3448C789.356 68.3448 794.526 67.7171 801.799 67.7204Z" fill="#EF0032"/>
</svg>
