<svg width="706" height="160" viewBox="0 0 706 160" fill="none" xmlns="http://www.w3.org/2000/svg">
<path d="M52.8646 0.00598703C51.4721 0.0772448 50.2746 0.784767 50.2746 2.23771V49.5403C50.2746 49.5403 50.4437 57.1828 57.2214 64.8255C63.9988 72.4682 91.4052 104.048 91.4052 104.048V42.1642L56.6272 1.59376C55.8441 0.500156 54.257 -0.0651808 52.8646 0.00598703ZM134.888 0.0854421C133.661 0.123218 132.237 0.784267 131.052 2.09824L96.558 42.1854V104.048L132.494 62.3733C132.494 62.3733 137.718 55.5963 137.718 47.6652V2.96253C137.718 1.01723 136.466 0.0368404 134.888 0.0854421ZM3.17811 57.6256C0.00823832 57.6256 -1.33254 61.6089 1.71538 64.6974C1.71538 64.6974 59.3821 131.874 70.9643 145.041C82.5464 158.208 91.4052 157.814 91.4052 157.814V112.611C91.4052 112.611 69.5012 86.5202 57.3095 72.3777C45.1178 58.2353 27.0746 57.6256 27.0746 57.6256H3.17811ZM160.889 57.6256C160.889 57.6256 142.845 58.2353 130.654 72.3777C118.462 86.5202 96.558 112.611 96.558 112.611V157.814C96.558 157.814 105.415 158.208 116.997 145.041C128.58 131.874 186.248 64.6974 186.248 64.6974C189.296 61.6089 187.955 57.6256 184.785 57.6256H160.889ZM675.992 86.0666C675.992 86.0666 667.439 86.0668 661.622 92.9096L643.198 113.866V137.388C643.198 137.388 646.481 138.671 649.646 135.763L689.638 89.6188C691.175 87.9216 690.659 86.0666 688.518 86.0666H675.992Z" fill="#E00500"/>
<path d="M211.516 57.6257L245.455 157.814H270.015L303.658 57.6257H282.073L257.661 133.854L233.1 57.6257H211.516ZM312.44 57.6257V157.814H331.643V124.477H352.333C352.333 124.477 364.844 124.476 375.252 113.906C379.967 109.119 383.444 102.842 383.444 91.8763C383.444 64.3375 356.65 57.6257 350.696 57.6257H331.643H316.607H312.44ZM392.674 57.6257V157.814H405.326H412.769H436.288C436.288 157.814 449.805 157.815 457.951 149.267C462.175 144.835 466.358 138.479 466.358 128.495C466.06 125.965 466.506 111.228 453.257 105.869C453.257 105.869 468.292 94.8675 460.849 76.2471C453.407 57.6268 433.311 57.6257 433.311 57.6257H412.769H404.434H392.674ZM625.356 57.6257V157.814H643.198V57.6257H625.356ZM696.281 57.7905C693.709 57.7908 691.244 58.8126 689.425 60.6312C687.607 62.4497 686.586 64.9161 686.586 67.4879C686.586 70.0595 687.607 72.5259 689.425 74.3445C691.244 76.1631 693.709 77.1849 696.281 77.1852C697.554 77.1852 698.815 76.9344 699.991 76.4471C701.167 75.9598 702.236 75.2455 703.137 74.345C704.037 73.4445 704.751 72.3755 705.238 71.1989C705.726 70.0224 705.976 68.7613 705.976 67.4879C705.976 66.2144 705.726 64.9533 705.238 63.7768C704.751 62.6002 704.037 61.5312 703.137 60.6307C702.236 59.7302 701.167 59.0159 699.991 58.5286C698.815 58.0412 697.554 57.7904 696.281 57.7905ZM696.222 59.981C697.2 59.981 698.169 60.1737 699.072 60.548C699.976 60.9223 700.797 61.471 701.488 62.1626C702.18 62.8543 702.728 63.6754 703.103 64.5791C703.477 65.4828 703.67 66.4514 703.669 67.4295C703.67 68.4077 703.477 69.3763 703.103 70.28C702.728 71.1837 702.18 72.0049 701.488 72.6965C700.797 73.3882 699.976 73.9369 699.072 74.3112C698.169 74.6855 697.2 74.8781 696.222 74.8781C694.247 74.8778 692.354 74.0928 690.957 72.696C689.561 71.2991 688.777 69.4048 688.777 67.4295C688.777 65.4543 689.561 63.56 690.957 62.1632C692.354 60.7663 694.247 59.9814 696.222 59.981ZM692.433 62.6079V72.6237H694.768V68.8823H695.442L697.908 72.6237H700.508L697.876 68.8823C697.876 68.8823 700.231 68.8831 700.191 65.8944C700.147 62.6086 696.986 62.6079 696.986 62.6079H692.433ZM694.768 64.7856H696.569C696.569 64.7856 697.658 64.8049 697.678 65.7948C697.698 66.7845 696.689 66.7856 696.689 66.7856H694.768V64.7856ZM331.643 76.247H351.142C351.142 76.247 364.093 76.8356 364.093 91.5791C364.093 106.316 350.696 106.316 350.696 106.316H331.643V76.247ZM412.769 76.247H432.417C432.417 76.247 442.541 76.8419 442.541 87.7084C442.541 98.5749 432.12 98.5742 432.12 98.5742H412.769V76.247ZM592.749 83.8889C580.417 83.8889 573.848 89.645 570.432 94.7959V86.3679H552.906V157.814H570.432V118.024C570.432 118.024 570.738 100.804 586.635 100.702C602.531 100.6 600.899 119.044 600.899 119.044V157.814H618.631V111.707C618.631 111.707 618.935 98.4005 609.371 90.3097C605.607 87.1258 600.058 83.8889 592.749 83.8889ZM504.554 84.0922C495.46 84.0923 486.739 88.0861 480.308 95.1949C473.878 102.304 470.265 111.945 470.265 121.999C470.265 132.052 473.878 141.694 480.308 148.803C486.739 155.911 495.46 159.905 504.554 159.905C513.198 159.879 521.514 156.245 527.838 149.73V157.814H546.181V86.3679H527.838V94.2671C521.514 87.7523 513.198 84.1182 504.554 84.0922ZM508.07 100.976C510.83 100.976 513.564 101.516 516.115 102.565C518.665 103.614 520.983 105.151 522.935 107.089C524.887 109.027 526.435 111.328 527.492 113.86C528.548 116.392 529.092 119.106 529.092 121.847C529.092 127.381 526.877 132.69 522.934 136.603C518.992 140.517 513.645 142.715 508.07 142.715C502.494 142.715 497.148 140.516 493.206 136.603C489.264 132.689 487.049 127.381 487.049 121.847C487.048 116.312 489.263 111.004 493.205 107.09C497.147 103.176 502.494 100.977 508.07 100.976ZM412.769 115.247H437.329C437.329 115.247 446.559 115.098 446.559 127.304C446.559 139.51 435.692 139.51 435.692 139.51H412.769V115.247ZM662.757 123.655C662.327 123.638 661.857 123.789 661.365 124.216L655.463 130.717C655.463 130.717 652.045 135.325 657.858 142.435L670.431 157.814H690.789L664.957 125.243C664.957 125.243 664.043 123.703 662.757 123.655Z" fill="#00B74F"/>
</svg>
