<?xml version="1.0" standalone="no"?>
<!DOCTYPE svg PUBLIC "-//W3C//DTD SVG 20010904//EN"
 "http://www.w3.org/TR/2001/REC-SVG-20010904/DTD/svg10.dtd">
<svg version="1.0" xmlns="http://www.w3.org/2000/svg"
 width="512.000000pt" height="512.000000pt" viewBox="0 0 512.000000 512.000000"
 preserveAspectRatio="xMidYMid meet">

<g transform="translate(0.000000,512.000000) scale(0.100000,-0.100000)"
fill="#000000" stroke="none">
<path d="M2785 5025 c-157 -29 -333 -106 -452 -198 -80 -61 -191 -181 -239
-255 -43 -69 -34 -67 -144 -36 -86 25 -289 26 -375 2 -105 -29 -172 -58 -248
-108 -210 -137 -342 -357 -364 -607 -6 -71 -6 -71 -39 -77 -65 -13 -169 -74
-226 -134 -187 -196 -182 -491 11 -675 117 -112 202 -137 463 -137 l187 0 3
-112 3 -112 75 -18 c155 -39 146 -34 160 -77 13 -39 12 -41 -44 -137 l-57 -98
43 -43 42 -43 -248 0 c-279 0 -305 -4 -370 -61 -57 -51 -79 -98 -85 -189 -6
-71 -7 -75 -31 -78 -179 -19 -380 -118 -515 -256 -338 -342 -338 -890 0 -1232
341 -346 895 -350 1241 -9 485 477 261 1309 -396 1475 -41 11 -88 20 -105 22
-29 3 -30 5 -33 60 -3 51 0 61 22 83 l25 25 328 0 328 0 91 -91 91 -90 97 57
c96 56 98 57 137 44 43 -14 38 -5 77 -160 l18 -75 112 -3 112 -3 0 -319 0
-320 -160 0 -160 0 0 -480 0 -480 560 0 560 0 0 320 0 320 -160 0 -160 0 0 80
0 80 -160 0 -160 0 0 400 0 399 112 3 112 3 18 75 c39 155 34 146 77 160 39
13 41 12 137 -44 l98 -57 91 91 90 90 448 0 448 0 24 -25 c24 -23 25 -29 25
-165 0 -112 -3 -140 -14 -140 -7 0 -45 -16 -83 -35 -86 -43 -144 -103 -186
-193 -29 -61 -32 -76 -32 -162 0 -83 4 -103 28 -154 15 -33 43 -78 61 -101
l34 -41 -79 -53 c-121 -80 -216 -204 -261 -341 -19 -56 -22 -95 -26 -288 l-4
-222 642 0 642 0 -4 222 c-4 211 -5 227 -30 296 -53 147 -151 271 -275 346
l-62 38 34 42 c19 24 47 69 62 102 24 51 28 71 28 154 0 86 -3 101 -32 162
-42 90 -100 150 -186 193 -38 19 -76 35 -83 35 -11 0 -14 29 -14 141 0 168 -9
205 -67 269 -71 79 -78 80 -507 80 l-370 0 42 43 43 44 -56 93 c-30 52 -55
100 -55 107 0 10 18 59 26 71 2 2 51 16 111 31 l108 27 3 112 3 112 112 0
c144 0 231 19 336 72 149 75 272 221 324 383 31 99 31 271 0 370 -52 164 -178
313 -325 384 -47 23 -112 47 -144 53 -33 7 -60 13 -62 14 -2 1 -8 35 -13 75
-21 146 -94 327 -184 454 -103 145 -293 294 -458 359 -173 68 -393 92 -562 61z
m330 -160 c334 -59 607 -311 696 -645 11 -41 23 -126 26 -187 l6 -113 66 0
c316 0 554 -296 476 -593 -46 -178 -193 -320 -367 -356 -37 -8 -500 -11 -1558
-9 l-1505 3 -51 27 c-75 40 -107 70 -143 137 -84 159 -30 343 127 429 55 30
75 35 153 40 l89 5 -6 106 c-11 199 49 364 181 496 122 122 254 182 420 192
114 6 206 -12 318 -65 l84 -39 45 91 c177 357 554 549 943 481z m-1258 -2127
c24 -141 104 -281 215 -383 84 -77 156 -120 265 -158 82 -29 97 -31 223 -31
119 0 145 4 215 27 153 51 283 147 376 281 55 77 104 197 115 274 l7 52 163 0
164 0 0 -49 0 -49 -91 -22 c-84 -21 -93 -25 -103 -53 -6 -16 -27 -66 -47 -111
l-36 -81 50 -84 49 -84 -125 -124 -124 -125 -84 49 -84 50 -81 -36 c-45 -20
-95 -41 -111 -47 -28 -10 -32 -19 -53 -103 l-22 -91 -178 0 -178 0 -22 91
c-21 84 -25 93 -53 103 -16 6 -66 27 -111 47 l-81 36 -84 -50 -84 -49 -125
125 -125 125 50 83 50 82 -39 91 c-21 50 -43 101 -48 112 -6 17 -28 26 -99 44
l-91 22 0 49 0 49 163 0 163 0 11 -62z m1253 48 c0 -36 -44 -149 -80 -204
-160 -248 -463 -330 -728 -197 -119 60 -227 186 -271 317 -37 109 -99 98 529
98 464 0 550 -2 550 -14z m-1935 -1140 c113 -36 198 -89 290 -181 91 -91 144
-175 182 -290 23 -71 26 -96 26 -215 0 -119 -3 -144 -26 -215 -38 -115 -91
-199 -182 -290 -91 -91 -175 -144 -290 -182 -71 -23 -96 -26 -215 -26 -119 0
-144 3 -215 26 -114 38 -198 90 -290 182 -91 91 -144 175 -182 290 -23 71 -26
96 -26 215 0 119 3 144 26 215 38 115 91 199 182 290 112 112 235 179 379 205
89 16 251 5 341 -24z m3299 -138 c86 -26 166 -136 166 -228 0 -124 -116 -240
-240 -240 -124 0 -240 116 -240 240 0 63 23 114 75 165 70 71 145 90 239 63z
m-1994 -948 l0 -320 -80 0 -80 0 0 320 0 320 80 0 80 0 0 -320z m2035 305 c87
-23 167 -70 228 -134 99 -104 137 -210 137 -383 l0 -108 -480 0 -480 0 0 108
c0 173 38 279 137 383 118 124 296 176 458 134z m-1715 -385 l0 -240 -80 0
-80 0 0 240 0 240 80 0 80 0 0 -240z m320 -80 l0 -160 -80 0 -80 0 0 160 0
160 80 0 80 0 0 -160z"/>
<path d="M2960 4643 l0 -79 81 -12 c275 -40 479 -280 479 -563 l0 -58 43 -6
c23 -3 58 -6 77 -8 l35 -2 -2 110 c-2 193 -65 337 -208 480 -125 125 -267 194
-433 210 l-72 8 0 -80z"/>
<path d="M1840 3747 c-49 -16 -133 -102 -148 -153 -28 -94 -8 -169 63 -239 51
-52 102 -75 165 -75 63 0 114 23 165 75 98 97 101 222 8 325 -65 72 -158 97
-253 67z m135 -172 c50 -49 15 -135 -55 -135 -41 0 -80 39 -80 80 0 41 39 80
80 80 19 0 40 -9 55 -25z"/>
<path d="M2480 3747 c-49 -16 -133 -102 -148 -153 -28 -94 -8 -169 63 -239 51
-52 102 -75 165 -75 63 0 114 23 165 75 98 97 101 222 8 325 -65 72 -158 97
-253 67z m135 -172 c16 -15 25 -36 25 -55 0 -19 -9 -40 -25 -55 -49 -50 -135
-15 -135 55 0 41 39 80 80 80 19 0 40 -9 55 -25z"/>
<path d="M3120 3747 c-49 -16 -133 -102 -148 -153 -28 -94 -8 -169 63 -239 51
-52 102 -75 165 -75 63 0 114 23 165 75 98 97 101 222 8 325 -65 72 -158 97
-253 67z m135 -172 c16 -15 25 -36 25 -55 0 -19 -9 -40 -25 -55 -15 -16 -36
-25 -55 -25 -19 0 -40 9 -55 25 -16 15 -25 36 -25 55 0 19 9 40 25 55 15 16
36 25 55 25 19 0 40 -9 55 -25z"/>
<path d="M880 1440 l0 -80 -120 0 -120 0 0 -136 c0 -170 9 -204 75 -269 63
-64 100 -75 244 -75 105 0 113 -1 136 -25 21 -20 25 -34 25 -80 l0 -55 -135 0
c-131 0 -137 1 -160 25 -14 13 -25 31 -25 40 0 12 -15 15 -80 15 -67 0 -80 -3
-80 -16 0 -100 124 -224 224 -224 13 0 16 -13 16 -80 l0 -80 80 0 80 0 0 80 0
80 120 0 120 0 0 136 c0 170 -9 204 -75 269 -63 64 -100 75 -244 75 -105 0
-113 1 -136 25 -21 20 -25 34 -25 80 l0 55 135 0 c131 0 137 -1 160 -25 14
-13 25 -31 25 -40 0 -12 15 -15 80 -15 67 0 80 3 80 16 0 76 -80 182 -157 208
-26 9 -55 16 -65 16 -16 0 -18 9 -18 80 l0 80 -80 0 -80 0 0 -80z"/>
</g>
</svg>
