<?xml version="1.0" standalone="no"?>
<!DOCTYPE svg PUBLIC "-//W3C//DTD SVG 20010904//EN"
 "http://www.w3.org/TR/2001/REC-SVG-20010904/DTD/svg10.dtd">
<svg version="1.0" xmlns="http://www.w3.org/2000/svg"
 width="512.000000pt" height="512.000000pt" viewBox="0 0 512.000000 512.000000"
 preserveAspectRatio="xMidYMid meet">

<g transform="translate(0.000000,512.000000) scale(0.100000,-0.100000)"
fill="#000000" stroke="none">
<path d="M386 5029 c-62 -15 -153 -68 -197 -116 -22 -24 -55 -74 -72 -111
l-32 -67 0 -2176 0 -2175 37 -76 c45 -91 103 -147 196 -191 l67 -32 1135 0
1135 0 67 32 c93 44 151 100 196 191 l37 76 3 688 3 688 342 0 342 0 240 -240
240 -240 226 0 227 0 12 -30 c28 -68 129 -130 210 -130 124 0 240 116 240 240
0 125 -114 240 -238 240 -83 0 -184 -62 -212 -130 l-12 -30 -192 0 -191 0
-240 240 -240 240 -377 0 -378 0 0 80 0 80 809 0 809 0 12 -30 c28 -68 129
-130 210 -130 124 0 240 116 240 240 0 125 -114 240 -238 240 -83 0 -184 -62
-212 -130 l-12 -30 -809 0 -809 0 0 80 0 80 378 0 377 0 240 240 240 240 191
0 192 0 12 -30 c28 -68 129 -130 210 -130 124 0 240 116 240 240 0 124 -116
240 -240 240 -81 0 -182 -62 -210 -130 l-12 -30 -227 0 -226 0 -240 -240 -240
-240 -342 0 -343 0 0 281 c0 154 3 279 8 277 4 -2 39 -20 79 -41 300 -155 639
-155 948 0 104 53 183 113 276 210 88 92 123 140 174 243 153 305 153 637 -2
945 -53 104 -113 183 -210 276 -93 89 -142 124 -249 177 -331 166 -736 143
-1032 -60 l-44 -30 -16 23 c-34 51 -108 113 -171 143 l-66 31 -1115 2 c-652 1
-1131 -3 -1154 -8z m2245 -161 c47 -13 113 -68 135 -110 15 -30 15 -31 -19
-67 -55 -58 -112 -141 -151 -218 l-36 -73 -1160 0 -1160 0 0 136 c0 78 5 154
12 178 15 51 99 137 148 153 51 16 2178 17 2231 1z m938 -2 c38 -20 96 -86
125 -145 21 -40 66 -149 66 -158 0 -2 -108 -3 -240 -3 -132 0 -240 1 -240 3 0
9 45 118 65 158 45 88 122 159 173 159 13 0 35 -6 51 -14z m-380 -105 c-16
-33 -40 -90 -53 -128 l-23 -68 -133 -3 -133 -3 15 23 c28 44 163 148 248 193
47 24 90 44 97 45 7 0 -1 -25 -18 -59z m729 20 c43 -22 102 -58 132 -81 67
-52 140 -121 140 -132 0 -5 -59 -7 -132 -6 l-131 3 -23 68 c-13 38 -37 95 -53
128 -16 32 -25 59 -20 59 5 0 44 -18 87 -39z m-848 -397 c0 -8 -4 -45 -9 -82
-6 -37 -13 -102 -16 -144 l-7 -78 -197 0 -198 0 9 58 c10 66 20 102 55 195
l26 67 169 0 c145 0 168 -2 168 -16z m734 -1 c6 -23 23 -148 31 -235 l7 -68
-322 0 -322 0 7 68 c8 87 25 212 31 235 5 16 27 17 284 17 257 0 279 -1 284
-17z m528 -51 c35 -88 46 -125 56 -194 l9 -58 -198 0 -197 0 -7 68 c-3 37 -10
103 -15 146 -6 44 -10 85 -10 93 0 10 34 13 168 13 l167 0 27 -68z m-1826
-109 c-27 -87 -32 -261 -11 -388 33 -203 145 -427 274 -549 l31 -30 0 -1244
c0 -948 -3 -1254 -12 -1286 -16 -55 -99 -138 -154 -154 -60 -17 -2168 -17
-2228 0 -55 16 -138 99 -154 154 -9 32 -12 444 -12 1778 l0 1736 1136 0 c1077
0 1135 -1 1130 -17z m539 -380 c4 -43 11 -107 16 -143 15 -111 32 -100 -158
-100 l-168 0 -27 68 c-35 88 -46 125 -56 195 l-9 57 198 0 197 0 7 -77z m790
10 c-8 -88 -25 -213 -31 -235 -5 -17 -27 -18 -284 -18 -257 0 -279 1 -284 18
-6 22 -23 147 -31 235 l-7 67 322 0 322 0 -7 -67z m553 6 c-9 -54 -34 -138
-69 -226 l-13 -33 -168 0 c-191 0 -174 -11 -159 100 5 36 12 100 16 143 l7 77
197 0 198 0 -9 -61z m-1252 -492 c13 -38 37 -95 53 -128 16 -32 25 -59 19 -59
-5 0 -49 20 -96 45 -86 44 -221 149 -250 193 l-15 23 133 -3 133 -3 23 -68z
m624 69 c0 -12 -61 -151 -83 -189 -31 -52 -97 -114 -132 -123 -80 -20 -167 67
-236 238 -16 38 -29 72 -29 74 0 2 108 4 240 4 132 0 240 -2 240 -4z m418 -18
c-29 -44 -164 -149 -250 -193 -47 -25 -91 -45 -96 -45 -6 0 5 30 23 68 18 37
40 92 50 122 10 30 20 58 22 63 2 4 63 7 135 7 l130 0 -14 -22z m677 -403 c16
-15 25 -36 25 -55 0 -19 -9 -40 -25 -55 -15 -16 -36 -25 -55 -25 -19 0 -40 9
-55 25 -16 15 -25 36 -25 55 0 19 9 40 25 55 15 16 36 25 55 25 19 0 40 -9 55
-25z m0 -800 c50 -49 15 -135 -55 -135 -41 0 -80 39 -80 80 0 41 39 80 80 80
19 0 40 -9 55 -25z m0 -800 c50 -49 15 -135 -55 -135 -41 0 -80 39 -80 80 0
41 39 80 80 80 19 0 40 -9 55 -25z m-3335 -1010 l1136 0 72 36 c79 39 81 37
60 -35 -16 -55 -99 -138 -154 -154 -60 -17 -2168 -17 -2228 0 -55 16 -138 99
-154 154 -21 72 -19 74 60 35 l72 -36 1136 0z"/>
<path d="M425 4695 c-50 -49 -15 -135 55 -135 41 0 80 39 80 80 0 41 -39 80
-80 80 -19 0 -40 -9 -55 -25z"/>
<path d="M1040 4640 l0 -80 480 0 480 0 0 80 0 80 -480 0 -480 0 0 -80z"/>
<path d="M1300 3906 c-194 -42 -362 -157 -468 -323 -22 -35 -48 -85 -58 -113
-10 -27 -23 -50 -30 -50 -35 0 -156 -75 -206 -128 -257 -269 -133 -703 229
-797 86 -23 1421 -22 1508 0 212 56 365 251 365 465 0 254 -222 480 -472 480
l-48 0 -24 54 c-82 185 -252 334 -451 396 -90 27 -254 35 -345 16z m263 -161
c204 -43 369 -209 423 -425 9 -36 17 -66 19 -68 2 -2 31 4 66 13 87 23 163 14
241 -27 66 -35 97 -67 136 -142 22 -43 26 -64 26 -136 0 -72 -4 -93 -26 -136
-39 -75 -70 -107 -140 -145 l-63 -34 -725 0 -725 0 -63 34 c-101 55 -158 142
-169 255 -15 162 85 294 256 337 l64 16 22 70 c31 98 71 168 136 234 138 139
327 195 522 154z"/>
<path d="M1377 2310 c-168 -30 -362 -125 -452 -219 l-29 -31 53 -54 54 -55 59
49 c260 209 629 210 899 2 l66 -50 54 54 53 54 -25 26 c-73 78 -239 169 -374
204 -90 24 -280 34 -358 20z"/>
<path d="M1371 1980 c-80 -21 -141 -53 -209 -108 l-44 -35 53 -53 c29 -30 57
-54 61 -54 4 0 28 16 54 35 65 50 168 79 253 72 81 -7 161 -36 212 -77 21 -16
42 -30 46 -30 5 0 33 24 62 54 l53 54 -51 40 c-138 109 -318 147 -490 102z"/>
<path d="M1436 1665 c-113 -40 -177 -152 -155 -272 12 -63 53 -120 114 -158
42 -26 58 -30 120 -30 62 0 78 4 121 30 107 66 146 203 89 315 -53 105 -178
155 -289 115z m128 -166 c20 -16 26 -29 26 -59 0 -70 -72 -103 -126 -57 -20
17 -27 33 -27 57 0 24 7 40 27 57 34 28 65 29 100 2z"/>
<path d="M1200 800 l0 -80 400 0 400 0 0 80 0 80 -400 0 -400 0 0 -80z"/>
</g>
</svg>
