<?xml version="1.0" standalone="no"?>
<!DOCTYPE svg PUBLIC "-//W3C//DTD SVG 20010904//EN"
 "http://www.w3.org/TR/2001/REC-SVG-20010904/DTD/svg10.dtd">
<svg version="1.0" xmlns="http://www.w3.org/2000/svg"
 width="512.000000pt" height="512.000000pt" viewBox="0 0 512.000000 512.000000"
 preserveAspectRatio="xMidYMid meet">

<g transform="translate(0.000000,512.000000) scale(0.100000,-0.100000)"
fill="#000000" stroke="none">
<path d="M1780 5109 c-76 -31 -108 -102 -90 -199 11 -60 8 -80 -11 -80 -16 0
-205 -89 -292 -138 -339 -189 -657 -485 -862 -802 -247 -381 -374 -788 -392
-1250 -8 -216 8 -385 43 -457 42 -86 137 -134 234 -118 58 10 130 62 157 114
23 44 23 48 17 270 -6 183 -4 251 10 358 40 308 146 598 309 843 86 129 137
191 261 317 101 105 119 128 119 155 0 38 -33 68 -76 68 -56 0 -292 -251 -428
-455 -134 -201 -253 -487 -304 -730 -38 -180 -48 -308 -42 -542 l6 -212 -26
-21 c-33 -26 -56 -25 -88 3 -23 20 -26 34 -36 132 -14 133 -6 389 16 535 57
380 215 750 447 1052 245 317 601 587 968 733 52 21 106 49 119 61 l25 23 -16
98 c-8 54 -15 99 -14 100 5 6 576 -211 576 -218 0 -9 -458 -389 -469 -389 -4
0 -13 35 -19 77 -26 164 -56 167 -324 31 -143 -73 -178 -100 -178 -142 0 -38
36 -76 72 -76 11 0 59 22 107 49 47 26 107 57 133 69 l47 20 6 -41 c13 -76 56
-124 128 -141 60 -14 96 9 362 229 266 219 294 250 295 315 0 37 -35 106 -62
124 -40 26 -621 238 -663 242 -22 2 -51 -1 -65 -7z"/>
<path d="M4350 5102 c-36 -9 -87 -30 -115 -46 -61 -35 -532 -499 -580 -572
-18 -27 -44 -79 -57 -115 -22 -63 -23 -74 -26 -504 -3 -312 0 -456 8 -493 15
-67 75 -134 135 -151 25 -7 153 -11 338 -11 l299 0 30 30 c24 25 29 36 24 58
-15 61 -18 62 -347 62 -286 0 -300 1 -319 20 -19 19 -20 33 -19 418 0 280 4
407 12 432 7 19 27 44 46 57 33 22 42 23 238 23 217 0 251 6 301 53 56 52 62
80 63 294 0 223 7 256 58 290 33 22 41 23 261 23 207 0 228 -2 243 -18 16 -17
17 -86 17 -790 l0 -771 -22 -15 c-18 -13 -51 -16 -155 -16 -120 0 -135 -2
-153 -20 -30 -30 -27 -83 6 -109 24 -19 40 -21 158 -21 154 0 194 9 246 56 74
67 71 25 68 914 -3 784 -3 796 -24 835 -11 22 -40 54 -63 70 l-43 30 -281 2
c-240 2 -292 0 -347 -15z m-137 -629 c-12 -9 -69 -13 -202 -13 l-186 0 200
200 200 200 3 -187 c2 -168 1 -189 -15 -200z"/>
<path d="M3987 4088 c-42 -33 -37 -106 9 -127 17 -7 130 -11 355 -11 l330 0
24 25 c14 13 25 36 25 50 0 14 -11 37 -25 50 l-24 25 -339 0 c-255 0 -342 -3
-355 -12z"/>
<path d="M3986 3768 c-36 -33 -39 -75 -6 -108 19 -19 33 -20 360 -20 l341 0
24 25 c14 13 25 36 25 50 0 14 -11 37 -25 50 l-24 25 -335 0 c-333 0 -335 0
-360 -22z"/>
<path d="M2424 3681 c-46 -12 -89 -46 -108 -86 -12 -25 -46 -226 -46 -272 0
-1 -28 -17 -62 -34 -35 -17 -82 -45 -105 -60 l-41 -29 -108 46 c-131 56 -161
62 -218 40 -56 -21 -71 -39 -146 -171 -106 -185 -97 -233 68 -356 l100 -74 -1
-125 0 -125 -98 -73 c-166 -123 -175 -172 -69 -357 75 -132 90 -150 146 -171
57 -22 87 -16 218 40 l108 46 41 -29 c23 -15 70 -43 105 -60 34 -17 62 -33 62
-34 0 -2 7 -55 15 -120 17 -138 34 -179 88 -215 40 -26 44 -27 196 -27 145 0
159 2 193 23 58 36 75 73 92 207 9 65 16 122 16 126 0 4 28 22 62 39 34 17 81
45 104 61 l42 29 108 -46 c131 -56 161 -62 218 -40 55 21 70 38 146 170 51 87
64 120 67 160 6 74 -17 108 -133 197 l-99 77 -1 121 -1 122 97 74 c120 91 135
112 135 190 0 56 -5 68 -64 170 -77 133 -92 150 -147 171 -57 22 -87 16 -218
-40 l-108 -46 -42 29 c-23 16 -70 44 -104 61 -34 17 -62 35 -62 39 0 4 -7 61
-16 126 -17 134 -34 171 -92 207 -33 20 -51 23 -172 25 -74 1 -149 -2 -166 -6z
m263 -153 c6 -7 17 -76 26 -152 14 -116 20 -143 38 -163 13 -12 27 -23 33 -23
24 0 134 -60 192 -104 36 -27 72 -46 87 -46 14 0 83 25 153 55 70 30 131 55
135 55 8 0 119 -192 119 -206 0 -5 -54 -50 -120 -99 -66 -49 -122 -97 -126
-107 -3 -9 0 -53 6 -98 8 -58 8 -102 0 -159 -8 -57 -8 -85 0 -102 6 -13 63
-62 126 -109 63 -46 114 -89 114 -94 0 -14 -111 -206 -119 -206 -4 0 -65 25
-135 55 -70 30 -139 55 -153 55 -15 0 -51 -19 -87 -46 -58 -44 -168 -104 -192
-104 -6 0 -20 -11 -33 -23 -18 -20 -24 -47 -38 -163 -9 -76 -20 -145 -26 -151
-13 -18 -221 -18 -234 0 -6 6 -17 75 -26 151 -18 161 -21 166 -127 209 -36 15
-94 50 -130 77 -38 28 -76 49 -91 50 -14 0 -83 -25 -153 -55 -70 -30 -131 -55
-136 -55 -8 0 -120 192 -120 207 1 4 53 46 116 93 64 47 120 93 126 103 6 12
6 47 -1 103 -7 58 -7 110 0 168 7 56 7 91 1 103 -6 10 -62 56 -126 103 -63 47
-115 89 -116 93 0 15 112 207 120 207 5 0 66 -25 136 -55 70 -30 139 -55 153
-55 15 1 53 22 91 50 36 27 94 62 130 77 106 43 109 48 127 209 9 76 20 145
26 152 6 8 43 12 117 12 74 0 111 -4 117 -12z"/>
<path d="M2451 3005 c-214 -60 -355 -261 -338 -480 13 -175 129 -331 295 -396
82 -33 242 -33 324 0 125 49 231 158 275 283 25 73 25 223 0 296 -44 125 -151
236 -275 282 -75 29 -207 36 -281 15z m220 -152 c41 -13 69 -32 114 -78 67
-67 95 -129 95 -215 0 -86 -28 -148 -95 -215 -67 -67 -129 -95 -215 -95 -112
0 -223 70 -278 174 -23 44 -27 63 -27 136 0 73 4 92 27 136 35 66 113 136 175
157 63 21 138 21 204 0z"/>
<path d="M4708 3051 c-49 -16 -95 -50 -124 -93 l-29 -41 0 -301 c-1 -269 -3
-313 -23 -413 -80 -403 -253 -739 -532 -1027 -157 -163 -341 -298 -539 -397
l-96 -49 -11 49 c-14 65 -45 105 -96 125 -66 27 -106 15 -202 -62 -446 -362
-486 -401 -486 -472 0 -36 32 -100 59 -119 15 -11 168 -72 341 -136 338 -126
361 -131 419 -88 62 47 76 98 58 206 -8 45 -7 47 20 58 65 24 214 96 301 145
601 341 1034 922 1183 1589 51 228 71 525 50 745 -15 151 -40 208 -113 253
-49 31 -132 43 -180 28z m107 -163 c23 -20 27 -35 36 -123 24 -217 -4 -553
-65 -785 -56 -217 -173 -480 -293 -665 -125 -190 -322 -406 -499 -547 -160
-127 -387 -259 -574 -333 -52 -21 -106 -49 -119 -61 l-25 -23 16 -98 c8 -54
15 -99 14 -100 -4 -5 -576 211 -576 217 0 9 445 379 464 386 9 3 16 -17 24
-73 22 -136 50 -153 170 -103 482 200 873 567 1102 1035 167 340 228 631 217
1037 l-6 217 26 21 c33 26 56 25 88 -2z"/>
<path d="M155 1561 c-51 -23 -118 -98 -133 -149 -8 -24 -12 -115 -12 -239 0
-210 7 -254 49 -311 19 -26 19 -27 -4 -57 -40 -54 -45 -89 -45 -300 0 -218 6
-255 55 -319 14 -18 49 -46 77 -62 l53 -29 483 0 484 0 19 24 c22 28 25 69 5
97 -14 18 -34 19 -491 24 l-477 5 -29 33 -29 32 0 196 0 196 29 29 29 29 851
0 850 0 28 -24 28 -24 0 -206 0 -206 -28 -27 -27 -28 -240 -3 -240 -3 -20 -26
c-26 -34 -25 -56 4 -90 l24 -28 239 0 c266 0 290 4 355 63 79 72 83 87 83 347
0 243 -3 261 -53 318 -14 15 -14 19 0 35 48 54 53 78 56 289 3 165 1 212 -13
258 -19 66 -68 125 -129 154 -42 21 -54 21 -917 21 -826 0 -876 -1 -914 -19z
m1781 -146 c40 -27 45 -62 42 -258 l-3 -187 -28 -27 -27 -28 -851 0 -851 0
-29 33 -29 32 0 196 0 196 29 29 29 29 849 0 c728 0 852 -2 869 -15z"/>
<path d="M380 1374 c-89 -38 -148 -140 -134 -232 9 -60 59 -131 113 -159 122
-64 279 9 309 144 37 167 -134 314 -288 247z m120 -152 c44 -36 17 -112 -41
-112 -28 0 -69 39 -69 65 0 23 41 65 65 65 12 0 33 -8 45 -18z"/>
<path d="M829 1362 c-68 -35 -108 -96 -115 -173 -15 -147 138 -266 281 -219
84 28 145 113 145 202 -1 167 -164 267 -311 190z m139 -138 c27 -18 30 -69 5
-96 -21 -24 -68 -23 -93 2 -26 26 -25 51 1 84 23 29 54 33 87 10z"/>
<path d="M1305 1225 c-32 -31 -33 -74 -2 -103 23 -21 30 -22 273 -22 249 0
251 0 272 23 29 31 28 72 -3 102 l-24 25 -246 0 -246 0 -24 -25z"/>
<path d="M375 701 c-167 -76 -175 -304 -14 -385 69 -34 128 -34 196 -1 124 62
155 220 65 325 -64 76 -162 100 -247 61z m125 -149 c44 -36 17 -112 -41 -112
-28 0 -69 39 -69 65 0 23 41 65 65 65 12 0 33 -8 45 -18z"/>
<path d="M829 692 c-144 -75 -156 -272 -22 -366 77 -53 188 -47 259 17 121
105 89 300 -58 361 -57 24 -118 20 -179 -12z m139 -138 c27 -18 30 -69 5 -96
-34 -38 -113 -8 -113 44 0 28 38 68 65 68 11 0 31 -7 43 -16z"/>
<path d="M1305 555 c-14 -13 -25 -36 -25 -50 0 -14 11 -37 25 -50 l24 -25 249
0 c247 0 249 0 270 23 29 31 28 72 -3 102 l-24 25 -246 0 -246 0 -24 -25z"/>
</g>
</svg>
