<svg width="680" height="683" viewBox="0 0 680 683" fill="none" xmlns="http://www.w3.org/2000/svg">
<path d="M236 1.15308C225.867 5.28641 221.6 14.7531 224 27.6864C225.467 35.6864 225.067 38.3531 222.533 38.3531C220.4 38.3531 195.2 50.2198 183.6 56.7531C138.4 81.9531 96 121.42 68.6667 163.686C35.7334 214.486 18.8 268.753 16.4 330.353C15.3334 359.153 17.4667 381.686 22.1334 391.286C27.7334 402.753 40.4 409.153 53.3334 407.02C61.0667 405.686 70.6667 398.753 74.2667 391.82C77.3334 385.953 77.3334 385.42 76.5334 355.82C75.7334 331.42 76 322.353 77.8667 308.086C83.2 267.02 97.3334 228.353 119.067 195.686C130.533 178.486 137.333 170.22 153.867 153.42C167.333 139.42 169.733 136.353 169.733 132.753C169.733 127.686 165.333 123.686 159.6 123.686C152.133 123.686 120.667 157.153 102.533 184.353C84.6667 211.153 68.8 249.286 62 281.686C56.9334 305.686 55.6 322.753 56.4 353.953L57.2 382.22L53.7334 385.02C49.3334 388.486 46.2667 388.353 42 384.62C38.9334 381.953 38.5334 380.086 37.2 367.02C35.3334 349.286 36.4 315.153 39.3334 295.686C46.9334 245.02 68 195.686 98.9334 155.42C131.6 113.153 179.067 77.1531 228 57.6864C234.933 54.8864 242.133 51.1531 243.867 49.5531L247.2 46.4864L245.067 33.4197C244 26.2198 243.067 20.2198 243.2 20.0864C243.867 19.2864 320 48.2198 320 49.1531C320 50.3531 258.933 101.02 257.467 101.02C256.933 101.02 255.733 96.3531 254.933 90.7531C251.467 68.8864 247.467 68.4864 211.733 86.6198C192.667 96.3531 188 99.9531 188 105.553C188 110.62 192.8 115.686 197.6 115.686C199.067 115.686 205.467 112.753 211.867 109.153C218.133 105.686 226.133 101.553 229.6 99.9531L235.867 97.2864L236.667 102.753C238.4 112.886 244.133 119.286 253.733 121.553C261.733 123.42 266.533 120.353 302 91.0197C337.467 61.8197 341.2 57.6864 341.333 49.0197C341.333 44.0864 336.667 34.8864 333.067 32.4864C327.733 29.0197 250.267 0.753082 244.667 0.219757C241.733 -0.0469055 237.867 0.353088 236 1.15308Z" fill="#9D9D9D"/>
<path d="M578.667 2.08638C573.867 3.28638 567.067 6.08638 563.333 8.21971C555.2 12.8864 492.4 74.753 486 84.4864C483.6 88.0864 480.133 95.0197 478.4 99.8197C475.467 108.22 475.333 109.686 474.933 167.02C474.533 208.62 474.933 227.82 476 232.753C478 241.686 486 250.62 494 252.886C497.333 253.82 514.4 254.353 539.067 254.353H578.933L582.933 250.353C586.133 247.02 586.8 245.553 586.133 242.62C584.133 234.486 583.733 234.353 539.867 234.353C501.733 234.353 499.867 234.22 497.333 231.686C494.8 229.153 494.667 227.286 494.8 175.953C494.8 138.62 495.333 121.686 496.4 118.353C497.333 115.82 500 112.486 502.533 110.753C506.933 107.82 508.133 107.686 534.267 107.686C563.2 107.686 567.733 106.886 574.4 100.62C581.867 93.6864 582.667 89.953 582.8 61.4197C582.8 31.6864 583.733 27.2864 590.533 22.753C594.933 19.8197 596 19.6864 625.333 19.6864C652.933 19.6864 655.733 19.953 657.733 22.0864C659.867 24.353 660 33.553 660 127.42V230.22L657.067 232.22C654.667 233.953 650.267 234.353 636.4 234.353C620.4 234.353 618.4 234.62 616 237.02C612 241.02 612.4 248.086 616.8 251.553C620 254.086 622.133 254.353 637.867 254.353C658.4 254.353 663.733 253.153 670.667 246.886C680.533 237.953 680.133 243.553 679.733 125.02C679.333 20.4864 679.333 18.8864 676.533 13.6864C675.067 10.753 671.2 6.48637 668.133 4.35304L662.4 0.353043L624.933 0.08638C592.933 -0.180298 586 0.08638 578.667 2.08638ZM560.4 85.953C558.8 87.153 551.2 87.6864 533.467 87.6864H508.667L535.333 61.0197L562 34.353L562.4 59.2864C562.667 81.6864 562.533 84.4864 560.4 85.953Z" fill="#9D9D9D"/>
<path d="M530.267 137.287C524.667 141.687 525.333 151.42 531.467 154.22C533.733 155.153 548.8 155.687 578.8 155.687H622.8L626 152.353C627.867 150.62 629.333 147.553 629.333 145.687C629.333 143.82 627.867 140.753 626 139.02L622.8 135.687H577.6C543.6 135.687 532 136.087 530.267 137.287Z" fill="#9D9D9D"/>
<path d="M530.133 179.953C525.333 184.353 524.933 189.953 529.333 194.353C531.867 196.886 533.733 197.02 577.333 197.02H622.8L626 193.686C627.867 191.953 629.333 188.886 629.333 187.02C629.333 185.153 627.867 182.086 626 180.353L622.8 177.02H578.133C533.733 177.02 533.467 177.02 530.133 179.953Z" fill="#9D9D9D"/>
<path d="M321.867 191.553C315.733 193.153 310 197.686 307.467 203.02C305.867 206.353 301.333 233.153 301.333 239.286C301.333 239.42 297.6 241.553 293.067 243.82C288.4 246.086 282.133 249.82 279.067 251.82L273.6 255.686L259.2 249.553C241.733 242.086 237.733 241.286 230.133 244.22C222.667 247.02 220.667 249.42 210.667 267.02C196.533 291.686 197.733 298.086 219.733 314.486L233.067 324.353L232.933 341.02V357.686L219.867 367.42C197.733 383.82 196.533 390.353 210.667 415.02C220.667 432.62 222.667 435.02 230.133 437.82C237.733 440.753 241.733 439.953 259.2 432.486L273.6 426.353L279.067 430.22C282.133 432.22 288.4 435.953 293.067 438.22C297.6 440.486 301.333 442.62 301.333 442.753C301.333 443.02 302.267 450.086 303.333 458.753C305.6 477.153 307.867 482.62 315.067 487.42C320.4 490.886 320.933 491.02 341.2 491.02C360.533 491.02 362.4 490.753 366.933 487.953C374.667 483.153 376.933 478.22 379.2 460.353C380.4 451.686 381.333 444.086 381.333 443.553C381.333 443.02 385.067 440.62 389.6 438.353C394.133 436.086 400.4 432.353 403.467 430.22L409.067 426.353L423.467 432.486C440.933 439.953 444.933 440.753 452.533 437.82C459.867 435.02 461.867 432.753 472 415.153C478.8 403.553 480.533 399.153 480.933 393.82C481.733 383.953 478.667 379.42 463.2 367.553L450 357.286L449.867 341.153L449.733 324.886L462.667 315.02C478.667 302.886 480.667 300.086 480.667 289.686C480.667 282.22 480 280.62 472.133 267.02C461.867 249.286 459.867 247.02 452.533 244.22C444.933 241.286 440.933 242.086 423.467 249.553L409.067 255.686L403.467 251.82C400.4 249.686 394.133 245.953 389.6 243.686C385.067 241.42 381.333 239.02 381.333 238.486C381.333 237.953 380.4 230.353 379.2 221.686C376.933 203.82 374.667 198.886 366.933 194.086C362.533 191.42 360.133 191.02 344 190.753C334.133 190.62 324.133 191.02 321.867 191.553ZM356.933 211.953C357.733 212.886 359.2 222.086 360.4 232.22C362.267 247.686 363.067 251.286 365.467 253.953C367.2 255.553 369.067 257.02 369.867 257.02C373.067 257.02 387.733 265.02 395.467 270.886C400.267 274.486 405.067 277.02 407.067 277.02C408.933 277.02 418.133 273.686 427.467 269.686C436.8 265.686 444.933 262.353 445.467 262.353C446.533 262.353 461.333 287.953 461.333 289.82C461.333 290.486 454.133 296.486 445.333 303.02C436.533 309.553 429.067 315.953 428.533 317.286C428.133 318.486 428.533 324.353 429.333 330.353C430.4 338.086 430.4 343.953 429.333 351.553C428.267 359.153 428.267 362.886 429.333 365.153C430.133 366.886 437.733 373.42 446.133 379.686C454.533 385.82 461.333 391.553 461.333 392.22C461.333 394.086 446.533 419.686 445.467 419.686C444.933 419.686 436.8 416.353 427.467 412.353C418.133 408.353 408.933 405.02 407.067 405.02C405.067 405.02 400.267 407.553 395.467 411.153C387.733 417.02 373.067 425.02 369.867 425.02C369.067 425.02 367.2 426.486 365.467 428.086C363.067 430.753 362.267 434.353 360.4 449.82C359.2 459.953 357.733 469.153 356.933 469.953C355.2 472.353 327.467 472.353 325.733 469.953C324.933 469.153 323.467 459.953 322.267 449.82C319.867 428.353 319.467 427.686 305.333 421.953C300.533 419.953 292.8 415.286 288 411.686C282.933 407.953 277.867 405.153 275.867 405.02C274 405.02 264.8 408.353 255.467 412.353C246.133 416.353 238 419.686 237.333 419.686C236.267 419.686 221.333 394.086 221.333 392.086C221.467 391.553 228.4 385.953 236.8 379.686C245.333 373.42 252.8 367.286 253.6 365.953C254.4 364.353 254.4 359.686 253.467 352.22C252.533 344.486 252.533 337.553 253.467 329.82C254.4 322.353 254.4 317.686 253.6 316.086C252.8 314.753 245.333 308.62 236.8 302.353C228.4 296.086 221.467 290.486 221.333 289.953C221.333 287.953 236.267 262.353 237.333 262.353C238 262.353 246.133 265.686 255.467 269.686C264.8 273.686 274 277.02 275.867 277.02C277.867 276.886 282.933 274.086 288 270.353C292.8 266.753 300.533 262.086 305.333 260.086C319.467 254.353 319.867 253.686 322.267 232.22C323.467 222.086 324.933 212.886 325.733 211.953C326.533 210.886 331.467 210.353 341.333 210.353C351.2 210.353 356.133 210.886 356.933 211.953Z" fill="#407BFF"/>
<path d="M325.467 281.686C296.933 289.686 278.133 316.486 280.4 345.686C282.133 369.019 297.6 389.819 319.733 398.486C330.667 402.886 352 402.886 362.933 398.486C379.6 391.953 393.733 377.419 399.6 360.753C402.933 351.019 402.933 331.019 399.6 321.286C393.733 304.619 379.467 289.819 362.933 283.686C352.933 279.819 335.333 278.886 325.467 281.686ZM354.8 301.953C360.267 303.686 364 306.219 370 312.353C378.933 321.286 382.667 329.553 382.667 341.019C382.667 352.486 378.933 360.753 370 369.686C361.067 378.619 352.8 382.353 341.333 382.353C326.4 382.353 311.6 373.019 304.267 359.153C301.2 353.286 300.667 350.753 300.667 341.019C300.667 331.286 301.2 328.753 304.267 322.886C308.933 314.086 319.333 304.753 327.6 301.953C336 299.153 346 299.153 354.8 301.953Z" fill="#9D9D9D"/>
<path d="M626.4 275.553C619.867 277.686 613.733 282.22 609.867 287.953L606 293.42V333.553C605.867 369.42 605.6 375.286 602.933 388.62C592.267 442.353 569.2 487.153 532 525.553C511.067 547.286 486.533 565.286 460.133 578.486L447.333 585.02L445.867 578.486C444 569.82 439.867 564.486 433.067 561.82C424.267 558.22 418.933 559.82 406.133 570.086C346.667 618.353 341.333 623.553 341.333 633.02C341.333 637.82 345.6 646.353 349.2 648.886C351.2 650.353 371.6 658.486 394.667 667.02C439.733 683.82 442.8 684.486 450.533 678.753C458.8 672.486 460.667 665.686 458.267 651.286C457.2 645.286 457.333 645.02 460.933 643.553C469.6 640.353 489.467 630.753 501.067 624.22C581.2 578.753 638.933 501.286 658.8 412.353C665.6 381.953 668.267 342.353 665.467 313.02C663.467 292.886 660.133 285.286 650.4 279.286C643.867 275.153 632.8 273.553 626.4 275.553ZM640.667 297.286C643.733 299.953 644.267 301.953 645.467 313.686C648.667 342.62 644.933 387.42 636.8 418.353C629.333 447.286 613.733 482.353 597.733 507.02C581.067 532.353 554.8 561.153 531.2 579.953C509.867 596.886 479.6 614.486 454.667 624.353C447.733 627.153 440.533 630.886 438.8 632.486L435.467 635.553L437.6 648.62C438.667 655.82 439.6 661.82 439.467 661.953C438.933 662.62 362.667 633.82 362.667 633.02C362.667 631.82 422 582.486 424.533 581.553C425.733 581.153 426.667 583.82 427.733 591.286C430.667 609.42 434.4 611.686 450.4 605.02C514.667 578.353 566.8 529.42 597.333 467.02C619.6 421.686 627.733 382.886 626.267 328.753L625.467 299.82L628.933 297.02C633.333 293.553 636.4 293.686 640.667 297.286Z" fill="#9D9D9D"/>
<path d="M19.3333 474.219C12.5333 477.286 3.6 487.286 1.6 494.086C0.533333 497.286 0 509.419 0 525.953C0 553.953 0.933333 559.819 6.53333 567.419C9.06667 570.886 9.06667 571.019 6 575.019C0.666667 582.219 0 586.886 0 615.019C0 644.086 0.8 649.019 7.33333 657.553C9.2 659.953 13.8667 663.686 17.6 665.819L24.6667 669.686H89.0667H153.6L156.133 666.486C159.067 662.753 159.467 657.286 156.8 653.553C154.933 651.153 152.267 651.019 91.3333 650.353L27.7333 649.686L23.8667 645.286L20 641.019V614.886V588.753L23.8667 584.886L27.7333 581.019H141.2H254.533L258.267 584.219L262 587.419V614.886V642.353L258.267 645.953L254.667 649.686L222.667 650.086L190.667 650.486L188 653.953C184.533 658.486 184.667 661.419 188.533 665.953L191.733 669.686H223.6C259.067 669.686 262.267 669.153 270.933 661.286C281.467 651.686 282 649.686 282 615.019C282 582.619 281.6 580.219 274.933 572.619C273.067 570.619 273.067 570.086 274.933 567.953C281.333 560.753 282 557.553 282.4 529.419C282.8 507.419 282.533 501.153 280.667 495.019C278.133 486.219 271.6 478.353 263.467 474.486C257.867 471.686 256.267 471.686 141.2 471.686C31.0667 471.686 24.4 471.819 19.3333 474.219ZM256.8 493.686C262.133 497.286 262.8 501.953 262.4 528.086L262 553.019L258.267 556.619L254.667 560.353H141.2H27.7333L23.8667 555.953L20 551.686V525.553V499.419L23.8667 495.553L27.7333 491.686H140.933C238 491.686 254.533 491.953 256.8 493.686Z" fill="#9D9D9D"/>
<path d="M49.3333 499.153C37.4666 504.22 29.6 517.82 31.4666 530.086C32.6666 538.086 39.3333 547.553 46.5333 551.286C62.8 559.82 83.7333 550.086 87.7333 532.086C92.6666 509.82 69.8666 490.22 49.3333 499.153ZM65.3333 519.42C71.2 524.22 67.6 534.353 59.8666 534.353C56.1333 534.353 50.6666 529.153 50.6666 525.686C50.6666 522.62 56.1333 517.02 59.3333 517.02C60.9333 517.02 63.7333 518.086 65.3333 519.42Z" fill="#9D9D9D"/>
<path d="M109.2 500.753C100.133 505.42 94.8 513.553 93.8666 523.82C91.8666 543.42 112.267 559.286 131.333 553.02C142.533 549.286 150.667 537.953 150.667 526.086C150.533 503.82 128.8 490.486 109.2 500.753ZM127.733 519.153C131.333 521.553 131.733 528.353 128.4 531.953C125.6 535.153 119.333 535.02 116 531.686C112.533 528.22 112.667 524.886 116.133 520.486C119.2 516.62 123.333 516.086 127.733 519.153Z" fill="#9D9D9D"/>
<path d="M172.667 519.019C168.4 523.153 168.267 528.886 172.4 532.753C175.467 535.553 176.4 535.686 208.8 535.686C242 535.686 242.267 535.686 245.067 532.619C248.933 528.486 248.8 523.019 244.667 519.019L241.467 515.686H208.667H175.867L172.667 519.019Z" fill="#9D9D9D"/>
<path d="M48.6667 588.886C26.4 599.019 25.3333 629.419 46.8 640.219C56 644.753 63.8667 644.753 72.9333 640.353C89.4667 632.086 93.6 611.019 81.6 597.019C73.0667 586.886 60 583.686 48.6667 588.886ZM65.3333 608.753C71.2 613.553 67.6 623.686 59.8667 623.686C56.1333 623.686 50.6667 618.486 50.6667 615.019C50.6667 611.953 56.1333 606.353 59.3333 606.353C60.9333 606.353 63.7333 607.419 65.3333 608.753Z" fill="#9D9D9D"/>
<path d="M109.2 590.086C90 600.086 88.4 626.353 106.267 638.886C116.533 645.953 131.333 645.153 140.8 636.62C156.933 622.62 152.667 596.62 133.067 588.486C125.467 585.286 117.333 585.82 109.2 590.086ZM127.733 608.486C131.333 610.886 131.733 617.686 128.4 621.286C123.867 626.353 113.333 622.353 113.333 615.42C113.333 611.686 118.4 606.353 122 606.353C123.467 606.353 126.133 607.286 127.733 608.486Z" fill="#9D9D9D"/>
<path d="M172.667 608.353C170.8 610.086 169.333 613.153 169.333 615.02C169.333 616.886 170.8 619.953 172.667 621.686L175.867 625.02H209.067C242 625.02 242.267 625.02 245.067 621.953C248.933 617.82 248.8 612.353 244.667 608.353L241.467 605.02H208.667H175.867L172.667 608.353Z" fill="#9D9D9D"/>
</svg>
