<svg width="661" height="661" viewBox="0 0 661 661" fill="none" xmlns="http://www.w3.org/2000/svg">
<path d="M40.1333 1.21649C31.8667 3.21649 19.7333 10.2831 13.8667 16.6832C10.9333 19.8831 6.53333 26.5498 4.26667 31.4832L0 40.4164V330.55V620.55L4.93333 630.683C10.9333 642.817 18.6667 650.283 31.0667 656.15L40 660.417H191.333H342.667L351.6 656.15C364 650.283 371.733 642.817 377.733 630.683L382.667 620.55L383.067 528.816L383.467 437.083H429.067H474.667L506.667 469.083L538.667 501.083H568.8H599.067L600.667 505.083C604.4 514.15 617.867 522.417 628.667 522.417C645.2 522.417 660.667 506.95 660.667 490.416C660.667 473.75 645.467 458.416 628.933 458.416C617.867 458.416 604.4 466.683 600.667 475.75L599.067 479.75H573.467H548L516 447.75L484 415.75H433.733H383.333V405.083V394.417H491.2H599.067L600.667 398.417C604.4 407.483 617.867 415.75 628.667 415.75C645.2 415.75 660.667 400.283 660.667 383.75C660.667 367.083 645.467 351.75 628.933 351.75C617.867 351.75 604.4 360.016 600.667 369.083L599.067 373.083H491.2H383.333V362.416V351.75H433.733H484L516 319.75L548 287.75H573.467H599.067L600.667 291.75C604.4 300.816 617.867 309.083 628.667 309.083C645.2 309.083 660.667 293.616 660.667 277.083C660.667 260.55 645.2 245.083 628.667 245.083C617.867 245.083 604.4 253.35 600.667 262.416L599.067 266.416H568.8H538.667L506.667 298.416L474.667 330.416H429.067H383.333V292.95C383.333 272.416 383.733 255.75 384.4 256.016C384.933 256.283 389.6 258.683 394.933 261.483C434.933 282.15 480.133 282.15 521.333 261.483C535.2 254.416 545.733 246.416 558.133 233.483C569.867 221.216 574.533 214.816 581.333 201.083C601.733 160.416 601.733 116.15 581.067 75.0831C574 61.2165 566 50.6832 553.067 38.2831C540.667 26.4164 534.133 21.7498 519.867 14.6832C475.733 -7.4502 421.733 -4.38354 382.267 22.6832L376.4 26.6832L374.267 23.6165C369.733 16.8165 359.867 8.5498 351.467 4.5498L342.667 0.416443L194 0.14978C107.067 0.0164795 43.2 0.549805 40.1333 1.21649ZM339.467 22.6832C345.733 24.4164 354.533 31.7498 357.467 37.3498C359.467 41.3498 359.467 41.4832 354.933 46.2831C347.6 54.0165 340 65.0831 334.8 75.3498L330 85.0831H175.333H20.6667V66.9498C20.6667 56.5498 21.3333 46.4164 22.2667 43.2165C24.2667 36.4164 35.4667 24.9498 42 22.8165C48.8 20.6832 332.4 20.5498 339.467 22.6832ZM464.533 22.9498C469.6 25.6165 477.333 34.4164 481.2 42.2831C484 47.6165 490 62.1498 490 63.3498C490 63.6165 475.6 63.7498 458 63.7498C440.4 63.7498 426 63.6165 426 63.3498C426 62.1498 432 47.6165 434.667 42.2831C440.667 30.5498 450.933 21.0831 457.733 21.0831C459.467 21.0831 462.4 21.8831 464.533 22.9498ZM413.867 36.9498C411.733 41.3498 408.533 48.9498 406.8 54.0165L403.733 63.0831L386 63.4832L368.267 63.8831L370.267 60.8165C374 54.9498 392 41.0831 403.333 35.0831C409.6 31.8831 415.333 29.2165 416.267 29.0831C417.2 29.0831 416.133 32.4164 413.867 36.9498ZM511.067 34.2831C516.8 37.2165 524.667 42.0165 528.667 45.0831C537.6 52.0165 547.333 61.2165 547.333 62.6832C547.333 63.3498 539.467 63.6165 529.733 63.4832L512.267 63.0831L509.2 54.0165C507.467 48.9498 504.267 41.3498 502.133 36.9498C500 32.6832 498.8 29.0831 499.467 29.0831C500.133 29.0831 505.333 31.4832 511.067 34.2831ZM398 87.2165C398 88.2831 397.467 93.2165 396.8 98.1498C396 103.083 395.067 111.75 394.667 117.35L393.733 127.75H367.467H341.067L342.267 120.016C343.6 111.216 344.933 106.417 349.6 94.0165L353.067 85.0831H375.6C394.933 85.0831 398 85.3498 398 87.2165ZM495.867 87.3498C496.667 90.4165 498.933 107.083 500 118.683L500.933 127.75H458H415.067L416 118.683C417.067 107.083 419.333 90.4165 420.133 87.3498C420.8 85.2165 423.733 85.0831 458 85.0831C492.267 85.0831 495.2 85.2165 495.867 87.3498ZM566.267 94.1498C570.933 105.883 572.4 110.816 573.733 120.016L574.933 127.75H548.533H522.267L521.333 118.683C520.933 113.75 520 104.95 519.333 99.2165C518.533 93.3498 518 87.8831 518 86.8165C518 85.4832 522.533 85.0831 540.4 85.0831H562.667L566.267 94.1498ZM322.8 108.683C319.2 120.283 318.533 143.483 321.333 160.416C325.733 187.483 340.667 217.35 357.867 233.616L362 237.616V403.483C362 529.883 361.6 570.683 360.4 574.95C358.267 582.283 347.2 593.35 339.867 595.483C331.867 597.75 50.8 597.75 42.8 595.483C35.4667 593.35 24.4 582.283 22.2667 574.95C21.0667 570.683 20.6667 515.75 20.6667 337.883V106.417H172.133C315.733 106.417 323.467 106.55 322.8 108.683ZM394.667 159.35C395.2 165.083 396.133 173.616 396.8 178.416C398.8 193.216 401.067 191.75 375.733 191.75H353.333L349.733 182.683C345.067 170.95 343.6 166.016 342.267 156.683L341.067 149.083H367.467H393.733L394.667 159.35ZM500 158.016C498.933 169.75 496.667 186.416 495.867 189.35C495.2 191.616 492.267 191.75 458 191.75C423.733 191.75 420.8 191.616 420.133 189.35C419.333 186.416 417.067 169.75 416 158.016L415.067 149.083H458H500.933L500 158.016ZM573.733 157.216C572.533 164.416 569.2 175.616 564.533 187.35L562.8 191.75H540.4C514.933 191.75 517.2 193.216 519.2 178.416C519.867 173.616 520.8 165.083 521.333 159.35L522.267 149.083H548.533H574.933L573.733 157.216ZM406.8 222.816C408.533 227.883 411.733 235.483 413.867 239.883C416 244.15 417.2 247.75 416.4 247.75C415.733 247.75 409.867 245.083 403.6 241.75C392.133 235.883 374.133 221.883 370.267 216.016L368.267 212.95L386 213.35L403.733 213.75L406.8 222.816ZM490 213.616C490 215.216 481.867 233.75 478.933 238.816C474.8 245.75 466 254.016 461.333 255.216C450.667 257.883 439.067 246.283 429.867 223.483C427.733 218.416 426 213.883 426 213.616C426 213.35 440.4 213.083 458 213.083C475.6 213.083 490 213.35 490 213.616ZM545.733 216.016C541.867 221.883 523.867 235.883 512.4 241.75C506.133 245.083 500.267 247.75 499.6 247.75C498.8 247.75 500.267 243.75 502.667 238.683C505.067 233.75 508 226.416 509.333 222.416C510.667 218.416 512 214.683 512.267 214.016C512.533 213.483 520.667 213.083 530.267 213.083H547.6L545.733 216.016ZM636 269.75C638.133 271.75 639.333 274.55 639.333 277.083C639.333 279.616 638.133 282.416 636 284.416C634 286.55 631.2 287.75 628.667 287.75C626.133 287.75 623.333 286.55 621.333 284.416C619.2 282.416 618 279.616 618 277.083C618 274.55 619.2 271.75 621.333 269.75C623.333 267.616 626.133 266.416 628.667 266.416C631.2 266.416 634 267.616 636 269.75ZM636 376.417C642.667 382.95 638 394.417 628.667 394.417C623.2 394.417 618 389.216 618 383.75C618 378.283 623.2 373.083 628.667 373.083C631.2 373.083 634 374.283 636 376.417ZM636 483.083C642.667 489.617 638 501.083 628.667 501.083C623.2 501.083 618 495.883 618 490.416C618 484.95 623.2 479.75 628.667 479.75C631.2 479.75 634 480.95 636 483.083ZM191.333 617.75H342.8L352.4 612.95C362.933 607.75 363.2 608.017 360.4 617.617C358.267 624.95 347.2 636.017 339.867 638.15C331.867 640.417 50.8 640.417 42.8 638.15C35.4667 636.017 24.4 624.95 22.2667 617.617C19.4667 608.017 19.7333 607.75 30.2667 612.95L39.8667 617.75H191.333Z" fill="#9D9D9D"/>
<path d="M45.3333 45.75C38.6667 52.2833 43.3333 63.75 52.6667 63.75C58.1333 63.75 63.3333 58.55 63.3333 53.0833C63.3333 47.6167 58.1333 42.4167 52.6667 42.4167C50.1333 42.4167 47.3333 43.6167 45.3333 45.75Z" fill="#9D9D9D"/>
<path d="M127.333 53.0833V63.75H191.333H255.333V53.0833V42.4167H191.333H127.333V53.0833Z" fill="#9D9D9D"/>
<path d="M162 150.95C136.133 156.55 113.733 171.883 99.6 194.017C96.6667 198.683 93.2 205.35 91.8667 209.083C90.5333 212.683 88.8 215.75 87.8667 215.75C83.2 215.75 67.0667 225.75 60.4 232.817C26.1333 268.683 42.6667 326.55 90.9333 339.083C102.4 342.15 280.4 342.017 292 339.083C320.267 331.617 340.667 305.617 340.667 277.083C340.667 243.217 311.067 213.083 277.733 213.083H271.333L268.133 205.883C257.2 181.217 234.533 161.35 208 153.083C196 149.483 174.133 148.417 162 150.95ZM197.067 172.417C224.267 178.15 246.267 200.283 253.467 229.083C254.667 233.883 255.733 237.883 256 238.15C256.267 238.417 260.133 237.617 264.8 236.417C276.4 233.35 286.533 234.55 296.933 240.017C305.733 244.683 309.867 248.95 315.067 258.95C318 264.683 318.533 267.483 318.533 277.083C318.533 286.683 318 289.483 315.067 295.217C309.867 305.217 305.733 309.483 296.4 314.55L288 319.083H191.333H94.6667L86.2667 314.55C72.8 307.217 65.2 295.617 63.7333 280.55C61.7333 258.95 75.0667 241.35 97.8667 235.617L106.4 233.483L109.333 224.15C113.467 211.083 118.8 201.75 127.467 192.95C145.867 174.417 171.067 166.95 197.067 172.417Z" fill="#407BFF"/>
<path d="M172.267 363.75C149.867 367.75 124 380.417 112 392.95L108.133 397.083L115.2 404.283L122.4 411.617L130.267 405.083C164.933 377.217 214.133 377.083 250.133 404.817L258.933 411.483L266.133 404.283L273.2 397.083L269.867 393.617C260.133 383.217 238 371.083 220 366.417C208 363.217 182.667 361.883 172.267 363.75Z" fill="#407BFF"/>
<path d="M171.467 407.75C160.8 410.55 152.667 414.816 143.6 422.15L137.733 426.816L144.8 433.883C148.667 437.883 152.4 441.083 152.933 441.083C153.467 441.083 156.667 438.95 160.133 436.416C168.8 429.75 182.533 425.883 193.867 426.816C204.667 427.75 215.333 431.616 222.133 437.083C224.933 439.216 227.733 441.083 228.267 441.083C228.933 441.083 232.667 437.883 236.533 433.883L243.6 426.683L236.8 421.35C218.4 406.816 194.4 401.75 171.467 407.75Z" fill="#407BFF"/>
<path d="M180.133 449.75C165.067 455.083 156.533 470.016 159.467 486.016C161.067 494.416 166.533 502.016 174.667 507.083C180.267 510.55 182.4 511.083 190.667 511.083C198.933 511.083 201.067 510.55 206.8 507.083C221.067 498.283 226.267 480.016 218.667 465.083C211.6 451.083 194.933 444.416 180.133 449.75ZM197.2 471.883C199.867 474.016 200.667 475.75 200.667 479.75C200.667 489.083 191.067 493.483 183.867 487.35C181.2 485.083 180.267 482.95 180.267 479.75C180.267 476.55 181.2 474.416 183.867 472.15C188.4 468.416 192.533 468.283 197.2 471.883Z" fill="#407BFF"/>
<path d="M148.667 565.083V575.75H202H255.333V565.083V554.417H202H148.667V565.083Z" fill="#9D9D9D"/>
</svg>
