<?xml version="1.0" standalone="no"?>
<!DOCTYPE svg PUBLIC "-//W3C//DTD SVG 20010904//EN"
 "http://www.w3.org/TR/2001/REC-SVG-20010904/DTD/svg10.dtd">
<svg version="1.0" xmlns="http://www.w3.org/2000/svg"
 width="512.000000pt" height="512.000000pt" viewBox="0 0 512.000000 512.000000"
 preserveAspectRatio="xMidYMid meet">

<g transform="translate(0.000000,512.000000) scale(0.100000,-0.100000)"
fill="#000000" stroke="none">
<path d="M80 4320 l0 -720 560 0 560 0 0 320 0 320 400 0 400 0 0 -320 0 -320
384 0 384 0 5 -52 c3 -29 10 -71 17 -94 20 -62 -6 -108 -88 -154 -69 -38 -106
-79 -126 -137 l-13 -38 -970 -5 -969 -5 -76 -37 c-91 -45 -147 -103 -191 -196
l-32 -67 -3 -967 c-2 -882 -4 -968 -19 -968 -76 0 -188 -88 -211 -166 -26 -87
-8 -202 48 -320 74 -154 234 -276 400 -304 46 -8 471 -10 1420 -8 l1355 3 66
26 c37 14 87 38 113 53 58 34 149 125 183 184 66 112 98 268 73 357 -25 88
-130 175 -212 175 -17 0 -18 25 -18 560 l0 560 79 0 c134 0 206 39 260 140 48
90 103 116 177 85 54 -23 141 -22 198 4 59 26 151 117 177 176 26 58 27 130 4
199 -17 49 -17 58 -4 92 14 37 26 48 118 104 76 45 111 122 111 240 0 135 -42
208 -155 268 -68 37 -94 87 -75 146 7 23 14 65 17 94 l5 52 304 0 304 0 0 720
0 720 -560 0 -560 0 0 -320 0 -320 -400 0 -400 0 0 320 0 320 -560 0 -560 0 0
-320 0 -320 -400 0 -400 0 0 320 0 320 -560 0 -560 0 0 -720z m960 0 l0 -560
-400 0 -400 0 0 560 0 560 400 0 400 0 0 -560z m1920 48 l0 -513 -60 -47 -60
-48 -340 0 -340 0 0 560 0 560 400 0 400 0 0 -512z m1920 -48 l0 -560 -261 0
-260 0 -47 39 c-61 52 -109 71 -177 71 l-55 0 0 505 0 505 400 0 400 0 0 -560z
m-960 -271 c0 -215 -2 -219 -61 -108 -53 99 -127 139 -259 139 -133 0 -206
-39 -259 -140 -18 -33 -44 -68 -59 -78 -29 -19 -93 -21 -134 -4 l-28 12 0 185
0 185 400 0 400 0 0 -191z m-232 -145 c12 -8 31 -37 43 -65 53 -122 211 -187
343 -140 51 18 62 19 90 7 37 -16 91 -71 104 -106 7 -18 4 -40 -9 -80 -24 -74
-23 -127 2 -194 29 -74 77 -128 138 -155 67 -29 81 -51 81 -131 0 -80 -14
-102 -81 -131 -61 -27 -109 -81 -138 -155 -25 -67 -26 -120 -2 -194 22 -65 16
-88 -36 -142 -51 -52 -76 -59 -143 -37 -74 24 -127 23 -194 -2 -74 -29 -128
-77 -155 -138 -28 -65 -52 -81 -122 -81 -94 0 -89 -9 -89 169 l0 156 93 1
c101 0 164 16 259 67 67 35 167 130 205 194 133 228 100 504 -83 687 -254 253
-668 208 -863 -94 -38 -59 -81 -166 -81 -202 0 -17 -12 -18 -161 -18 -106 0
-158 3 -154 10 4 6 33 24 65 40 68 35 110 82 139 157 26 68 27 118 1 189 -17
49 -18 60 -6 88 16 38 71 91 108 105 20 8 39 5 82 -10 71 -25 121 -24 190 2
74 29 128 77 155 138 29 67 51 81 131 81 43 0 73 -5 88 -16z m76 -502 c91 -42
149 -100 194 -190 35 -72 37 -81 37 -172 0 -91 -2 -100 -37 -172 -68 -136
-187 -216 -336 -225 -42 -2 -82 -1 -88 4 -6 4 -14 45 -17 90 l-5 82 25 -10
c131 -50 303 81 303 231 0 124 -116 240 -240 240 -115 0 -240 -116 -240 -222
0 -12 -12 -9 -57 13 -32 15 -66 31 -75 33 -25 7 -22 32 11 101 53 111 154 196
267 225 72 18 187 5 258 -28z m-109 -307 c16 -15 25 -36 25 -55 0 -19 -9 -40
-25 -55 -15 -16 -36 -25 -55 -25 -19 0 -40 9 -55 25 -16 15 -25 36 -25 55 0
19 9 40 25 55 15 16 36 25 55 25 19 0 40 -9 55 -25z m-461 -147 c55 -16 138
-99 154 -154 9 -31 12 -272 12 -978 l0 -936 -1440 0 -1440 0 0 936 c0 706 3
947 12 978 15 51 99 137 148 153 53 17 2498 17 2554 1z m-1834 -2284 c0 -31 5
-75 12 -98 16 -55 99 -138 154 -154 58 -17 730 -17 788 0 55 16 138 99 154
154 7 23 12 67 12 98 l0 56 535 0 536 0 26 -26 c24 -24 25 -30 20 -91 -13
-139 -96 -257 -225 -321 l-76 -37 -1376 0 -1376 0 -76 37 c-129 64 -212 182
-225 321 -5 61 -4 67 20 91 l26 26 536 0 535 0 0 -56z m960 1 c0 -46 -4 -60
-25 -80 l-24 -25 -351 0 -351 0 -24 25 c-21 20 -25 34 -25 80 l0 55 400 0 400
0 0 -55z"/>
<path d="M400 4640 l0 -80 240 0 240 0 0 80 0 80 -240 0 -240 0 0 -80z"/>
<path d="M400 4320 l0 -80 240 0 240 0 0 80 0 80 -240 0 -240 0 0 -80z"/>
<path d="M400 4000 l0 -80 240 0 240 0 0 80 0 80 -240 0 -240 0 0 -80z"/>
<path d="M2320 4640 l0 -80 240 0 240 0 0 80 0 80 -240 0 -240 0 0 -80z"/>
<path d="M2320 4320 l0 -80 240 0 240 0 0 80 0 80 -240 0 -240 0 0 -80z"/>
<path d="M2320 4000 l0 -80 240 0 240 0 0 80 0 80 -240 0 -240 0 0 -80z"/>
<path d="M4240 4640 l0 -80 240 0 240 0 0 80 0 80 -240 0 -240 0 0 -80z"/>
<path d="M4240 4320 l0 -80 240 0 240 0 0 80 0 80 -240 0 -240 0 0 -80z"/>
<path d="M4240 4000 l0 -80 240 0 240 0 0 80 0 80 -240 0 -240 0 0 -80z"/>
<path d="M735 2786 c-41 -18 -83 -69 -90 -109 -3 -18 -5 -370 -3 -784 3 -741
3 -752 24 -779 11 -15 33 -37 48 -48 27 -21 31 -21 1206 -21 1175 0 1179 0
1206 21 15 11 37 33 48 48 21 27 21 35 21 806 0 771 0 779 -21 806 -11 15 -33
37 -48 48 -27 21 -33 21 -1194 23 -955 2 -1173 0 -1197 -11z m2305 -866 l0
-720 -1120 0 -1120 0 0 720 0 720 1120 0 1120 0 0 -720z"/>
<path d="M1793 2465 c-135 -29 -294 -145 -353 -257 l-25 -48 -56 0 c-156 0
-292 -89 -363 -239 -28 -60 -31 -75 -31 -162 0 -90 2 -99 37 -171 45 -91 103
-147 196 -191 l67 -32 656 0 655 0 76 37 c91 45 147 103 191 196 29 61 32 76
32 162 0 86 -3 101 -31 161 -71 150 -207 239 -363 239 l-56 0 -25 48 c-37 70
-134 161 -217 205 -121 63 -256 81 -390 52z m215 -155 c143 -33 254 -142 302
-295 7 -22 14 -43 16 -46 2 -4 31 2 65 12 112 35 179 20 254 -56 52 -51 75
-102 75 -165 0 -92 -80 -202 -166 -228 -59 -17 -1209 -17 -1268 0 -55 16 -138
99 -154 154 -28 94 -8 169 63 239 75 76 142 91 254 56 34 -10 63 -16 65 -12 2
3 9 24 16 46 68 218 270 343 478 295z"/>
</g>
</svg>
