<svg width="662" height="662" viewBox="0 0 662 662" fill="none" xmlns="http://www.w3.org/2000/svg">
<path d="M0 96.0002V192H74.6667H149.333V149.334V106.667H202.667H256V149.334V192H307.2H358.4L359.067 198.934C359.467 202.8 360.4 208.4 361.333 211.467C364 219.734 360.533 225.867 349.6 232C340.4 237.067 335.467 242.534 332.8 250.267L331.067 255.334L201.733 256L72.5333 256.667L62.4 261.6C50.2667 267.6 42.8 275.334 36.9333 287.734L32.6667 296.667L32.2667 425.6C32 543.2 31.7333 554.667 29.7333 554.667C19.6 554.667 4.66667 566.4 1.6 576.8C-1.86667 588.4 0.533333 603.734 8 619.467C17.8667 640 39.2 656.267 61.3333 660C67.4667 661.067 124.133 661.334 250.667 661.067L431.333 660.667L440.133 657.2C445.067 655.334 451.733 652.134 455.2 650.134C462.933 645.6 475.067 633.467 479.6 625.6C488.4 610.667 492.667 589.867 489.333 578C486 566.267 472 554.667 461.067 554.667C458.8 554.667 458.667 551.334 458.667 480V405.334H469.2C487.067 405.334 496.667 400.134 503.867 386.667C510.267 374.667 517.6 371.2 527.467 375.334C534.667 378.4 546.267 378.267 553.867 374.8C561.733 371.334 574 359.2 577.467 351.334C580.933 343.6 581.067 334 578 324.8C575.733 318.267 575.733 317.067 577.467 312.534C579.333 307.6 580.933 306.134 593.2 298.667C603.333 292.667 608 282.4 608 266.667C608 248.667 602.4 238.934 587.333 230.934C578.267 226 574.8 219.334 577.333 211.467C578.267 208.4 579.2 202.8 579.6 198.934L580.267 192H620.8H661.333V96.0002V0.000244141H586.667H512V42.6669V85.3336H458.667H405.333V42.6669V0.000244141H330.667H256V42.6669V85.3336H202.667H149.333V42.6669V0.000244141H74.6667H0V96.0002ZM128 96.0002V170.667H74.6667H21.3333V96.0002V21.3336H74.6667H128V96.0002ZM384 89.6002V158L376 164.267L368 170.667H322.667H277.333V96.0002V21.3336H330.667H384V89.6002ZM640 96.0002V170.667H605.2H570.533L564.267 165.467C556.133 158.534 549.733 156 540.667 156H533.333V88.6669V21.3336H586.667H640V96.0002ZM512 132.134C512 160.8 511.733 161.333 503.867 146.534C496.8 133.333 486.933 128 469.333 128C451.6 128 441.867 133.2 434.8 146.667C432.4 151.067 428.933 155.734 426.933 157.067C423.067 159.6 414.533 159.867 409.067 157.6L405.333 156V131.334V106.667H458.667H512V132.134ZM481.067 151.467C482.667 152.534 485.2 156.4 486.8 160.134C493.867 176.4 514.933 185.067 532.533 178.8C539.333 176.4 540.8 176.267 544.533 177.867C549.467 180 556.667 187.334 558.4 192C559.333 194.4 558.933 197.334 557.2 202.667C554 212.534 554.133 219.6 557.467 228.534C561.333 238.4 567.733 245.6 575.867 249.2C584.8 253.067 586.667 256 586.667 266.667C586.667 277.334 584.8 280.267 575.867 284.134C567.733 287.734 561.333 294.934 557.467 304.8C554.133 313.734 554 320.8 557.2 330.667C560.133 339.334 559.333 342.4 552.4 349.6C545.6 356.534 542.267 357.467 533.333 354.534C523.467 351.334 516.4 351.467 507.467 354.8C497.6 358.667 490.4 365.067 486.8 373.2C483.067 381.867 479.867 384 470.533 384C458 384 458.667 385.2 458.667 361.467V340.667L471.067 340.534C484.533 340.534 492.933 338.4 505.6 331.6C514.533 326.934 527.867 314.267 532.933 305.734C550.667 275.334 546.267 238.534 521.867 214.134C488 180.4 432.8 186.4 406.8 226.667C401.733 234.534 396 248.8 396 253.6C396 255.867 394.4 256 374.533 256C360.4 256 353.467 255.6 354 254.667C354.533 253.867 358.4 251.467 362.667 249.334C371.733 244.667 377.333 238.4 381.2 228.4C384.667 219.334 384.8 212.667 381.333 203.2C379.067 196.667 378.933 195.2 380.533 191.467C382.667 186.4 390 179.334 394.933 177.467C397.6 176.4 400.133 176.8 405.867 178.8C415.333 182.134 422 182 431.2 178.534C441.067 174.667 448.267 168.267 451.867 160.134C455.733 151.2 458.667 149.334 469.333 149.334C475.067 149.334 479.067 150 481.067 151.467ZM491.2 218.4C503.333 224 511.067 231.734 517.067 243.734C521.733 253.334 522 254.534 522 266.667C522 278.8 521.733 280 517.067 289.6C508 307.734 492.133 318.4 472.267 319.6C466.667 319.867 461.333 319.734 460.533 319.067C459.733 318.534 458.667 313.067 458.267 307.067L457.6 296.134L460.933 297.467C478.4 304.134 501.333 286.667 501.333 266.667C501.333 250.134 485.867 234.667 469.333 234.667C454 234.667 437.333 250.134 437.333 264.267C437.333 265.867 435.733 265.467 429.733 262.534C425.467 260.534 420.933 258.4 419.733 258.134C416.4 257.2 416.8 253.867 421.2 244.667C428.267 229.867 441.733 218.534 456.8 214.667C466.4 212.267 481.733 214 491.2 218.4ZM476.667 259.334C478.8 261.334 480 264.134 480 266.667C480 269.2 478.8 272 476.667 274C474.667 276.134 471.867 277.334 469.333 277.334C466.8 277.334 464 276.134 462 274C459.867 272 458.667 269.2 458.667 266.667C458.667 264.134 459.867 261.334 462 259.334C464 257.2 466.8 256 469.333 256C471.867 256 474.667 257.2 476.667 259.334ZM415.2 278.934C422.533 281.067 433.6 292.134 435.733 299.467C436.933 303.6 437.333 335.734 437.333 429.867V554.667H245.333H53.3333V429.867C53.3333 335.734 53.7333 303.6 54.9333 299.467C56.9333 292.667 68.1333 281.2 74.6667 279.067C81.7333 276.8 407.733 276.8 415.2 278.934ZM170.667 583.467C170.667 587.6 171.333 593.467 172.267 596.534C174.4 603.867 185.467 614.934 192.8 617.067C200.533 619.334 290.133 619.334 297.867 617.067C305.2 614.934 316.267 603.867 318.4 596.534C319.333 593.467 320 587.6 320 583.467V576H391.333H462.8L466.267 579.467C469.467 582.667 469.6 583.467 468.933 591.6C467.2 610.134 456.133 625.867 438.933 634.4L428.8 639.334H245.333H61.8667L51.7333 634.4C34.5333 625.867 23.4667 610.134 21.7333 591.6C21.0667 583.467 21.2 582.667 24.4 579.467L27.8667 576H99.3333H170.667V583.467ZM298.667 583.334C298.667 589.467 298.133 591.334 295.333 594L292.133 597.334H245.333H198.533L195.333 594C192.533 591.334 192 589.467 192 583.334V576H245.333H298.667V583.334Z" fill="#9D9D9D"/>
<path d="M42.6666 53.3333V64H74.6666H106.667V53.3333V42.6667H74.6666H42.6666V53.3333Z" fill="#9D9D9D"/>
<path d="M42.6666 96.0003V106.667H74.6666H106.667V96.0003V85.3337H74.6666H42.6666V96.0003Z" fill="#9D9D9D"/>
<path d="M42.6666 138.667V149.333H74.6666H106.667V138.667V128H74.6666H42.6666V138.667Z" fill="#9D9D9D"/>
<path d="M298.667 53.3333V64H330.667H362.667V53.3333V42.6667H330.667H298.667V53.3333Z" fill="#9D9D9D"/>
<path d="M298.667 96.0003V106.667H330.667H362.667V96.0003V85.3337H330.667H298.667V96.0003Z" fill="#9D9D9D"/>
<path d="M298.667 138.667V149.333H330.667H362.667V138.667V128H330.667H298.667V138.667Z" fill="#9D9D9D"/>
<path d="M554.667 53.3333V64H586.667H618.667V53.3333V42.6667H586.667H554.667V53.3333Z" fill="#9D9D9D"/>
<path d="M554.667 96.0003V106.667H586.667H618.667V96.0003V85.3337H586.667H554.667V96.0003Z" fill="#9D9D9D"/>
<path d="M554.667 138.667V149.333H586.667H618.667V138.667V128H586.667H554.667V138.667Z" fill="#9D9D9D"/>
<path d="M87.3334 300.534C81.8667 302.934 76.2667 309.734 75.3334 315.067C74.9334 317.467 74.6667 364.4 74.9334 419.6C75.3334 518.4 75.3334 519.867 78.1334 523.467C79.6001 525.467 82.5334 528.4 84.5334 529.867C88.1334 532.667 88.6667 532.667 245.333 532.667C402 532.667 402.533 532.667 406.133 529.867C408.133 528.4 411.067 525.467 412.533 523.467C415.333 519.867 415.333 518.8 415.333 416C415.333 313.2 415.333 312.134 412.533 308.534C411.067 306.534 408.133 303.6 406.133 302.134C402.533 299.334 401.733 299.334 246.933 299.067C119.6 298.8 90.5334 299.067 87.3334 300.534ZM394.667 416V512H245.333H96.0001V416V320H245.333H394.667V416Z" fill="#9D9D9D"/>
<path d="M228.4 343.333C210.4 347.2 189.2 362.667 181.333 377.6L178 384H170.533C149.733 384 131.6 395.867 122.133 415.867C118.4 423.867 118 425.867 118 437.467C118 449.467 118.267 450.667 122.933 460.267C128.933 472.4 136.667 479.867 149.067 485.733L158 490H245.467H332.8L342.933 485.067C355.067 479.067 362.533 471.333 368.4 458.933C372.267 450.8 372.667 448.8 372.667 437.333C372.667 425.867 372.267 423.867 368.533 415.867C359.067 395.867 340.933 384 320.133 384H312.667L309.333 377.6C304.4 368.267 291.467 356.133 280.4 350.267C264.267 341.867 246.267 339.467 228.4 343.333ZM257.067 364C276.133 368.4 290.933 382.933 297.333 403.333C298.267 406.267 299.2 409.067 299.467 409.467C299.733 410 303.6 409.2 308.133 407.867C323.067 403.2 332 405.2 342 415.333C348.933 422.133 352 428.933 352 437.333C352 449.6 341.333 464.267 329.867 467.733C322 470 168.667 470 160.8 467.733C153.467 465.6 142.4 454.533 140.267 447.2C136.533 434.667 139.2 424.667 148.667 415.333C158.667 405.2 167.6 403.2 182.533 407.867C187.067 409.2 190.933 410 191.2 409.467C191.467 409.067 192.4 406.267 193.333 403.333C202.4 374.267 229.333 357.6 257.067 364Z" fill="#407BFF"/>
</svg>
