<?xml version="1.0" encoding="UTF-8"?>
<svg xmlns="http://www.w3.org/2000/svg" viewBox="0 0 69 60" fill="none"><path d="M68.4504 16.9387C68.0415 11.5736 65.2437 6.63022 60.7457 3.37368C57.7326 1.17142 54.1815 0 50.4583 0C43.6575 0 37.5884 3.81882 34.4892 9.72276C31.3686 3.81882 25.321 0 18.5202 0C14.8184 0 11.2458 1.17142 8.25434 3.35025C3.75631 6.63022 0.936975 11.5736 0.549585 16.9387C0.140674 22.4444 2.27132 27.8797 6.55413 32.2608C14.9906 40.8356 33.3271 59.4846 33.3271 59.4846C33.6499 59.8126 34.0803 60 34.5108 60C34.9412 60 35.3501 59.836 35.6945 59.4846C35.6945 59.4846 54.0524 40.8356 62.4674 32.2608C66.7287 27.8797 68.8593 22.4444 68.4504 16.9387ZM60.1 29.4963C52.9548 36.7591 38.686 51.2612 34.4892 55.5252C30.314 51.2847 16.0452 36.7591 8.89999 29.4963C5.39196 25.9352 3.6487 21.5775 3.97153 17.2198C4.29435 13.0027 6.55413 9.0902 10.1698 6.4428C12.6017 4.68567 15.4856 3.74854 18.5202 3.74854C25.3425 3.74854 31.2179 8.41078 32.8321 15.0879C33.0258 15.9078 33.7145 16.4936 34.4892 16.4936C35.264 16.4936 35.9527 15.9078 36.1464 15.0879C37.7605 8.41078 43.6359 3.74854 50.4583 3.74854C53.4929 3.74854 56.3768 4.68567 58.8087 6.46622C62.4243 9.0902 64.6841 13.0262 65.0069 17.2198C65.3298 21.5775 63.5865 25.9352 60.1 29.4963Z" fill="#FF6F00"></path></svg>