<?xml version="1.0" encoding="UTF-8"?>
<svg xmlns="http://www.w3.org/2000/svg" viewBox="0 0 61 60" fill="none"><path d="M59.0714 45.0268H56.9286V8.57653H59.0714C59.8571 8.57653 60.5 7.93329 60.5 7.14711C60.5 6.36093 59.8571 5.71769 59.0714 5.71769H36.1964V1.42942C36.1964 0.64324 35.5536 0 34.7679 0H26.1964C25.4107 0 24.7679 0.64324 24.7679 1.42942V5.71769H1.92857C1.14286 5.71769 0.5 6.36093 0.5 7.14711C0.5 7.93329 1.14286 8.57653 1.92857 8.57653H4.07143V45.0268H1.92857C1.14286 45.0268 0.5 45.67 0.5 46.4562C0.5 47.2424 1.14286 47.8857 1.92857 47.8857H26.6786L20.6964 57.838C20.2857 58.517 20.5 59.3925 21.1786 59.8035C21.4107 59.9464 21.6607 60 21.9107 60C22.3929 60 22.875 59.7499 23.1429 59.3032L29.0536 49.458V58.5527C29.0536 59.3389 29.6964 59.9821 30.4821 59.9821C31.2679 59.9821 31.9107 59.3389 31.9107 58.5527V49.458L37.8214 59.3032C38.0893 59.7499 38.5536 60 39.0536 60C39.3036 60 39.5536 59.9285 39.7857 59.8035C40.4643 59.3925 40.6786 58.517 40.2679 57.838L34.3036 47.8857H59.0714C59.8571 47.8857 60.5 47.2424 60.5 46.4562C60.5 45.67 59.8571 45.0268 59.0714 45.0268ZM27.625 2.85884H33.3393V5.71769H27.625V2.85884ZM6.92857 8.57653H54.0714V45.0268H6.92857V8.57653Z" fill="#FF6F00"></path><path d="M47.9462 13.0435C47.589 12.704 47.089 12.5611 46.6247 12.6683L36.6604 15.0269C35.8926 15.2055 35.4104 15.9738 35.6069 16.7422C35.7854 17.5105 36.5533 17.9929 37.3211 17.7964L42.4104 16.5992L30.4461 28.4634L28.339 24.6576C28.1247 24.2645 27.7319 23.9965 27.2854 23.925C26.839 23.8535 26.3926 24.0143 26.0711 24.336L11.839 38.6481C11.2854 39.202 11.2854 40.1132 11.839 40.6671C12.1247 40.953 12.4819 41.0781 12.839 41.0781C13.214 41.0781 13.5712 40.9351 13.8569 40.6492L26.7497 27.6951L28.8211 31.5009C29.0354 31.894 29.4283 32.1621 29.8747 32.2335C30.3211 32.305 30.7676 32.1442 31.089 31.8404L44.4997 18.5289L43.3747 23.7285C43.214 24.4968 43.6961 25.2651 44.464 25.4259C44.5711 25.4438 44.6604 25.4616 44.7676 25.4616C45.4283 25.4616 46.0176 24.9971 46.1604 24.336L48.339 14.3657C48.4461 13.8833 48.2854 13.383 47.9462 13.0435Z" fill="#FF6F00"></path></svg>