<?xml version="1.0" encoding="UTF-8"?>
<svg xmlns="http://www.w3.org/2000/svg" viewBox="0 0 55 60" fill="none"><path d="M54.5739 13.3697L47.2593 6.15804C46.6881 5.59491 45.7485 5.59491 45.1773 6.15804L40.6448 10.6267C38.4155 9.3188 36.0018 8.33788 33.4224 7.70209V1.45322C33.4224 0.653951 32.7591 0 31.9484 0H21.5937C20.783 0 20.1197 0.653951 20.1197 1.45322V7.77475C8.54905 10.7539 0 21.1444 0 33.4605C0 48.1017 12.0866 60 26.9185 60C41.7687 60 53.8369 48.0836 53.8369 33.4605C53.8369 28.5014 52.4551 23.851 50.0414 19.891L54.5555 15.4405C55.1451 14.8592 55.1451 13.9328 54.5739 13.3697ZM23.0493 2.90645H30.456V7.13896C29.2952 6.99364 28.1161 6.90282 26.9185 6.90282C25.6103 6.90282 24.3206 6.99364 23.0493 7.1753V2.90645ZM26.9185 57.0936C13.708 57.0936 2.94795 46.485 2.94795 33.4605C2.94795 20.436 13.708 9.82743 26.9185 9.82743C40.1474 9.82743 50.889 20.436 50.889 33.4605C50.9074 46.485 40.1474 57.0936 26.9185 57.0936ZM48.3648 17.4205C46.8724 15.4768 45.1036 13.733 43.1138 12.2616L46.1907 9.22797L51.4233 14.3869L48.3648 17.4205Z" fill="#FF6F00"></path><path d="M28.3923 27.8291L28.3555 14.296C28.3555 13.4967 27.6922 12.8428 26.8815 12.8428C26.0708 12.8428 25.4075 13.4967 25.4075 14.296L25.4444 27.811C22.9018 28.4649 21.0225 30.7356 21.0225 33.4422C21.0225 36.1488 22.9202 38.4377 25.4812 39.0735L25.4997 41.5439C25.4997 42.3432 26.163 42.9972 26.9736 42.9972C27.7843 42.9972 28.4476 42.3432 28.4476 41.5439L28.4292 39.0735C30.9534 38.4195 32.8143 36.1488 32.8143 33.4604C32.8143 30.7537 30.9349 28.4649 28.3923 27.8291ZM26.9184 36.3668C25.297 36.3668 23.9704 35.0589 23.9704 33.4604C23.9704 31.8618 25.297 30.5539 26.9184 30.5539C28.5397 30.5539 29.8663 31.8618 29.8663 33.4604C29.8663 35.0589 28.5397 36.3668 26.9184 36.3668Z" fill="#FF6F00"></path></svg>