<?xml version="1.0" encoding="UTF-8"?>
<svg xmlns="http://www.w3.org/2000/svg" viewBox="0 0 63 60" fill="none"><path d="M62.426 22.7939C62.2407 22.1875 61.7258 21.7483 61.0873 21.6647L41.6661 18.7997L32.9955 0.941033C32.7278 0.376413 32.1511 0 31.5126 0C30.8742 0 30.3181 0.355501 30.0298 0.941033L21.3386 18.7997L1.91735 21.6647C1.29949 21.7483 0.784614 22.1875 0.578662 22.7939C0.393305 23.4004 0.537471 24.0695 0.990565 24.5087L15.0365 38.4151L11.7207 58.0513C11.6177 58.6786 11.8648 59.306 12.3797 59.6824C12.8946 60.0588 13.5536 60.1006 14.1097 59.8079L31.4714 50.5439L48.8332 59.8079C49.0803 59.9333 49.3275 59.9961 49.5952 59.9961C49.9453 59.9961 50.2749 59.8915 50.5632 59.6824C51.0781 59.306 51.3252 58.6786 51.2222 58.0513L47.9064 38.4151L61.9523 24.5087C62.4466 24.0695 62.6114 23.4004 62.426 22.7939ZM45.0231 36.6375C44.6318 37.014 44.467 37.5786 44.5494 38.1223L47.4533 55.2909L32.2747 47.1771C32.0275 47.0516 31.7804 46.9889 31.5126 46.9889C31.2449 46.9889 30.9772 47.0516 30.7506 47.1771L15.5514 55.2909L18.4553 38.1223C18.5377 37.5786 18.3729 37.0349 17.9816 36.6375L5.70686 24.4878L22.6773 21.9783C23.2128 21.8947 23.6865 21.5601 23.913 21.0582L31.5126 5.43708L39.1123 21.0582C39.3594 21.5601 39.8125 21.8947 40.348 21.9783L57.3184 24.4878L45.0231 36.6375Z" fill="#FF6F00"></path></svg>