<svg width="150" height="150" viewBox="0 0 150 150" fill="none" xmlns="http://www.w3.org/2000/svg">
<path d="M89.6958 116.298C80.4209 116.298 71.1459 116.301 61.872 116.295C59.2127 116.294 57.256 114.881 56.6258 112.484C56.476 111.916 56.427 111.306 56.427 110.715C56.4165 94.0621 56.4174 77.4091 56.4207 60.7559C56.4207 57.9906 57.7958 56.0687 60.28 55.4049C60.8728 55.2462 61.5136 55.2098 62.1324 55.2098C80.5316 55.2 98.9315 55.1992 117.331 55.2042C120.913 55.205 123 57.3016 123 60.8669C123 77.4454 123 94.0241 123 110.603C123 114.232 120.931 116.298 117.295 116.299C108.095 116.3 98.8958 116.298 89.6958 116.298ZM89.6518 113.758C98.8501 113.758 108.049 113.758 117.248 113.758C119.524 113.758 120.445 112.852 120.445 110.611C120.445 94.0339 120.445 77.4577 120.445 60.8805C120.445 58.6771 119.524 57.7575 117.303 57.7575C98.9056 57.7558 80.5079 57.7558 62.1105 57.7575C59.9038 57.7575 58.9797 58.6875 58.9797 60.9009C58.979 77.4779 58.979 94.0541 58.9797 110.631C58.9797 112.823 59.9242 113.757 62.1301 113.757C71.3039 113.757 80.4778 113.758 89.6518 113.758Z" fill="#5CAFBD"/>
<path d="M85.1959 76.9504C85.1959 76.0683 85.1883 75.1929 85.198 74.3184C85.2086 73.4224 85.6053 73.0112 86.4904 73.0071C88.5533 72.9973 90.6161 72.998 92.679 73.0071C93.5809 73.0105 93.97 73.4002 93.9854 74.2955C93.9981 75.0427 94.0035 75.7913 93.9819 76.5384C93.9722 76.8697 94.075 77.0568 94.4074 77.1334C94.6145 77.1814 94.8111 77.276 95.0099 77.356C95.7623 77.6565 96.4328 77.5145 97.0217 76.9296C97.3862 76.567 97.7389 76.1914 98.1216 75.8484C98.6598 75.3662 99.2168 75.3439 99.7304 75.8441C101.281 77.3532 102.816 78.8796 104.335 80.4207C104.835 80.9285 104.819 81.4955 104.331 82.0207C103.82 82.5698 103.273 83.0845 102.743 83.6139C102.652 83.7052 102.468 83.822 102.485 83.8839C102.668 84.5358 102.857 85.1883 103.107 85.8166C103.165 85.9627 103.452 86.0907 103.641 86.0998C104.348 86.1331 105.058 86.1061 105.767 86.115C106.777 86.1275 107.199 86.5193 107.206 87.5003C107.219 89.5081 107.22 91.5165 107.205 93.5252C107.198 94.4553 106.797 94.8484 105.868 94.8728C105.116 94.8923 104.362 94.8525 103.612 94.8958C103.418 94.9068 103.234 95.1301 103.051 95.2623C103.021 95.2833 103.025 95.3445 103.001 95.3785C102.172 96.5661 102.578 97.394 103.609 98.2915C105.153 99.6357 105.088 99.8477 103.64 101.287C102.409 102.511 101.181 103.738 99.9459 104.957C99.2062 105.686 98.6548 105.681 97.9076 104.948C97.4184 104.468 96.9362 103.98 96.4479 103.499C96.3422 103.395 96.1861 103.199 96.1155 103.224C95.4514 103.451 94.7741 103.669 94.1646 104.004C93.9966 104.097 94.0078 104.572 93.996 104.874C93.9722 105.514 94.0016 106.156 93.9826 106.796C93.961 107.547 93.5761 107.986 92.8434 107.993C90.6735 108.016 88.503 108.017 86.333 107.992C85.6123 107.984 85.219 107.526 85.2008 106.778C85.1827 106.031 85.1784 105.283 85.2036 104.536C85.2162 104.166 85.135 103.925 84.7341 103.841C84.506 103.793 84.2877 103.69 84.07 103.599C83.3987 103.318 82.7998 103.44 82.2731 103.964C81.8937 104.341 81.5229 104.73 81.1311 105.093C80.567 105.617 79.9562 105.649 79.4167 105.123C77.8983 103.642 76.3945 102.145 74.9069 100.634C74.3324 100.051 74.3618 99.4938 74.944 98.8906C75.4792 98.3354 76.0537 97.817 76.5694 97.2452C76.6968 97.1039 76.7486 96.7852 76.6821 96.603C76.4729 96.0284 76.3329 95.2644 75.8984 94.9819C75.4561 94.6946 74.6955 94.8826 74.0748 94.8804C72.1218 94.8748 72.0015 94.7573 72.0015 92.7939C72.0015 91.0637 71.9973 89.3328 72.0029 87.6024C72.0071 86.4769 72.3744 86.1213 73.5199 86.115C74.2078 86.1109 74.8957 86.1221 75.5829 86.1081C75.7375 86.1046 75.9837 86.0685 76.0293 85.9731C76.3133 85.377 76.5681 84.7647 76.7899 84.1427C76.8249 84.0438 76.6688 83.8456 76.5597 83.7329C76.0377 83.1951 75.4932 82.6782 74.9712 82.1397C74.3436 81.4921 74.3337 80.9389 74.9669 80.3017C76.4163 78.842 77.8745 77.3915 79.3418 75.9499C79.98 75.3231 80.5357 75.3329 81.1905 75.9584C81.7175 76.4612 82.2367 76.9726 82.7384 77.5014C82.977 77.7532 83.1807 77.8283 83.518 77.66C84.0525 77.3943 84.6186 77.1897 85.1959 76.9504ZM77.1264 81.268C77.6974 81.8099 78.2475 82.3151 78.7779 82.8389C79.4062 83.4594 79.4321 83.8143 79.0703 84.6109C78.6749 85.4826 78.3069 86.369 77.9717 87.2658C77.6743 88.0602 77.4141 88.2898 76.5653 88.2989C75.7984 88.3073 75.0315 88.3004 74.254 88.3004V92.6812C75.0328 92.6812 75.7606 92.6742 76.4882 92.6827C77.3987 92.6931 77.6547 92.899 77.9704 93.7171C78.3153 94.6104 78.6805 95.4975 79.071 96.3713C79.4427 97.2028 79.4105 97.5388 78.7408 98.1928C78.2117 98.7097 77.6603 99.2049 77.2104 99.6245C78.3272 100.734 79.3349 101.736 80.4027 102.797C80.8841 102.297 81.4179 101.743 81.9505 101.188C82.4228 100.695 82.9351 100.605 83.5767 100.901C84.527 101.339 85.5017 101.728 86.4813 102.099C87.1061 102.336 87.4091 102.734 87.3953 103.402C87.3784 104.185 87.391 104.97 87.391 105.777H91.7855C91.7855 104.97 91.7909 104.205 91.784 103.44C91.7777 102.76 92.0736 102.334 92.7343 102.09C93.7167 101.728 94.6845 101.321 95.6382 100.889C96.252 100.611 96.7543 100.688 97.212 101.164C97.7599 101.735 98.3091 102.304 98.7864 102.8C99.8612 101.718 100.877 100.695 101.946 99.6182C101.452 99.1465 100.897 98.6123 100.336 98.0842C99.8297 97.6069 99.78 97.0844 100.072 96.4604C100.469 95.6123 100.842 94.7504 101.169 93.8737C101.549 92.8573 101.75 92.684 102.857 92.6805C103.556 92.6777 104.253 92.6805 104.962 92.6805V88.2989C104.13 88.2989 103.341 88.2885 102.553 88.3023C101.881 88.3142 101.491 88.0059 101.257 87.3806C100.9 86.4239 100.495 85.4841 100.085 84.5483C99.7597 83.8054 99.7891 83.456 100.373 82.8813C100.918 82.3443 101.492 81.835 102.016 81.348C100.904 80.2453 99.8891 79.24 98.8101 78.1706C98.321 78.6786 97.7717 79.2455 97.2266 79.8167C96.7494 80.3169 96.2308 80.3796 95.5976 80.0845C94.7069 79.6693 93.7944 79.2978 92.8757 78.9464C92.0052 78.6131 91.7924 78.3593 91.7868 77.445C91.7819 76.7069 91.7862 75.9681 91.7862 75.2355H87.4359C87.4162 75.3251 87.3994 75.3655 87.3987 75.4066C87.3953 76.0897 87.3953 76.773 87.3916 77.4569C87.3869 78.3599 87.1867 78.6111 86.3623 78.9276C85.4443 79.2796 84.5361 79.6581 83.6355 80.0533C82.8433 80.4012 82.5341 80.3761 81.9114 79.7528C81.3689 79.21 80.8519 78.6416 80.3277 78.0886C79.2362 79.1725 78.2335 80.1687 77.1264 81.268Z" fill="#5CAFBD"/>
<path d="M117.862 65.46V67.8878H61.5869V65.46H117.862Z" fill="#5CAFBD"/>
<path d="M81.8962 90.5036C81.8864 86.3091 85.3145 82.8814 89.5451 82.8556C93.7995 82.8299 97.2801 86.2431 97.3047 90.4646C97.3291 94.6773 93.8695 98.1342 89.6186 98.144C85.3607 98.1544 81.9067 94.7364 81.8962 90.5036ZM89.5724 85.0486C86.5488 85.0631 84.0772 87.5419 84.1103 90.5252C84.1438 93.5404 86.6216 95.9804 89.6257 95.9573C92.6283 95.9343 95.1431 93.4153 95.1025 90.4702C95.0612 87.4577 92.589 85.0339 89.5724 85.0486Z" fill="#407BFF"/>
<path d="M71.1665 55.2006V39.4775C71.1665 36.4523 68.7141 34 65.689 34H31.4775C28.4523 34 26 36.4523 26 39.4775V85.9216C26 88.9467 28.4523 91.3991 31.4775 91.3991H56.8791" stroke="#5CAFBD" stroke-width="2.5"/>
<line x1="34.2959" y1="48.4199" x2="62.8706" y2="48.4199" stroke="#5CAFBD" stroke-width="2.5"/>
<path d="M34.2959 63.2656H57.8009" stroke="#5CAFBD" stroke-width="2.5"/>
<path d="M34.2959 77.0918H57.34" stroke="#5CAFBD" stroke-width="2.5"/>
<path d="M38.0376 37H37.9926C35.7461 37 34.0247 38.66 33.988 40.8631C33.968 42.0048 34.3747 43.0629 35.1311 43.8413C35.8628 44.5946 36.8595 45.0144 37.9359 45.026H37.9876C40.2874 45.026 41.9807 43.3779 42.0124 41.1065C42.0274 39.9615 41.6341 38.9183 40.9007 38.1683C40.1759 37.4267 39.1593 37.0117 38.0376 37ZM37.9943 42.8046H37.9609C37.5128 42.7946 37.0611 42.5813 36.7195 42.2213C36.3778 41.8615 36.1895 41.3965 36.2028 40.9481C36.2328 39.9931 37.0311 39.215 37.9826 39.215C38.4409 39.215 38.9043 39.4198 39.2559 39.7765C39.6009 40.1265 39.7959 40.5798 39.7909 41.0215C39.7793 41.9548 38.9226 42.8046 37.9943 42.8046Z" fill="#407BFF"/>
<rect x="34.2959" y="54.2793" width="2.8229" height="2.8229" fill="#407BFF"/>
<rect x="34.2959" y="69.0273" width="2.8229" height="2.8229" fill="#407BFF"/>
</svg>
