<svg width="150" height="150" viewBox="0 0 150 150" fill="none" xmlns="http://www.w3.org/2000/svg">
<g clip-path="url(#clip0_808_1650)">
<mask id="mask0_808_1650" style="mask-type:luminance" maskUnits="userSpaceOnUse" x="35" y="33" width="78" height="84">
<path d="M112.821 33.333H35.4165V116.666H112.821V33.333Z" fill="white"/>
</mask>
<g mask="url(#mask0_808_1650)">
<path d="M82.1774 107.736C82.8036 109.674 83.3924 111.52 84.0186 113.357C84.0709 113.513 84.3791 113.655 84.5803 113.672C85.1022 113.719 85.6364 113.662 86.1582 113.704C87.0055 113.772 87.5174 114.348 87.5199 115.176C87.5199 116.001 87.008 116.565 86.1607 116.654C85.947 116.676 85.7282 116.667 85.5097 116.667C77.9157 116.667 70.3195 116.667 62.7257 116.667C62.4772 116.667 62.2237 116.686 61.9826 116.642C61.1626 116.493 60.7401 115.976 60.7501 115.148C60.7601 114.363 61.1776 113.881 61.9478 113.714C62.0374 113.694 62.1318 113.699 62.2261 113.692C63.5497 113.603 64.4153 112.926 64.8228 111.662C65.2303 110.4 65.6355 109.135 66.0876 107.736H65.0118C59.8034 107.736 54.5951 107.736 49.3893 107.736C47.7616 107.736 47.3516 107.331 47.3516 105.713C47.3516 96.8792 47.3516 88.043 47.3516 79.2092V78.0786C46.4297 77.9345 45.5426 77.8524 44.6828 77.6486C38.8184 76.2622 34.793 70.6463 35.4961 64.8688C36.2441 58.7163 41.2214 54.2161 47.3343 54.169C48.7878 54.159 50.2416 54.169 51.7722 54.169C52.4307 47.2634 55.4251 41.6674 61.0234 37.5799C65.2528 34.4886 70.0412 33.107 75.262 33.363C86.5657 33.9147 95.6678 42.7782 96.5226 54.1665C97.9639 54.1665 99.4151 54.159 100.864 54.1665C107.655 54.2086 112.98 59.6928 112.816 66.4718C112.669 72.4578 107.789 77.512 101.731 77.952C101.49 77.9692 101.249 77.9817 100.918 78.0015V79.1397C100.918 87.9734 100.918 96.8097 100.918 105.643C100.918 107.336 100.526 107.733 98.8509 107.733C93.6749 107.733 88.4964 107.733 83.3203 107.733H82.1774V107.736ZM97.8745 104.719V69.1205H50.3757V104.719H97.877H97.8745ZM100.916 75.0792C101.773 74.9353 102.484 74.8705 103.167 74.6917C107.424 73.5684 110.311 69.4113 109.804 65.1672C109.26 60.6049 105.57 57.2253 101.02 57.1509C99.0697 57.1186 97.1166 57.1534 95.1634 57.1384C94.008 57.1284 93.5332 56.6488 93.4736 55.5132C93.4339 54.7728 93.3943 54.0299 93.3122 53.2917C92.122 42.4751 81.6307 34.6253 70.968 36.5611C61.5528 38.2707 55.0547 45.8222 54.7914 55.3617C54.7541 56.6786 54.297 57.1359 52.9724 57.1409C51.0193 57.1509 49.0662 57.1161 47.1155 57.1557C43.3982 57.2328 40.128 59.6655 38.9005 63.214C37.7003 66.6878 38.8087 70.6015 41.6837 72.9474C43.3087 74.2717 45.1624 74.9774 47.3466 74.9726C47.3466 72.649 47.3466 70.4226 47.3466 68.1961C47.3466 66.4467 47.7193 66.0715 49.4661 66.0715C65.9211 66.0715 82.3736 66.0715 98.8286 66.0715C100.521 66.0715 100.913 66.4618 100.913 68.139C100.913 70.3953 100.913 72.6515 100.913 75.0792H100.916ZM80.9622 113.657C80.3409 111.746 79.7595 109.925 79.1432 108.113C79.0861 107.947 78.8003 107.753 78.6191 107.753C75.6447 107.731 72.6701 107.731 69.6957 107.751C69.502 107.751 69.1914 107.912 69.1366 108.069C68.5105 109.903 67.9241 111.751 67.3053 113.657H80.9622Z" fill="#9D9D9D"/>
<path d="M58.6764 86.8996C60.2468 88.2935 60.8058 89.9658 60.7412 91.8941C60.7164 92.6668 60.7239 93.4423 60.7412 94.2175C60.7662 95.2337 61.1762 95.6885 62.1602 95.8277C63.2833 95.9866 63.8052 96.5533 63.7008 97.5C63.6014 98.4143 62.9081 98.8841 61.7975 98.7921C59.566 98.6033 57.8539 96.8141 57.7743 94.5429C57.7371 93.5216 57.7768 92.4979 57.7593 91.4766C57.7321 89.7571 56.6214 88.5644 54.9141 88.3954C53.8085 88.286 53.2916 87.7989 53.3039 86.8796C53.3164 85.9925 53.8258 85.5179 54.8695 85.416C56.6462 85.2421 57.7346 84.0666 57.7593 82.2825C57.7743 81.2612 57.7321 80.2375 57.7743 79.2162C57.8737 76.8804 59.7473 75.0441 62.0285 75.0044C63.0225 74.9869 63.6312 75.4789 63.7033 76.351C63.7754 77.2431 63.2635 77.8321 62.2993 77.9712C61.1066 78.1427 60.7562 78.5329 60.7387 79.7281C60.7314 80.3171 60.7114 80.9058 60.7412 81.4923C60.8456 83.5648 60.3885 85.4283 58.6764 86.8996Z" fill="#9D9D9D"/>
<path d="M89.5983 86.9172C88.0502 85.5505 87.4687 83.918 87.5183 82.0195C87.5408 81.1847 87.5408 80.3472 87.5135 79.5122C87.4835 78.563 87.0537 78.1157 86.1143 77.979C84.9739 77.8151 84.4645 77.2709 84.5564 76.3218C84.6458 75.3972 85.3266 74.9251 86.4425 75.0122C88.6714 75.1861 90.3958 76.9751 90.4854 79.2438C90.5252 80.2651 90.4854 81.289 90.5002 82.3103C90.5252 84.0347 91.6308 85.2399 93.3256 85.4113C94.4512 85.5232 94.9581 85.9903 94.9556 86.9074C94.9531 87.8218 94.4462 88.2813 93.3156 88.3957C91.6681 88.5597 90.5375 89.7624 90.5027 91.4149C90.4804 92.4684 90.5277 93.5222 90.4854 94.5732C90.391 96.8768 88.5968 98.6882 86.3381 98.7976C85.282 98.8497 84.6383 98.3676 84.5564 97.4705C84.4718 96.5461 84.9862 95.9747 86.035 95.8305C87.0935 95.6838 87.491 95.2515 87.5183 94.188C87.5333 93.6611 87.5506 93.132 87.5183 92.6076C87.3743 90.4334 87.8712 88.4901 89.5983 86.9147V86.9172Z" fill="#9D9D9D"/>
<path d="M74.0318 94.3414C71.6787 94.3414 69.3279 94.3464 66.9747 94.3389C65.8243 94.3339 65.2304 93.837 65.2106 92.8927C65.1881 91.9087 65.7993 91.3695 66.9897 91.367C71.7558 91.362 76.5218 91.362 81.2877 91.367C82.4358 91.367 83.0322 91.8714 83.0545 92.8108C83.0768 93.7897 82.4581 94.3339 81.2754 94.3364C78.8624 94.3439 76.4472 94.3364 74.0343 94.3364L74.0318 94.3414Z" fill="#407BFF"/>
<path d="M70.317 82.4376C69.1418 82.4376 67.9664 82.4549 66.7934 82.4326C65.7647 82.4126 65.1857 81.8287 65.2107 80.9018C65.2355 80.0172 65.797 79.4755 66.7959 79.468C69.2064 79.4508 71.6191 79.4508 74.032 79.468C75.0285 79.4755 75.5926 80.0172 75.6149 80.9018C75.6397 81.8264 75.0557 82.4101 74.0295 82.4301C72.792 82.4524 71.557 82.4351 70.3195 82.4351L70.317 82.4376Z" fill="#407BFF"/>
<path d="M77.8471 85.4167C79.0523 85.4167 80.2598 85.3992 81.465 85.4215C82.4937 85.439 83.0777 86.0229 83.0529 86.9473C83.0281 87.8319 82.4639 88.3761 81.47 88.3836C79.0598 88.4011 76.6469 88.4034 74.2339 88.3836C73.2052 88.3761 72.6237 87.7848 72.6487 86.8579C72.671 85.9707 73.235 85.439 74.2314 85.4215C75.4366 85.3992 76.6419 85.4167 77.8496 85.4167H77.8471Z" fill="#407BFF"/>
<path d="M80.849 82.4201C80.5111 82.4201 80.1632 82.4674 79.8328 82.4103C79.0153 82.2737 78.5927 81.7493 78.6052 80.9293C78.6177 80.1068 79.055 79.5849 79.8775 79.4906C80.4267 79.4285 80.9882 79.4483 81.5398 79.4731C82.5015 79.5128 83.0632 80.0843 83.0507 80.9764C83.0384 81.8312 82.499 82.3756 81.5871 82.4351C81.3411 82.4524 81.095 82.4376 80.8467 82.4376C80.8467 82.4326 80.8467 82.4276 80.8467 82.4201H80.849Z" fill="#407BFF"/>
<path d="M67.339 88.3791C67.0606 88.3791 66.7798 88.4064 66.5065 88.3741C65.6815 88.2723 65.1746 87.6785 65.2119 86.8535C65.2517 86.0285 65.6915 85.5214 66.514 85.4396C67.0954 85.3825 67.6869 85.3948 68.2708 85.4321C69.1281 85.4866 69.64 86.0408 69.6598 86.8633C69.6823 87.7206 69.1504 88.3071 68.2609 88.3841C67.9552 88.4089 67.6446 88.3891 67.3365 88.3891V88.3816L67.339 88.3791Z" fill="#407BFF"/>
</g>
</g>
<path d="M76.5375 51.3516H73.46V54.4157H76.5375V51.3516Z" fill="#407BFF"/>
<path d="M67.6576 51.3838H64.5645V54.4482H67.6576V51.3838Z" fill="#407BFF"/>
<path d="M85.4354 51.3555H82.3467V54.4198H85.4354V51.3555Z" fill="#407BFF"/>
<defs>
<clipPath id="clip0_808_1650">
<rect width="150" height="150" fill="white"/>
</clipPath>
</defs>
</svg>
