<svg width="150" height="150" viewBox="0 0 150 150" fill="none" xmlns="http://www.w3.org/2000/svg">
<g clip-path="url(#clip0_808_1644)">
<mask id="mask0_808_1644" style="mask-type:luminance" maskUnits="userSpaceOnUse" x="33" y="35" width="84" height="80">
<path d="M116.667 35.417H33.3335V114.86H116.667V35.417Z" fill="white"/>
</mask>
<g mask="url(#mask0_808_1644)">
<path d="M63.4139 102.03C62.9631 102.03 62.6216 102.03 62.2804 102.03C55.8591 102.03 49.4366 102.027 43.0156 102.03C39.3827 102.032 36.5166 100.621 34.5968 97.4717C33.6818 95.9744 33.3404 94.3167 33.3404 92.5811C33.3389 76.6707 33.321 60.7588 33.3495 44.8482C33.36 39.2957 37.3073 35.4217 42.8433 35.4203C60.5462 35.4159 78.2477 35.4159 95.9506 35.4203C101.608 35.4203 105.5 39.3003 105.503 44.9501C105.51 58.258 105.506 71.5644 105.506 84.8721C105.506 85.2182 105.506 85.5626 105.506 86.0103C105.855 86.0282 106.159 86.0553 106.464 86.0567C109.183 86.0596 111.903 86.0521 114.621 86.0613C116.097 86.0657 116.662 86.6274 116.663 88.1142C116.669 96.3307 116.669 104.546 116.663 112.762C116.663 114.284 116.09 114.859 114.561 114.859C98.2177 114.863 81.8745 114.863 65.5327 114.859C63.9635 114.859 63.4214 114.291 63.4183 112.687C63.4123 109.477 63.4168 106.265 63.4168 103.054C63.4168 102.744 63.4168 102.433 63.4168 102.032L63.4139 102.03ZM36.7098 55.5626C36.7098 55.9444 36.7098 56.2305 36.7098 56.5165C36.7098 68.4946 36.7068 80.4713 36.7112 92.4494C36.7127 96.3053 39.0712 98.6442 42.9391 98.6459C49.4187 98.6488 55.8995 98.6459 62.3791 98.6459H63.4123C63.4123 98.213 63.4123 97.8732 63.4123 97.5332C63.4123 90.8786 63.4093 84.2253 63.4154 77.5707C63.4154 76.0253 63.9664 75.4786 65.4954 75.4682C66.5885 75.4607 67.6802 75.4667 68.872 75.4667C68.872 73.6203 68.8585 71.8638 68.8766 70.1088C68.8885 68.8765 69.531 68.2386 70.7604 68.2311C72.6981 68.2176 74.6373 68.2265 76.575 68.2265C77.3177 68.2265 78.0589 68.2265 78.8856 68.2265C78.8856 66.7082 78.8931 65.2961 78.8825 63.8855C78.8781 63.2011 79.0802 62.6351 79.6927 62.2682C80.8502 61.5763 82.1843 62.3834 82.2143 63.8226C82.2443 65.2601 82.2204 66.6992 82.2204 68.2251C82.6173 68.2251 82.9273 68.2251 83.2373 68.2251C85.7243 68.2251 88.2133 68.2161 90.7004 68.2294C91.891 68.2355 92.5273 68.8451 92.5737 70.0326C92.6083 70.928 92.5827 71.8265 92.5843 72.7234C92.5843 73.6099 92.5843 74.4949 92.5843 75.4667C93.8316 75.4667 94.9548 75.4563 96.0764 75.4696C97.4525 75.4861 98.032 76.0642 98.0364 77.4284C98.0454 79.974 98.0364 82.5196 98.041 85.0669C98.041 85.3724 98.0664 85.6778 98.08 85.9938H102.116V55.5626H36.7098ZM102.032 52.1034C102.083 52.0346 102.147 51.9882 102.147 51.9417C102.144 49.2524 102.142 46.5644 102.117 43.8749C102.114 43.5365 102.002 43.1907 101.901 42.8611C101.106 40.2496 98.9064 38.7492 95.8591 38.7492C78.2462 38.7461 60.6331 38.7492 43.0185 38.7492C42.8448 38.7492 42.6712 38.7492 42.4975 38.7536C39.1281 38.8705 36.7548 41.2738 36.7127 44.6357C36.6918 46.3711 36.7083 48.1067 36.7083 49.8424C36.7083 50.5836 36.7083 51.3263 36.7083 52.1034H102.032ZM72.8075 111.461C72.8075 111.046 72.8075 110.732 72.8075 110.419C72.8075 107.322 72.8029 104.227 72.8089 101.13C72.8118 99.6028 73.3704 99.0442 74.9112 99.0411C78.7883 99.0336 82.6652 99.0336 86.542 99.0411C88.11 99.0442 88.6535 99.6146 88.655 101.215C88.6579 104.312 88.655 107.407 88.655 110.504V111.443H94.6612V78.8719H66.825V111.461H72.8075ZM98.0889 111.43H113.257V89.4455H98.0889V111.43ZM89.1656 71.6182H72.2189C72.2189 72.6336 72.2743 73.5874 72.2025 74.5309C72.141 75.3305 72.4495 75.4846 73.1862 75.4803C78.2162 75.4503 83.2462 75.4638 88.2777 75.4638H89.1656V71.6182ZM85.2781 102.472H82.2804V111.437H85.2781V102.472ZM76.1902 111.428H78.8331V102.448H76.1902V111.428Z" fill="#5CAFBD"/>
<path d="M51.5614 63.3395C53.8749 63.3395 56.1899 63.3337 58.5034 63.3412C59.9095 63.3456 60.5041 63.9401 60.5087 65.3537C60.5176 68.0147 60.5176 70.6772 60.5087 73.338C60.5041 74.7247 59.8751 75.3462 58.4841 75.3476C53.8853 75.3537 49.2851 75.3522 44.6864 75.3476C43.2445 75.3476 42.6499 74.7397 42.647 73.2737C42.6424 70.6412 42.6424 68.0087 42.647 65.3762C42.6499 63.9087 43.222 63.3426 44.706 63.3395C46.991 63.3337 49.2762 63.3395 51.5614 63.3395ZM46.0282 71.9514H57.1049V66.7135H46.0282V71.9514Z" fill="#5CAFBD"/>
<path d="M51.6031 85.6259C53.9166 85.6259 56.2304 85.6155 58.5439 85.6305C59.5995 85.6363 60.2299 86.0947 60.447 86.9407C60.6597 87.7749 60.152 88.6703 59.2941 88.8949C58.9362 88.9878 58.5514 89.0043 58.1785 89.0043C53.782 89.0118 49.3868 89.0086 44.9904 89.0086C44.8452 89.0086 44.7014 89.0132 44.5562 89.0057C43.3806 88.9503 42.6454 88.2913 42.6514 87.3061C42.6572 86.3253 43.4106 85.6409 44.5756 85.632C46.9177 85.6141 49.2612 85.6259 51.6031 85.6259Z" fill="#5CAFBD"/>
<path d="M48.8048 82.1526C47.3612 82.1526 45.9177 82.1647 44.4756 82.1497C43.3735 82.1376 42.6519 81.4668 42.6519 80.4963C42.6519 79.532 43.3856 78.8343 44.4756 78.8297C47.3627 78.8163 50.2483 78.8149 53.1354 78.8313C54.1941 78.8372 54.9519 79.5934 54.9219 80.5399C54.8935 81.4757 54.1866 82.1347 53.1354 82.1482C51.6919 82.1676 50.2469 82.1526 48.8048 82.1526Z" fill="#5CAFBD"/>
<path d="M80.7165 86.4046C77.8863 86.4046 75.0546 86.4046 72.2244 86.4032C71.9071 86.4032 71.5865 86.4061 71.275 86.3596C70.3767 86.228 69.776 85.5721 69.7596 84.738C69.7431 83.8905 70.3885 83.1746 71.3079 83.0473C71.5642 83.0115 71.826 83.0219 72.0867 83.0219C77.834 83.0219 83.5827 83.0219 89.3298 83.0219C90.8767 83.0219 91.6808 83.588 91.6988 84.6871C91.7183 85.8207 90.9052 86.4032 89.2954 86.4046C86.4352 86.4061 83.5767 86.4046 80.7165 86.4046Z" fill="#407BFF"/>
<path d="M80.7866 91.6169C83.8474 91.6169 86.9097 91.6034 89.9704 91.6244C91.0126 91.6319 91.706 92.3386 91.6985 93.2821C91.691 94.1821 91.0126 94.8663 90.0364 94.9488C89.8358 94.9653 89.632 94.9563 89.4299 94.9563C88.4191 94.9563 87.4083 94.9563 86.3974 94.9563C81.661 94.9563 76.9245 94.9563 72.1883 94.9563C71.9576 94.9563 71.7254 94.9653 71.4949 94.9503C70.4826 94.8859 69.7533 94.173 69.7593 93.2596C69.7637 92.3311 70.4751 91.6288 71.5158 91.6213C74.6066 91.6019 77.6958 91.6153 80.7866 91.6169Z" fill="#407BFF"/>
<path d="M105.544 96.82C104.33 96.82 103.115 96.835 101.901 96.8156C100.631 96.796 99.9138 96.1731 99.9107 95.1354C99.9077 94.0931 100.637 93.4494 101.887 93.4433C104.345 93.4298 106.802 93.4283 109.259 93.4433C110.465 93.4508 111.188 94.0781 111.216 95.0771C111.246 96.1027 110.502 96.7885 109.273 96.8142C108.03 96.8396 106.789 96.82 105.544 96.82Z" fill="#407BFF"/>
<path d="M105.546 104.442C104.332 104.442 103.117 104.459 101.905 104.438C100.63 104.417 99.9189 103.797 99.9189 102.757C99.9189 101.715 100.65 101.077 101.902 101.073C104.359 101.062 106.816 101.061 109.274 101.073C110.463 101.079 111.201 101.718 111.226 102.71C111.253 103.737 110.516 104.411 109.277 104.436C108.034 104.462 106.789 104.442 105.546 104.442Z" fill="#407BFF"/>
</g>
</g>
<path d="M43 46.6955V44.002H45.7252C45.7252 44.767 45.749 45.5107 45.7058 46.2503C45.6969 46.4057 45.446 46.6665 45.295 46.6753C44.5504 46.7192 43.8012 46.6955 43 46.6955Z" fill="#407BFF"/>
<path d="M51.2676 44.002V46.6253H48.5742V44.002H51.2676Z" fill="#407BFF"/>
<path d="M56.8076 46.6531H54.1328V44H56.8076V46.6531Z" fill="#407BFF"/>
<defs>
<clipPath id="clip0_808_1644">
<rect width="150" height="150" fill="white"/>
</clipPath>
</defs>
</svg>
