<svg width="150" height="150" viewBox="0 0 150 150" fill="none" xmlns="http://www.w3.org/2000/svg">
<g clip-path="url(#clip0_808_1638)">
<mask id="mask0_808_1638" style="mask-type:luminance" maskUnits="userSpaceOnUse" x="33" y="33" width="82" height="84">
<path d="M114.64 33.333H33.3335V116.666H114.64V33.333Z" fill="white"/>
</mask>
<g mask="url(#mask0_808_1638)">
<path d="M48.1601 47.3396C48.1601 46.3615 48.1601 45.5065 48.1601 44.6498C48.1601 41.4002 48.1568 38.1487 48.1601 34.899C48.1618 33.7808 48.4301 33.5025 49.5199 33.5025C65.852 33.4992 82.1857 33.4992 98.5176 33.5025C99.5459 33.5025 99.8309 33.8025 99.8326 34.859C99.8359 38.5821 99.8342 42.3033 99.8342 46.0265C99.8342 46.4131 99.8342 46.8015 99.8342 47.2912C100.173 47.3079 100.464 47.3363 100.756 47.3363C103.701 47.3379 106.644 47.3329 109.588 47.3363C112.625 47.3379 114.468 49.1729 114.47 52.2144C114.473 67.7998 114.473 83.3835 114.47 98.969C114.47 101.875 112.512 103.824 109.598 103.825C101.654 103.83 93.7097 103.825 85.7653 103.825C85.3786 103.825 84.9905 103.825 84.5355 103.825V114.436C85.3836 114.436 86.232 114.436 87.0803 114.436C88.3017 114.436 89.5251 114.431 90.7465 114.438C91.7415 114.443 92.1632 114.743 92.1849 115.431C92.2082 116.158 91.7582 116.498 90.7332 116.498C79.8726 116.499 69.0117 116.498 58.1509 116.498C57.8176 116.498 57.4843 116.503 57.1509 116.498C56.2445 116.486 55.8228 116.169 55.8028 115.494C55.7828 114.791 56.2178 114.443 57.1792 114.438C58.9842 114.428 60.7907 114.433 62.5955 114.431C62.8672 114.431 63.1388 114.431 63.4655 114.431V103.824C63.1388 103.824 62.7938 103.824 62.4488 103.824C54.4761 103.824 46.5051 103.824 38.5324 103.822C35.3995 103.822 33.5211 101.927 33.5211 98.7773C33.5211 83.3035 33.5495 67.8298 33.4961 52.356C33.4861 49.3496 35.7111 47.1848 38.534 47.3096C41.3888 47.4363 44.2553 47.3379 47.1151 47.3363C47.4168 47.3363 47.7184 47.3363 48.1534 47.3363L48.1601 47.3396ZM50.1132 44.2067V90.8262H97.8661V44.2067H50.1132ZM35.4611 92.866C35.4611 94.9308 35.4611 96.899 35.4611 98.869C35.4628 100.824 36.5293 101.885 38.504 101.887C45.282 101.89 52.0597 101.889 58.8376 101.89C75.7261 101.89 92.6149 101.892 109.503 101.89C111.385 101.89 112.392 100.895 112.412 99.029C112.423 97.8073 112.413 96.5842 112.413 95.3625C112.413 94.5408 112.413 93.721 112.413 92.8677L35.4611 92.866ZM48.1034 90.8546V49.2213C47.7218 49.2213 47.3934 49.2213 47.0667 49.2213C44.207 49.2213 41.3472 49.2146 38.489 49.2213C36.4593 49.2263 35.4645 50.2177 35.4628 52.2344C35.4611 64.8117 35.4628 77.389 35.4628 89.9662C35.4628 90.2579 35.4628 90.5496 35.4628 90.8546H48.1034ZM99.8942 49.2213V90.8329H112.535C112.535 90.4963 112.535 90.2229 112.535 89.9496C112.535 77.3723 112.535 64.795 112.535 52.2177C112.535 50.2077 111.537 49.2263 109.495 49.2213C106.83 49.2163 104.165 49.2213 101.501 49.2213C100.981 49.2213 100.459 49.2213 99.8942 49.2213ZM50.0499 35.3806C50.0499 37.5004 50.0799 39.4935 50.0332 41.4852C50.0165 42.1867 50.2882 42.3083 50.9065 42.3017C53.3497 42.2733 55.7928 42.2883 58.2359 42.29C71.1449 42.29 84.0555 42.285 96.9645 42.3117C97.7978 42.3133 97.9911 42.0467 97.9628 41.2685C97.9061 39.6602 97.9061 38.0471 97.9628 36.439C97.9911 35.6256 97.7928 35.3573 96.9145 35.359C83.1172 35.389 69.3184 35.3806 55.5211 35.3806C53.748 35.3806 51.973 35.3806 50.0499 35.3806ZM82.644 103.74H65.5203V114.271H82.644V103.74Z" fill="#5CAFBD"/>
<path d="M53.5811 59.9721C53.5928 53.9575 58.1707 48.8079 64.0519 48.1929C70.3096 47.5381 75.8092 51.4827 77.0942 57.5689C77.2425 58.2706 77.2725 58.9987 77.3342 59.7154C77.3942 60.4237 77.1242 60.9254 76.3592 60.9937C75.7342 61.0504 75.3659 60.5921 75.3225 59.7737C75.0892 55.3575 72.3878 51.7094 68.3332 50.4846C64.4384 49.3062 60.9838 50.2229 58.189 53.1294C55.3659 56.0673 54.5709 59.6137 56.0192 63.4452C57.4573 67.2448 60.3188 69.4046 64.3836 69.8979C64.7134 69.9379 65.0484 69.9446 65.38 69.9796C65.9984 70.0446 66.35 70.3796 66.33 71.0162C66.31 71.6594 65.8934 72.0427 65.3084 71.9794C64.0753 71.8427 62.8019 71.746 61.6388 71.3546C56.7523 69.7112 53.5694 65.1433 53.5811 59.9721Z" fill="#5CAFBD"/>
<path d="M62.7136 58.5962C62.7102 57.7729 63.4084 57.3562 64.1984 57.6679C66.1082 58.4179 68.0115 59.1843 69.918 59.9443C72.5194 60.9827 75.1192 62.0241 77.7207 63.0591C78.2523 63.2708 78.7988 63.4875 78.7521 64.1856C78.7055 64.8823 78.1307 65.0206 77.5823 65.1773C75.9559 65.6423 74.3409 66.1472 72.7061 66.5806C72.1261 66.7339 71.8311 67.007 71.6827 67.5937C71.2627 69.2604 70.778 70.9102 70.3296 72.57C70.1863 73.0983 70.0363 73.635 69.3763 73.6633C68.7263 73.6916 68.5113 73.19 68.3063 72.6766C66.5082 68.1687 64.7017 63.6658 62.8986 59.1593C62.8169 58.9543 62.7602 58.7412 62.7119 58.5945L62.7136 58.5962ZM65.44 60.0927C66.7165 63.3008 67.9148 66.3139 69.208 69.5635C69.4563 68.7004 69.7196 68.1104 69.7846 67.4987C69.9646 65.7889 70.8644 64.8939 72.5644 64.6689C73.2927 64.5723 73.9925 64.2639 74.9275 63.9875C71.6594 62.6458 68.6463 61.4093 65.44 60.0927Z" fill="#5CAFBD"/>
<path d="M81.3326 82.485C77.058 82.485 72.7815 82.485 68.507 82.48C68.2336 82.48 67.8786 82.52 67.7036 82.3734C67.4153 82.13 67.0672 81.745 67.0738 81.4267C67.0805 81.1136 67.4486 80.7369 67.7536 80.5253C67.9686 80.3752 68.3419 80.4269 68.6453 80.4252C77.0297 80.4202 85.414 80.4203 93.7982 80.4219C95.0749 80.4219 95.5532 80.7036 95.5599 81.4384C95.5665 82.19 95.0699 82.4867 93.8265 82.4867C89.662 82.4867 85.4974 82.485 81.3326 82.485Z" fill="#5CAFBD"/>
<path d="M85.9124 72.8859C83.136 72.8859 80.3595 72.8909 77.5847 72.8825C76.6997 72.8809 76.1699 72.3209 76.3814 71.6194C76.5764 70.9677 77.0931 70.8577 77.6981 70.8594C81.751 70.8694 85.8041 70.8627 89.857 70.8627C91.3003 70.8627 92.7435 70.8594 94.1885 70.8661C95.0466 70.8694 95.5316 71.2311 95.5533 71.8661C95.5766 72.5309 95.1483 72.8825 94.2418 72.8842C91.4654 72.8925 88.6889 72.8875 85.9141 72.8875L85.9124 72.8859Z" fill="#5CAFBD"/>
<path d="M89.091 61.3071C90.8093 61.3071 92.5274 61.3004 94.2472 61.3087C95.1555 61.3137 95.5639 61.6454 95.5572 62.3268C95.5505 62.9902 95.1105 63.3335 94.2189 63.3352C90.726 63.3402 87.2345 63.3418 83.7414 63.3352C82.9832 63.3352 82.4166 62.8552 82.4566 62.2287C82.5066 61.4737 83.0349 61.3021 83.6864 61.3037C85.488 61.3087 87.2895 61.3054 89.091 61.3037V61.3071Z" fill="#5CAFBD"/>
<path d="M90.69 51.857C91.88 51.857 93.0717 51.872 94.2614 51.852C94.9614 51.8404 95.5114 52.0387 95.5364 52.8154C95.5614 53.5918 94.9714 53.7518 94.3398 53.7535C91.9033 53.7602 89.4669 53.7552 87.0304 53.7585C86.3671 53.7585 85.8371 53.5185 85.8321 52.7954C85.8271 52.052 86.3771 51.8537 87.0354 51.857C88.2535 51.8637 89.4719 51.857 90.69 51.857Z" fill="#5CAFBD"/>
<path d="M74.0335 93.5139C76.2735 93.5372 77.8749 95.1906 77.8433 97.452C77.8133 99.6368 76.1535 101.232 73.9351 101.208C71.762 101.185 70.1122 99.4435 70.1506 97.2137C70.1872 95.0956 71.8703 93.4922 74.0335 93.5139ZM75.9551 97.372C75.9685 96.3437 75.0218 95.3972 73.9818 95.3972C72.9453 95.3972 72.067 96.2504 72.0337 97.2904C72.002 98.3235 72.922 99.2951 73.9535 99.3185C74.9851 99.3418 75.9418 98.4118 75.9551 97.372Z" fill="#5CAFBD"/>
<path d="M114.639 52.2129C114.639 49.1031 112.704 47.17 109.592 47.1683H107.993H102.168H100.758C100.566 47.1683 100.371 47.155 100.165 47.1417C100.112 47.1383 100.058 47.135 100.002 47.1317V42.8304C100.002 40.1723 100.002 37.5142 100 34.8577C100 33.7044 99.6383 33.3344 98.5183 33.3344C90.0873 33.3327 81.6564 33.3311 73.2237 33.3311C65.3227 33.3311 57.42 33.3311 49.5189 33.3327C48.3356 33.3327 47.9942 33.6827 47.9925 34.8961C47.9892 37.2308 47.9892 39.5656 47.9908 41.9004V47.17H47.1192C46.2458 47.17 45.3594 47.18 44.501 47.1883C43.6427 47.1967 42.7562 47.2067 41.8829 47.2067C40.5946 47.2067 39.5331 47.1867 38.5431 47.1433C38.4631 47.14 38.3831 47.1383 38.3048 47.1383C36.97 47.1383 35.7317 47.6433 34.8185 48.5598C33.8569 49.5281 33.3285 50.8763 33.3335 52.3579C33.3735 63.6721 33.3685 75.1744 33.3619 86.2986C33.3602 90.4581 33.3585 94.6179 33.3585 98.7775C33.3585 102.039 35.295 103.987 38.5364 103.989C43.0394 103.99 47.5408 103.99 52.0421 103.99H63.3029V114.265H60.2348C59.2164 114.265 58.2 114.265 57.1817 114.271C56.5867 114.275 56.1733 114.403 55.9202 114.666C55.7235 114.87 55.6302 115.15 55.6402 115.5C55.6619 116.271 56.1567 116.653 57.1517 116.666C57.2617 116.666 57.37 116.668 57.48 116.668H58.155L73.8721 116.666C79.4931 116.666 85.116 116.666 90.7373 116.666C91.3773 116.666 91.8156 116.536 92.0756 116.268C92.2723 116.064 92.3656 115.783 92.3556 115.428C92.3239 114.411 91.4806 114.276 90.7506 114.273C90.2506 114.27 89.7492 114.27 89.2492 114.27H87.0827L84.7044 114.271V103.994C84.7044 103.994 98.6217 103.997 101.701 103.997C104.335 103.997 106.968 103.997 109.599 103.995C112.612 103.995 114.635 101.976 114.637 98.9725C114.64 83.9021 114.64 68.1717 114.637 52.2179L114.639 52.2129ZM50.2206 37.1708C50.2189 36.6358 50.2156 36.0958 50.2156 35.5458H71.0756C78.7883 35.5458 87.8908 35.5458 96.9252 35.5242C97.3102 35.5242 97.5352 35.5775 97.6517 35.6992C97.7667 35.8192 97.81 36.0375 97.7967 36.4308C97.74 38.0223 97.74 39.6523 97.7967 41.2721C97.81 41.6504 97.7683 41.8604 97.6567 41.9754C97.5469 42.0904 97.3302 42.1421 96.9652 42.1421C87.3442 42.1221 77.72 42.1204 67.8858 42.1204H58.235C57.5933 42.1204 56.9517 42.1204 56.3117 42.1171C55.6519 42.1171 54.9919 42.1154 54.3319 42.1154C52.9637 42.1154 51.9071 42.1204 50.9054 42.1321H50.8587C50.5656 42.1321 50.4039 42.0954 50.3173 42.0088C50.2323 41.9221 50.1939 41.7521 50.2006 41.4871C50.2339 40.064 50.2289 38.6573 50.2223 37.1692L50.2206 37.1708ZM97.6967 44.3736V90.6581H50.2789V44.3719H97.6983L97.6967 44.3736ZM35.6283 52.2329C35.6283 50.2965 36.5367 49.3915 38.4881 49.3865C39.5198 49.3848 40.5529 49.3831 41.5846 49.3831C42.5612 49.3831 47.9358 49.3865 47.9358 49.3865V90.6865H35.6267V79.964C35.6267 70.7215 35.6283 61.4771 35.6283 52.2329ZM82.4762 114.101H65.686V103.904H82.4762V114.101ZM112.244 99.0259C112.226 100.816 111.304 101.722 109.502 101.722C102.881 101.722 96.2602 101.722 89.6392 101.722H56.9217H52.3437C47.7308 101.722 43.1177 101.722 38.5048 101.719C36.625 101.719 35.63 100.732 35.6283 98.8675C35.6283 97.5027 35.6283 96.1361 35.6283 94.7396V93.0313H112.246V95.3594C112.246 95.7361 112.246 96.1127 112.247 96.4877C112.249 97.3194 112.252 98.1792 112.242 99.0242L112.244 99.0259ZM112.369 90.6648H100.062V49.3865H106.409C107.438 49.3865 108.466 49.3865 109.494 49.3865C111.454 49.3898 112.367 50.2898 112.369 52.2163C112.369 61.7704 112.369 71.3231 112.369 80.8773V90.6648Z" fill="#9D9D9D"/>
<path d="M61.5862 71.5096C62.6262 71.8596 63.751 71.9779 64.841 72.0944C64.991 72.111 65.1427 72.126 65.291 72.1427C65.3393 72.1477 65.3877 72.151 65.4343 72.151C66.0475 72.151 66.4741 71.6963 66.4958 71.0196C66.5191 70.3179 66.1275 69.8879 65.396 69.8112C65.2427 69.7946 65.0877 69.7846 64.9327 69.7746C64.7577 69.7629 64.5777 69.7512 64.4027 69.7296C60.3498 69.2381 57.58 67.1031 56.1733 63.3835C54.7668 59.6654 55.505 56.1592 58.3064 53.2427C60.2781 51.1913 62.5746 50.1496 65.131 50.1496C66.1408 50.1496 67.2008 50.3146 68.2808 50.6413C72.2254 51.8344 74.9235 55.4208 75.1518 59.7804C75.1985 60.6588 75.6002 61.1621 76.2535 61.1621C76.2919 61.1621 76.3302 61.1604 76.37 61.1571C77.17 61.0854 77.57 60.5671 77.4966 59.6988C77.485 59.5521 77.4733 59.4054 77.4616 59.2571C77.4183 58.6873 77.3733 58.099 77.2533 57.5306C76.0635 51.891 71.1871 47.9531 65.3977 47.9531C64.946 47.9531 64.486 47.9765 64.031 48.0248C58.0881 48.6465 53.4235 53.8925 53.4102 59.9688C53.4002 65.2233 56.6833 69.8612 61.5829 71.5096H61.5862Z" fill="#9D9D9D"/>
<path d="M68.5556 59.2203C67.1475 58.6572 65.6908 58.0738 64.2544 57.5105C64.061 57.4338 63.8694 57.3955 63.681 57.3955C63.366 57.3955 63.0777 57.5088 62.8727 57.7155C62.6544 57.9338 62.5394 58.2388 62.541 58.5955V58.6222L62.5494 58.6472C62.5627 58.6888 62.5777 58.7355 62.5927 58.7872C62.631 58.9136 62.6794 59.0703 62.7394 59.222C63.3844 60.8353 64.031 62.4484 64.676 64.0599C65.8342 66.9513 66.9925 69.8445 68.1456 72.7376C68.3406 73.2243 68.5823 73.8309 69.3173 73.8309C69.3373 73.8309 69.3573 73.8309 69.3773 73.8309C70.1637 73.7959 70.3421 73.1409 70.4837 72.6143C70.6437 72.0193 70.8104 71.4261 70.9754 70.8328C71.2671 69.7878 71.5687 68.7063 71.8387 67.6347C71.9687 67.118 72.2054 66.8847 72.7435 66.7413C73.8052 66.4599 74.8752 66.1449 75.91 65.8382C76.48 65.6699 77.0517 65.5015 77.6233 65.3382L77.6833 65.3215C78.2081 65.1715 78.8598 64.9865 78.9131 64.1982C78.9681 63.3784 78.3081 63.1168 77.7783 62.9051C76.0433 62.2151 74.3085 61.5218 72.5754 60.8286L68.5556 59.2203ZM74.0102 64.1015C73.4735 64.2815 73.0085 64.4382 72.5371 64.4999C70.7554 64.7349 69.799 65.7099 69.614 67.478C69.574 67.8663 69.444 68.2597 69.2923 68.7163C69.2573 68.823 69.2189 68.9363 69.1823 69.0563L65.7358 60.392L74.4319 63.9618C74.2869 64.0084 74.1469 64.0549 74.0102 64.1015Z" fill="#9D9D9D"/>
<path d="M93.8007 80.256H85.3232C79.7652 80.256 74.2057 80.256 68.6461 80.2593C68.5877 80.2593 68.5261 80.2576 68.4644 80.256C68.3961 80.2543 68.3277 80.251 68.2594 80.251C68.0611 80.251 67.8344 80.2676 67.6611 80.3893C67.3211 80.6276 66.9196 81.0426 66.9113 81.4243C66.9013 81.8624 67.3894 82.3241 67.5994 82.5024C67.7561 82.6358 67.9911 82.6541 68.1977 82.6541C68.2527 82.6541 68.3077 82.6541 68.3627 82.6508C68.4127 82.6508 68.4594 82.6491 68.5094 82.6491C71.6809 82.6524 74.8523 82.6524 78.0219 82.6541H86.4296C88.8961 82.6541 91.3625 82.6541 93.829 82.6558H93.8323C94.6623 82.6558 95.1607 82.5258 95.449 82.2358C95.6407 82.0424 95.7323 81.7824 95.729 81.4393C95.719 80.401 94.7973 80.256 93.8007 80.256Z" fill="#407BFF"/>
<path d="M77.5803 73.0488C78.832 73.0522 80.0817 73.0538 81.3334 73.0538H85.5647H90.6342C91.8359 73.0538 93.0374 73.0538 94.239 73.0488C94.794 73.0488 95.1988 72.9172 95.4438 72.6622C95.6355 72.4622 95.7272 72.1907 95.7155 71.8574C95.6888 71.1241 95.1307 70.7007 94.184 70.6974C93.4574 70.6941 92.7307 70.6941 92.0026 70.6941L83.2182 70.6974C81.3767 70.6974 79.5353 70.6974 77.682 70.6924C77.0886 70.6924 76.4488 70.7974 76.2172 71.5724C76.1122 71.9224 76.1638 72.2624 76.3638 72.5305C76.6088 72.8605 77.052 73.0505 77.5803 73.0522V73.0488Z" fill="#407BFF"/>
<path d="M83.7361 63.5015C85.2725 63.5032 86.8092 63.5048 88.3457 63.5048C90.3021 63.5048 92.2588 63.5032 94.2152 63.4998C95.4484 63.4982 95.7134 62.8615 95.72 62.3284C95.7234 61.9834 95.6284 61.7084 95.435 61.5134C95.1917 61.2667 94.8019 61.1451 94.2436 61.1417C93.5419 61.1384 92.8402 61.1367 92.1388 61.1367C91.6138 61.1367 85.9825 61.1401 85.9825 61.1401C85.2159 61.1401 84.4494 61.1401 83.6711 61.1367C83.3461 61.1367 82.3561 61.1367 82.2861 62.2184C82.2661 62.5251 82.3727 62.8182 82.5861 63.0482C82.8561 63.3365 83.2744 63.4998 83.7361 63.5015Z" fill="#407BFF"/>
<path d="M87.0306 53.9224H90.9152C92.0586 53.9224 93.2 53.9224 94.3433 53.9174C94.875 53.9174 95.2265 53.8057 95.4515 53.5724C95.6298 53.3876 95.7165 53.1293 95.7048 52.8076C95.6815 52.061 95.2148 51.6826 94.3217 51.6826H94.26C93.8317 51.691 93.3683 51.6943 92.805 51.6943C92.4533 51.6943 92.1019 51.6943 91.7485 51.6909C91.3952 51.6909 91.0435 51.6876 90.6919 51.6876H88.5371C88.0371 51.6893 87.5371 51.6876 87.039 51.686H87.019C86.5223 51.686 86.1723 51.7976 85.944 52.026C85.759 52.211 85.6673 52.4693 85.669 52.7926C85.674 53.5207 86.1573 53.9224 87.0306 53.9224Z" fill="#407BFF"/>
<path d="M74.0376 93.3467H73.9926C71.7461 93.3467 70.0247 95.0067 69.988 97.2098C69.968 98.3515 70.3747 99.4096 71.1311 100.188C71.8628 100.941 72.8595 101.361 73.9359 101.373H73.9876C76.2874 101.373 77.9807 99.7246 78.0124 97.4531C78.0274 96.3081 77.6341 95.265 76.9007 94.515C76.1759 93.7734 75.1593 93.3583 74.0376 93.3467ZM73.9943 99.1513H73.9609C73.5128 99.1413 73.0611 98.9279 72.7195 98.5679C72.3778 98.2081 72.1895 97.7431 72.2028 97.2948C72.2328 96.3398 73.0311 95.5617 73.9826 95.5617C74.4409 95.5617 74.9043 95.7665 75.2559 96.1231C75.6009 96.4731 75.7959 96.9265 75.7909 97.3681C75.7793 98.3015 74.9226 99.1513 73.9943 99.1513Z" fill="#407BFF"/>
</g>
</g>
<path d="M53 39.6955V37.002H55.7252C55.7252 37.767 55.749 38.5107 55.7058 39.2503C55.6969 39.4057 55.446 39.6665 55.295 39.6753C54.5504 39.7192 53.8012 39.6955 53 39.6955Z" fill="#407BFF"/>
<path d="M61.2676 37.002V39.6253H58.5742V37.002H61.2676Z" fill="#407BFF"/>
<path d="M66.8076 39.6531H64.1328V37H66.8076V39.6531Z" fill="#407BFF"/>
<defs>
<clipPath id="clip0_808_1638">
<rect width="150" height="150" fill="white"/>
</clipPath>
</defs>
</svg>
