<svg width="150" height="150" viewBox="0 0 150 150" fill="none" xmlns="http://www.w3.org/2000/svg">
<g clip-path="url(#clip0_808_1656)">
<mask id="mask0_808_1656" style="mask-type:luminance" maskUnits="userSpaceOnUse" x="33" y="39" width="84" height="73">
<path d="M116.667 39.583H33.3335V111.769H116.667V39.583Z" fill="white"/>
</mask>
<g mask="url(#mask0_808_1656)">
<path d="M108.882 111.77C95.9629 111.765 83.0395 111.765 70.1206 111.765H41.0831C40.8033 111.765 40.5191 111.75 40.2193 111.732C37.2216 111.561 34.7458 109.703 33.7577 106.88C33.6422 106.551 33.5466 106.214 33.4445 105.856C33.4089 105.728 33.3712 105.601 33.3335 105.475V97.1831H38.3495V53.9656H76.0783L76.2647 53.3283C76.2781 53.2861 76.2891 53.255 76.2958 53.2283C76.3268 53.1396 76.3714 53.004 76.3714 52.8242C76.3714 52.1092 76.3714 51.3919 76.3714 50.6748C76.3714 49.0404 76.3691 47.3506 76.3958 45.6942C76.4091 44.9102 76.4889 44.2642 76.6466 43.7136C77.3883 41.1067 79.5556 39.6077 82.591 39.6011C85.7552 39.5967 88.9216 39.5944 92.0858 39.5944C95.0148 39.5944 97.9435 39.5944 100.875 39.5967H104.088C104.729 39.5967 105.371 39.5944 106.013 39.59C106.65 39.5856 107.29 39.5811 107.927 39.5811C109.19 39.5811 110.21 39.599 111.136 39.6367C114.32 39.7654 116.642 42.1902 116.656 45.4011C116.676 50.7192 116.678 56.5058 116.656 63.0919C116.649 65.5211 115.177 67.6238 112.905 68.4454C111.744 68.8652 111.597 69.6867 111.597 70.355C111.608 76.4127 111.608 82.5723 111.608 88.53V95.4469C111.608 95.66 111.626 95.8598 111.644 96.0708C111.653 96.1663 111.66 96.266 111.666 96.3727L111.722 97.2011H116.62C116.62 97.7517 116.625 98.2979 116.627 98.8442C116.638 101.074 116.647 103.179 116.587 105.321C116.569 105.945 116.356 106.696 115.97 107.495C114.58 110.369 112.264 111.768 108.886 111.768H108.882V111.77ZM36.571 101.329C36.571 101.704 36.562 102.077 36.5533 102.446C36.5333 103.283 36.5133 104.147 36.5977 105.008C36.8131 107.195 38.5829 108.554 41.2141 108.554H68.7083C82.0647 108.554 95.4166 108.554 108.773 108.554C109.086 108.554 109.424 108.55 109.772 108.517C111.74 108.326 113.27 106.811 113.414 104.919C113.478 104.085 113.463 103.243 113.447 102.428C113.44 102.066 113.434 101.7 113.434 101.331V100.443H36.571V101.329ZM63.3458 82.7654C60.9766 82.7654 58.6783 83.6004 56.5133 85.2436C53.1493 87.7994 51.686 91.5388 52.1656 96.355L52.2456 97.1544H74.617L74.6927 96.3483C75.2145 90.7481 73.2493 86.6846 68.846 84.2665C67.0298 83.2696 65.18 82.7654 63.3458 82.7654ZM41.605 97.1321H48.9591L48.9014 96.1906C48.4885 89.4338 51.0377 84.5442 56.691 81.2423L57.5791 80.7227L56.9352 79.9188C53.5622 75.7131 54.637 70.7815 57.4393 68.0835C59.0781 66.5069 61.2054 65.6388 63.4302 65.6388C65.3 65.6388 67.0875 66.245 68.5995 67.3906C70.3004 68.6786 71.3818 70.3663 71.8127 72.4069C72.3923 75.1425 71.7704 77.5983 69.9118 79.9144L69.2702 80.7161L70.1539 81.2356C75.8273 84.5708 78.3787 89.4602 77.9522 96.1796L77.8925 97.1233H108.34V68.965L107.549 68.8763C107.496 68.8696 107.447 68.8629 107.403 68.8563C107.281 68.8386 107.154 68.8206 107.005 68.8206H105.122C104.077 68.8186 103.028 68.8163 101.983 68.8163C99.6977 68.8163 97.9391 68.8229 96.2804 68.834C95.6741 68.8386 95.1125 69.1294 94.7483 69.3715C91.7927 71.3344 88.795 73.3417 85.8972 75.2823L83.3704 76.9744V68.8963L82.2489 68.8319C82.0735 68.8206 81.9248 68.8119 81.7783 68.8052C78.907 68.6565 76.4935 66.2094 76.4002 63.3494C76.3668 62.339 76.3735 61.3021 76.3802 60.2983C76.3825 59.8298 76.3868 59.3592 76.3848 58.8906V57.2075H41.605V97.1254V97.1321ZM63.4281 68.8429C62.0068 68.8429 60.6079 69.4379 59.5866 70.475C58.5585 71.5208 58.0056 72.8821 58.0277 74.3075C58.0766 77.2342 60.4991 79.6169 63.4281 79.6169H63.4635C66.4191 79.5969 68.8173 77.1808 68.8083 74.2277C68.7993 71.2654 66.3902 68.8496 63.4391 68.8429H63.4281ZM86.6433 70.9258L88.0245 70.0021C88.5908 69.6223 89.1481 69.2492 89.6966 68.8806C91.231 67.8504 92.6787 66.8777 94.1577 65.9273C94.4329 65.7498 94.8148 65.6344 95.1279 65.6321C98.1366 65.6144 101.199 65.6121 104.057 65.6121H107.911C108.797 65.6121 109.683 65.6121 110.569 65.6121C112.45 65.6121 113.445 64.6263 113.447 62.7677C113.452 57.0921 113.452 51.3342 113.447 45.6586C113.447 43.829 112.45 42.8208 110.645 42.8186C105.915 42.8142 101.183 42.8098 96.4535 42.8098C91.7239 42.8098 87.0875 42.8119 82.4043 42.8165C80.5925 42.8165 79.5956 43.8244 79.5933 45.6475C79.5889 51.3521 79.5889 57.0542 79.5933 62.7588C79.5933 64.6196 80.5858 65.6054 82.4577 65.6144C83.1039 65.6165 83.7479 65.6188 84.4052 65.6188H86.6389V70.9279L86.6433 70.9258Z" fill="#9D9D9D"/>
<path d="M98.0648 52.3027H94.9873V55.3669H98.0648V52.3027Z" fill="#407BFF"/>
<path d="M89.1854 52.335H86.0923V55.3993H89.1854V52.335Z" fill="#407BFF"/>
<path d="M106.963 52.3066H103.874V55.371H106.963V52.3066Z" fill="#407BFF"/>
<path d="M92.572 87.8189C94.1085 87.8206 95.6451 87.8222 97.1816 87.8222C99.1381 87.8222 101.095 87.8206 103.051 87.8172C104.284 87.8156 104.549 87.1789 104.556 86.6458C104.559 86.3008 104.464 86.0258 104.271 85.8308C104.028 85.5841 103.638 85.4624 103.08 85.4591C102.378 85.4558 101.676 85.4541 100.975 85.4541C100.45 85.4541 94.8185 85.4574 94.8185 85.4574C94.0518 85.4574 93.2853 85.4574 92.507 85.4541C92.182 85.4541 91.192 85.4541 91.122 86.5358C91.102 86.8424 91.2087 87.1356 91.422 87.3656C91.692 87.6539 92.1103 87.8172 92.572 87.8189Z" fill="#407BFF"/>
<path d="M95.8666 80.2398H99.7512C100.894 80.2398 102.036 80.2398 103.179 80.2348C103.711 80.2348 104.062 80.1231 104.287 79.8898C104.466 79.705 104.552 79.4467 104.541 79.125C104.517 78.3783 104.051 78 103.158 78H103.096C102.668 78.0083 102.204 78.0117 101.641 78.0117C101.289 78.0117 100.938 78.0117 100.584 78.0083C100.231 78.0083 99.8795 78.005 99.5278 78.005H97.373C96.873 78.0067 96.373 78.005 95.8749 78.0033H95.8549C95.3582 78.0033 95.0082 78.115 94.7799 78.3433C94.5949 78.5283 94.5032 78.7867 94.5049 79.11C94.5099 79.8381 94.9932 80.2398 95.8666 80.2398Z" fill="#407BFF"/>
</g>
</g>
<defs>
<clipPath id="clip0_808_1656">
<rect width="150" height="150" fill="white"/>
</clipPath>
</defs>
</svg>
